<svg width="1314" height="681" viewBox="0 0 1314 681" fill="none" xmlns="http://www.w3.org/2000/svg">
<path d="M1212.82 522.98L1211.14 533.976C1213.2 535.515 1215.05 537.324 1216.68 539.377L1227.99 537.74L1231.82 546.782L1222.65 553.404C1223 555.97 1223 558.536 1222.65 561.053L1231.82 567.675L1227.99 576.717L1216.71 575.079C1215.13 577.083 1213.27 578.917 1211.17 580.481L1212.85 591.501L1203.57 595.241L1196.78 586.296C1194.14 586.638 1191.51 586.638 1188.93 586.296L1182.13 595.241L1172.86 591.501L1174.54 580.505C1172.48 578.966 1170.6 577.157 1169 575.104L1157.69 576.741L1153.86 567.699L1163.03 561.077C1162.68 558.511 1162.68 555.945 1163.03 553.428L1153.86 546.806L1157.69 537.764L1168.97 539.402C1170.55 537.398 1172.41 535.564 1174.51 534L1172.84 522.98L1182.11 519.241L1188.9 528.185C1191.54 527.843 1194.17 527.843 1196.75 528.185L1203.54 519.241L1212.82 522.98ZM1192.71 545.977C1186.4 545.977 1181.29 550.965 1181.29 557.117C1181.29 563.27 1186.4 568.258 1192.71 568.258C1199.03 568.258 1204.14 563.27 1204.14 557.117C1204.14 550.965 1199.03 545.977 1192.71 545.977Z" fill="#2537B1"/>
<path d="M21.54 393L22.756 397.881C23.587 398.027 24.396 398.25 25.173 398.527L28.668 394.909L31.332 396.449L29.947 401.283C30.586 401.822 31.178 402.415 31.717 403.054L36.551 401.668L38.091 404.332L34.473 407.827C34.75 408.605 34.966 409.413 35.119 410.244L40 411.46V414.54L35.119 415.756C34.973 416.587 34.75 417.395 34.473 418.173L38.091 421.668L36.551 424.332L31.717 422.946C31.178 423.585 30.586 424.178 29.947 424.717L31.332 429.551L28.668 431.091L25.173 427.473C24.396 427.75 23.587 427.965 22.756 428.119L21.54 433H18.46L17.244 428.119C16.413 427.973 15.605 427.75 14.827 427.473L11.332 431.091L8.668 429.551L10.054 424.717C9.41499 424.178 8.822 423.585 8.284 422.946L3.45001 424.332L1.909 421.668L5.52798 418.173C5.25098 417.395 5.03501 416.587 4.88101 415.756L0 414.54V411.46L4.88101 410.244C5.02701 409.413 5.25098 408.605 5.52798 407.827L1.909 404.332L3.45001 401.668L8.284 403.054C8.822 402.415 9.41499 401.822 10.054 401.283L8.668 396.449L11.332 394.909L14.827 398.527C15.605 398.25 16.413 398.035 17.244 397.881L18.46 393H21.54ZM20.17 407.58C17.006 407.58 14.441 410.146 14.441 413.31C14.441 416.474 17.006 419.038 20.17 419.038C23.334 419.038 25.899 416.474 25.899 413.31C25.899 410.146 23.334 407.58 20.17 407.58Z" fill="#2537B1"/>
<path d="M1252.54 441.414C1255.29 442.831 1258 444.345 1260.61 446.006C1262.98 447.514 1265.21 449.593 1267.87 450.568C1268.53 450.813 1268.87 449.985 1268.53 449.519C1266.79 447.135 1263.76 445.622 1261.26 444.144C1258.65 442.599 1255.96 441.234 1253.19 439.994C1252.38 439.63 1251.74 441.006 1252.54 441.414Z" fill="#BABABA"/>
<path d="M1260.98 441.874C1263.24 442.985 1265.41 444.257 1267.44 445.746C1269.46 447.224 1271.23 449.033 1273.34 450.376C1273.93 450.747 1274.77 450.046 1274.37 449.417C1271.68 445.194 1266.38 442.372 1261.96 440.314C1260.91 439.821 1259.91 441.347 1260.98 441.874Z" fill="#BABABA"/>
<rect x="1209.71" y="475.759" width="56.1456" height="58.7662" rx="12" transform="rotate(-38.8298 1209.71 475.759)" fill="#FF006A"/>
<path fill-rule="evenodd" clip-rule="evenodd" d="M1265.02 469.527C1264.6 469.165 1264.05 468.964 1263.48 468.959C1262.9 468.954 1262.34 469.145 1261.88 469.499C1261.36 469.994 1261.03 470.646 1260.94 471.338C1260.91 471.624 1260.92 471.912 1260.99 472.19L1260.75 472.317C1260.59 472.374 1260.45 472.452 1260.32 472.549C1260.16 472.607 1260.02 472.685 1259.88 472.781C1259.81 472.819 1259.77 472.841 1259.75 472.938C1259.49 472.684 1259.25 472.402 1258.97 472.155C1258.01 471.325 1256.9 470.672 1255.69 470.229C1254.53 469.841 1253.3 469.614 1252.06 469.554C1252.12 469.388 1252.17 469.22 1252.2 469.049C1252.25 468.892 1252.27 468.73 1252.27 468.568C1252.23 468.448 1252.17 468.335 1252.09 468.235C1252.04 468.104 1251.97 467.979 1251.89 467.862C1252.11 467.768 1252.33 467.653 1252.53 467.518C1252.94 467.119 1253.2 466.602 1253.27 466.051C1253.35 465.501 1253.23 464.95 1252.93 464.488C1252.72 464.043 1252.37 463.681 1251.93 463.454C1251.48 463.227 1250.97 463.147 1250.46 463.226C1250.38 463.237 1250.31 463.261 1250.24 463.299C1250.18 463.337 1250.12 463.387 1250.07 463.446C1250.02 463.505 1249.98 463.573 1249.96 463.645C1249.94 463.717 1249.93 463.792 1249.94 463.865C1249.95 463.939 1249.97 464.01 1250.01 464.074C1250.04 464.138 1250.09 464.194 1250.15 464.239C1250.21 464.284 1250.28 464.316 1250.35 464.335C1250.42 464.354 1250.5 464.358 1250.58 464.347C1250.75 464.361 1250.92 464.422 1251.06 464.522C1251.2 464.623 1251.3 464.759 1251.37 464.917C1251.58 465.304 1251.71 465.83 1251.37 466.051C1251.21 466.169 1251.03 466.254 1250.83 466.301C1250.64 466.348 1250.44 466.355 1250.25 466.322C1249.97 466.303 1249.71 466.198 1249.5 466.023C1249.34 465.856 1249.25 465.636 1249.25 465.403C1249.25 465.171 1249.33 464.943 1249.49 464.761C1249.58 464.662 1249.63 464.534 1249.62 464.405C1249.62 464.275 1249.57 464.154 1249.47 464.065C1249.38 463.977 1249.25 463.931 1249.11 463.936C1248.98 463.941 1248.85 463.997 1248.75 464.093C1248.48 464.304 1248.26 464.572 1248.1 464.875C1247.95 465.178 1247.87 465.509 1247.87 465.841C1247.86 466.174 1247.94 466.501 1248.09 466.795C1248.23 467.09 1248.45 467.345 1248.72 467.542C1249.16 467.915 1249.73 468.134 1250.33 468.169C1250.28 468.265 1250.24 468.365 1250.22 468.467C1250.2 468.592 1250.2 468.72 1250.22 468.843C1250.23 468.976 1250.25 469.106 1250.3 469.228L1250.43 469.468C1248.84 469.544 1247.25 469.877 1245.75 470.454C1242.9 471.547 1240.53 473.615 1239.09 476.258C1238.95 476.025 1238.78 475.805 1238.59 475.599C1238.45 475.48 1238.29 475.369 1238.13 475.266C1237.97 475.18 1237.8 475.104 1237.63 475.038C1237.45 474.972 1237.27 474.921 1237.08 474.886L1237.18 474.834C1237.29 474.285 1237.22 473.722 1236.96 473.237C1236.7 472.752 1236.27 472.376 1235.75 472.171C1235.32 471.926 1234.82 471.821 1234.31 471.871C1233.81 471.921 1233.32 472.122 1232.93 472.447C1232.81 472.547 1232.74 472.687 1232.73 472.836C1232.71 472.985 1232.76 473.131 1232.85 473.243C1232.9 473.3 1232.96 473.346 1233.03 473.379C1233.1 473.412 1233.17 473.431 1233.25 473.435C1233.32 473.439 1233.4 473.428 1233.47 473.403C1233.54 473.377 1233.61 473.337 1233.67 473.286C1233.83 473.211 1234 473.177 1234.18 473.185C1234.35 473.193 1234.52 473.245 1234.67 473.335C1235.07 473.527 1235.48 473.89 1235.31 474.26C1235.24 474.443 1235.13 474.61 1234.99 474.752C1234.86 474.894 1234.69 475.007 1234.51 475.083C1234.26 475.207 1233.98 475.26 1233.71 475.237C1233.48 475.195 1233.27 475.068 1233.13 474.881C1232.99 474.694 1232.94 474.46 1232.97 474.227C1232.99 474.096 1232.96 473.963 1232.89 473.856C1232.81 473.75 1232.69 473.68 1232.56 473.66C1232.49 473.651 1232.43 473.654 1232.36 473.67C1232.3 473.686 1232.24 473.714 1232.18 473.753C1232.13 473.792 1232.08 473.84 1232.04 473.896C1232.01 473.951 1231.98 474.013 1231.97 474.077C1231.86 474.396 1231.82 474.734 1231.86 475.064C1231.89 475.395 1232.01 475.709 1232.2 475.983C1232.39 476.256 1232.64 476.481 1232.93 476.64C1233.23 476.8 1233.56 476.889 1233.9 476.9C1234.58 476.981 1235.28 476.819 1235.87 476.445C1235.98 476.385 1236.08 476.333 1236.15 476.193C1236.28 476.353 1236.43 476.504 1236.59 476.643C1236.71 476.744 1236.85 476.838 1236.99 476.925C1237.14 477.028 1237.3 477.108 1237.47 477.161C1237.81 477.289 1238.14 477.355 1238.47 477.448C1238.18 478.186 1237.99 478.952 1237.9 479.728C1237.84 480.602 1237.86 481.476 1237.95 482.341C1237.96 482.405 1237.97 482.467 1238 482.524C1238.03 482.582 1238.07 482.632 1238.12 482.673C1238.17 482.714 1238.23 482.745 1238.29 482.764C1238.36 482.783 1238.42 482.789 1238.49 482.783C1238.55 482.777 1238.62 482.758 1238.68 482.727C1238.74 482.697 1238.79 482.655 1238.84 482.606C1238.88 482.556 1238.91 482.498 1238.94 482.436C1238.96 482.374 1238.97 482.309 1238.96 482.245C1238.77 479.994 1239.41 477.719 1240.76 475.821C1242.11 473.924 1244.08 472.526 1246.33 471.874C1249.16 470.85 1252.24 470.857 1254.99 471.894C1260.04 473.866 1262.6 480.176 1259.78 484.966C1256.16 491.056 1248.02 493.592 1243.05 489.465C1241.55 488.056 1240.48 486.255 1239.97 484.259C1239.93 484.116 1239.84 483.995 1239.71 483.921C1239.58 483.847 1239.42 483.826 1239.27 483.862C1239.2 483.881 1239.13 483.915 1239.07 483.96C1239 484.006 1238.95 484.063 1238.91 484.128C1238.87 484.192 1238.84 484.264 1238.83 484.338C1238.82 484.412 1238.82 484.487 1238.84 484.558C1238.98 484.825 1239.01 485.103 1239.09 485.386C1238.78 485.411 1238.47 485.455 1238.17 485.519C1238.02 485.582 1237.87 485.66 1237.74 485.751C1237.59 485.815 1237.44 485.893 1237.3 485.983L1237.21 486.035C1236.98 485.744 1236.67 485.525 1236.31 485.402C1235.65 485.236 1234.94 485.292 1234.29 485.559C1233.65 485.842 1233.13 486.34 1232.83 486.959C1232.65 487.25 1232.54 487.574 1232.51 487.907C1232.48 488.24 1232.53 488.573 1232.65 488.878C1232.78 489.184 1232.97 489.455 1233.23 489.67C1233.48 489.884 1233.78 490.036 1234.11 490.114C1234.17 490.142 1234.24 490.157 1234.31 490.158C1234.38 490.16 1234.44 490.148 1234.51 490.123C1234.57 490.098 1234.63 490.061 1234.68 490.014C1234.73 489.967 1234.77 489.911 1234.8 489.85C1234.83 489.723 1234.82 489.59 1234.76 489.476C1234.7 489.363 1234.59 489.277 1234.47 489.237C1234.26 489.138 1234.1 488.962 1234.02 488.747C1233.94 488.532 1233.95 488.292 1234.04 488.076C1234.19 487.819 1234.43 487.619 1234.71 487.512C1234.87 487.394 1235.06 487.314 1235.25 487.278C1235.45 487.241 1235.65 487.249 1235.84 487.302C1236.24 487.344 1236.31 487.887 1236.25 488.334C1236.18 488.78 1236.08 489.058 1235.74 489.191C1235.66 489.21 1235.59 489.245 1235.53 489.291C1235.47 489.338 1235.42 489.395 1235.38 489.461C1235.34 489.527 1235.32 489.599 1235.31 489.673C1235.3 489.747 1235.3 489.822 1235.32 489.893C1235.36 490.036 1235.46 490.155 1235.59 490.226C1235.72 490.296 1235.88 490.312 1236.03 490.269C1236.52 490.128 1236.96 489.84 1237.28 489.449C1237.6 489.057 1237.79 488.581 1237.82 488.088C1237.82 487.917 1237.81 487.746 1237.78 487.578L1238.1 487.529C1238.25 487.463 1238.4 487.383 1238.54 487.289C1238.7 487.225 1238.84 487.148 1238.98 487.057C1239.16 486.934 1239.34 486.797 1239.51 486.65C1240.08 488.084 1240.97 489.364 1242.12 490.397C1243.59 491.602 1245.37 492.417 1247.29 492.767C1247.29 492.767 1247.22 492.941 1247.2 493.037C1247.16 493.211 1247.14 493.389 1247.14 493.566C1247.14 493.75 1247.15 493.934 1247.17 494.117C1247.26 494.29 1247.26 494.529 1247.3 494.732L1246.95 494.817C1246.34 495.119 1245.84 495.616 1245.55 496.222C1245.37 496.514 1245.26 496.839 1245.23 497.173C1245.2 497.508 1245.25 497.841 1245.37 498.148C1245.5 498.455 1245.7 498.726 1245.95 498.942C1246.2 499.157 1246.51 499.311 1246.84 499.39C1246.96 499.441 1247.1 499.442 1247.23 499.393C1247.36 499.343 1247.46 499.247 1247.52 499.125C1247.57 499.003 1247.58 498.866 1247.53 498.744C1247.49 498.622 1247.4 498.524 1247.28 498.468C1247.06 498.372 1246.89 498.197 1246.81 497.98C1246.73 497.763 1246.73 497.52 1246.83 497.301C1246.97 497.065 1247.16 496.865 1247.4 496.721C1247.56 496.608 1247.75 496.531 1247.94 496.495C1248.14 496.459 1248.34 496.464 1248.53 496.511C1248.93 496.567 1249.01 497.109 1248.94 497.556C1248.94 497.727 1248.89 497.897 1248.8 498.048C1248.72 498.198 1248.59 498.324 1248.43 498.413C1248.36 498.433 1248.29 498.467 1248.23 498.513C1248.17 498.56 1248.11 498.618 1248.07 498.684C1248.04 498.749 1248.01 498.821 1248 498.896C1247.99 498.97 1248 499.045 1248.02 499.115C1248.06 499.258 1248.15 499.378 1248.29 499.448C1248.42 499.519 1248.58 499.534 1248.72 499.492C1249.21 499.346 1249.65 499.056 1249.97 498.662C1250.29 498.268 1250.48 497.791 1250.51 497.297C1250.63 496.749 1250.55 496.184 1250.29 495.699C1250.03 495.213 1249.61 494.837 1249.08 494.634L1249 494.679L1249.16 494.146C1249.21 493.964 1249.24 493.776 1249.24 493.589C1249.26 493.402 1249.25 493.214 1249.23 493.03C1250.36 493.105 1251.52 492.982 1252.62 492.664C1253.42 492.422 1254.19 492.095 1254.92 491.688C1255 491.671 1255.07 491.632 1255.13 491.576L1256.2 490.999C1258.07 489.857 1259.68 488.36 1260.94 486.604C1260.98 486.687 1261.02 486.767 1261.07 486.843C1261.14 486.949 1261.23 487.042 1261.33 487.118C1261.42 487.204 1261.52 487.276 1261.64 487.328C1261.75 487.371 1261.86 487.379 1261.97 487.408C1261.66 487.924 1261.53 488.518 1261.6 489.098C1261.61 489.427 1261.7 489.746 1261.85 490.031C1262.01 490.316 1262.23 490.56 1262.51 490.744C1262.78 490.929 1263.09 491.049 1263.42 491.095C1263.76 491.142 1264.1 491.114 1264.42 491.013C1264.56 490.984 1264.68 490.907 1264.76 490.796C1264.84 490.685 1264.88 490.55 1264.86 490.419C1264.84 490.29 1264.76 490.177 1264.65 490.105C1264.54 490.032 1264.41 490.005 1264.27 490.03C1264.04 490.061 1263.8 490.005 1263.61 489.872C1263.42 489.74 1263.29 489.541 1263.24 489.314C1263.21 489.046 1263.26 488.771 1263.4 488.529C1263.47 488.351 1263.59 488.19 1263.73 488.056C1263.88 487.922 1264.05 487.818 1264.24 487.751C1264.61 487.549 1264.99 487.982 1265.18 488.376C1265.28 488.515 1265.33 488.678 1265.34 488.847C1265.35 489.017 1265.31 489.188 1265.23 489.343C1265.13 489.459 1265.08 489.608 1265.09 489.758C1265.09 489.908 1265.16 490.047 1265.27 490.146C1265.33 490.194 1265.39 490.229 1265.47 490.25C1265.54 490.272 1265.61 490.279 1265.69 490.272C1265.77 490.264 1265.84 490.242 1265.91 490.207C1265.98 490.172 1266.04 490.124 1266.09 490.067C1266.43 489.686 1266.65 489.215 1266.7 488.719C1266.76 488.224 1266.66 487.73 1266.41 487.307C1266.18 486.807 1265.79 486.404 1265.29 486.164C1264.78 485.924 1264.21 485.863 1263.65 485.991C1263.43 486.076 1263.22 486.189 1263.02 486.327L1262.82 485.955C1262.74 485.847 1262.65 485.754 1262.53 485.682C1262.43 485.597 1262.32 485.53 1262.19 485.486C1262.05 485.419 1261.9 485.367 1261.75 485.33C1262.86 483.289 1263.24 480.974 1262.85 478.751C1262.74 478.093 1262.55 477.45 1262.31 476.831C1262.05 476.169 1261.73 475.529 1261.37 474.916C1261.24 474.663 1261.03 474.447 1260.85 474.217C1260.98 474.166 1261.1 474.1 1261.21 474.022C1261.36 473.963 1261.49 473.89 1261.62 473.805L1261.82 473.611C1262.01 473.826 1262.24 473.999 1262.5 474.118C1262.77 474.238 1263.06 474.301 1263.35 474.305C1263.64 474.308 1263.94 474.251 1264.21 474.138C1264.49 474.025 1264.74 473.858 1264.95 473.647C1265 473.608 1265.05 473.558 1265.08 473.501C1265.12 473.445 1265.14 473.382 1265.15 473.317C1265.16 473.252 1265.16 473.187 1265.15 473.124C1265.13 473.062 1265.1 473.003 1265.06 472.952C1264.98 472.85 1264.87 472.782 1264.74 472.763C1264.61 472.743 1264.47 472.774 1264.36 472.849C1264.16 472.983 1263.91 473.04 1263.68 473.009C1263.44 472.977 1263.23 472.859 1263.08 472.678C1262.93 472.459 1262.86 472.197 1262.88 471.93C1262.86 471.738 1262.89 471.545 1262.96 471.362C1263.03 471.179 1263.14 471.012 1263.28 470.873C1263.54 470.56 1264.08 470.753 1264.43 471.009C1264.58 471.097 1264.7 471.222 1264.78 471.371C1264.86 471.521 1264.9 471.69 1264.89 471.861C1264.84 472.005 1264.86 472.158 1264.93 472.288C1265 472.417 1265.12 472.513 1265.26 472.554C1265.41 472.593 1265.57 472.573 1265.71 472.499C1265.84 472.425 1265.95 472.302 1266 472.157C1266.16 471.663 1266.14 471.139 1265.97 470.665C1265.79 470.19 1265.46 469.791 1265.02 469.527Z" fill="white"/>
<path fill-rule="evenodd" clip-rule="evenodd" d="M1243.04 479.696C1243.17 479.936 1243.14 480.258 1243.23 480.52C1243.6 481.648 1244.05 482.747 1244.58 483.808L1242.02 485.302C1240.85 485.931 1241.04 486.809 1242.59 486.354L1245.35 485.165C1245.91 486.147 1246.57 487.075 1247.3 487.939C1246.96 488.273 1246.64 488.628 1246.35 489.002C1245.53 490.42 1246.71 490.657 1247.24 490.066C1247.77 489.474 1248.01 489.36 1248.46 488.997C1248.98 489.502 1249.56 489.946 1250.18 490.322C1250.73 490.938 1252.23 490.798 1252.13 489.793C1251.27 489.294 1250.48 488.692 1249.78 488L1250.2 487.775C1250.96 487.227 1251.76 486.697 1252.56 486.216C1253.36 485.734 1253.81 485.542 1254.44 485.205C1254.85 486.104 1255.2 487.026 1255.49 487.968C1255.89 488.713 1256.91 487.587 1256.56 486.606C1256.38 485.811 1256.16 485.026 1255.89 484.255C1256.97 483.736 1258.07 483.272 1259.19 482.864C1260.38 482.5 1260.58 481.48 1259.57 481.405C1258.14 481.741 1256.72 482.173 1255.34 482.698C1255.32 482.641 1255.29 482.587 1255.26 482.538C1254.94 481.863 1254.59 481.205 1254.2 480.567C1255.72 479.603 1257.18 478.548 1258.58 477.41C1259.98 476.449 1259.08 475.803 1257.96 476.265C1256.65 477.161 1255.3 478.003 1254.02 478.726L1253.35 479.085C1253.02 478.473 1252.63 477.911 1252.21 477.364C1251.79 476.817 1251.24 476.167 1250.8 475.67C1251.82 475.021 1252.8 474.297 1253.71 473.504C1253.78 473.456 1253.83 473.397 1253.87 473.33C1253.91 473.263 1253.93 473.189 1253.94 473.113C1253.95 473.038 1253.94 472.962 1253.92 472.889C1253.9 472.817 1253.87 472.751 1253.82 472.693C1253.78 472.628 1253.73 472.573 1253.66 472.529C1253.6 472.486 1253.53 472.457 1253.45 472.443C1253.37 472.43 1253.29 472.432 1253.22 472.45C1253.14 472.468 1253.07 472.501 1253 472.548C1252.05 473.215 1251.05 473.815 1250.01 474.341L1249.82 474.446C1249.05 473.622 1248.29 472.846 1247.53 472.103C1247.49 472.055 1247.44 472.016 1247.38 471.988C1247.32 471.961 1247.26 471.945 1247.19 471.943C1247.12 471.94 1247.06 471.95 1246.99 471.973C1246.93 471.996 1246.87 472.031 1246.82 472.076C1246.72 472.165 1246.65 472.289 1246.64 472.421C1246.62 472.553 1246.66 472.683 1246.75 472.782C1247.33 473.499 1247.9 474.291 1248.46 475.091L1247.66 475.518L1245.26 476.703L1243.87 477.452L1243.65 477.053C1243.52 476.395 1243.46 475.722 1243.49 475.046C1243.49 474.904 1243.44 474.768 1243.35 474.665C1243.25 474.562 1243.11 474.5 1242.97 474.491C1242.82 474.483 1242.68 474.528 1242.56 474.618C1242.44 474.708 1242.37 474.837 1242.34 474.978C1242.32 475.734 1242.38 476.487 1242.54 477.222C1242.58 477.527 1242.68 477.795 1242.74 478.106L1241.46 478.795L1241.03 478.972C1239.69 479.486 1239.56 480.572 1240.8 480.451L1241.96 480.191C1242.25 480.034 1242.66 479.817 1243.04 479.696ZM1253.12 482.482L1253.61 483.387L1251.57 484.481C1250.69 485.006 1249.85 485.596 1249.05 486.245L1248.69 486.611C1248.1 485.879 1247.56 485.112 1247.06 484.312L1248.05 483.869C1249.58 483.142 1251.07 482.34 1252.52 481.466C1252.75 481.879 1252.96 482.176 1253.12 482.482ZM1244.79 479.941C1244.65 479.688 1244.61 479.383 1244.5 479.102L1246.1 478.398L1249.47 476.586C1249.85 477.291 1250.33 477.842 1250.8 478.585L1251.58 480.049L1248.53 481.689L1246.27 482.902C1245.71 481.95 1245.22 480.961 1244.79 479.941Z" fill="white"/>
<g filter="url(#filter0_d_74_4795)">
<rect x="1209.71" y="475.759" width="48" height="48" rx="5" transform="rotate(-38.8298 1209.71 475.759)" fill="white" fill-opacity="0.01" shape-rendering="crispEdges"/>
</g>
<path d="M134.831 349.414C137.584 350.831 140.293 352.345 142.905 354.006C145.276 355.514 147.507 357.593 150.159 358.568C150.826 358.813 151.159 357.985 150.818 357.519C149.078 355.135 146.049 353.622 143.553 352.144C140.943 350.599 138.254 349.234 135.487 347.994C134.677 347.63 134.037 349.006 134.831 349.414Z" fill="#BABABA"/>
<path d="M143.272 349.874C145.534 350.985 147.698 352.257 149.735 353.746C151.756 355.224 153.52 357.033 155.636 358.376C156.22 358.747 157.064 358.046 156.662 357.417C153.969 353.194 148.672 350.372 144.254 348.314C143.198 347.821 142.198 349.347 143.272 349.874Z" fill="#BABABA"/>
<rect x="92" y="383.759" width="56.1456" height="58.7662" rx="12" transform="rotate(-38.8298 92 383.759)" fill="#FF6F00"/>
<path fill-rule="evenodd" clip-rule="evenodd" d="M147.311 377.527C146.887 377.165 146.341 376.964 145.767 376.959C145.194 376.954 144.628 377.145 144.169 377.499C143.65 377.994 143.319 378.646 143.234 379.338C143.199 379.624 143.214 379.912 143.278 380.19L143.041 380.317C142.886 380.374 142.741 380.452 142.608 380.549C142.454 380.607 142.309 380.685 142.176 380.781C142.106 380.819 142.064 380.841 142.044 380.938C141.782 380.684 141.541 380.402 141.265 380.155C140.304 379.325 139.194 378.672 137.984 378.229C136.818 377.841 135.595 377.614 134.352 377.554C134.41 377.388 134.457 377.22 134.494 377.049C134.542 376.892 134.564 376.73 134.56 376.568C134.519 376.448 134.459 376.335 134.381 376.235C134.329 376.104 134.262 375.979 134.181 375.862C134.405 375.768 134.62 375.653 134.822 375.518C135.23 375.119 135.491 374.602 135.565 374.051C135.638 373.501 135.519 372.95 135.226 372.488C135.016 372.043 134.662 371.681 134.217 371.454C133.772 371.227 133.259 371.147 132.752 371.226C132.676 371.237 132.603 371.261 132.535 371.299C132.468 371.337 132.409 371.387 132.36 371.446C132.312 371.505 132.276 371.573 132.254 371.645C132.232 371.717 132.225 371.792 132.233 371.865C132.24 371.939 132.263 372.01 132.299 372.074C132.335 372.138 132.384 372.194 132.443 372.239C132.502 372.284 132.57 372.316 132.643 372.335C132.716 372.354 132.793 372.358 132.869 372.347C133.044 372.361 133.211 372.422 133.35 372.522C133.489 372.623 133.597 372.759 133.66 372.917C133.867 373.304 134.006 373.83 133.657 374.051C133.499 374.169 133.318 374.254 133.126 374.301C132.935 374.348 132.737 374.355 132.545 374.322C132.265 374.303 132.002 374.198 131.792 374.023C131.634 373.856 131.545 373.636 131.543 373.403C131.54 373.171 131.624 372.943 131.779 372.761C131.869 372.662 131.918 372.534 131.915 372.405C131.913 372.275 131.859 372.154 131.765 372.065C131.668 371.977 131.539 371.931 131.404 371.936C131.269 371.941 131.139 371.997 131.043 372.093C130.771 372.304 130.55 372.572 130.397 372.875C130.244 373.178 130.162 373.509 130.159 373.841C130.155 374.174 130.23 374.501 130.377 374.795C130.524 375.09 130.74 375.345 131.008 375.542C131.457 375.915 132.021 376.134 132.62 376.169C132.573 376.265 132.537 376.365 132.511 376.467C132.488 376.592 132.489 376.72 132.515 376.843C132.517 376.976 132.545 377.106 132.596 377.228L132.724 377.468C131.129 377.544 129.547 377.877 128.043 378.454C125.195 379.547 122.822 381.615 121.384 384.258C121.237 384.025 121.071 383.805 120.886 383.599C120.737 383.48 120.582 383.369 120.42 383.266C120.258 383.18 120.091 383.104 119.92 383.038C119.742 382.972 119.559 382.921 119.371 382.886L119.469 382.834C119.586 382.285 119.508 381.722 119.248 381.237C118.987 380.752 118.561 380.376 118.039 380.171C117.61 379.926 117.108 379.821 116.603 379.871C116.098 379.921 115.616 380.122 115.223 380.447C115.105 380.547 115.031 380.687 115.017 380.836C115.003 380.985 115.05 381.131 115.147 381.243C115.194 381.3 115.253 381.346 115.32 381.379C115.388 381.412 115.461 381.431 115.538 381.435C115.614 381.439 115.69 381.428 115.763 381.403C115.836 381.377 115.903 381.337 115.961 381.286C116.121 381.211 116.296 381.177 116.47 381.185C116.645 381.193 116.812 381.245 116.957 381.335C117.366 381.527 117.776 381.89 117.598 382.26C117.53 382.443 117.424 382.61 117.287 382.752C117.149 382.894 116.983 383.007 116.8 383.083C116.551 383.207 116.274 383.26 116.002 383.237C115.767 383.195 115.561 383.068 115.424 382.881C115.287 382.694 115.229 382.46 115.262 382.227C115.286 382.096 115.256 381.963 115.179 381.856C115.102 381.75 114.983 381.68 114.85 381.66C114.785 381.651 114.718 381.654 114.653 381.67C114.589 381.686 114.527 381.714 114.473 381.753C114.419 381.792 114.372 381.84 114.336 381.896C114.301 381.951 114.276 382.013 114.265 382.077C114.148 382.396 114.108 382.734 114.148 383.064C114.187 383.395 114.305 383.709 114.491 383.983C114.678 384.256 114.929 384.481 115.224 384.64C115.52 384.8 115.852 384.889 116.194 384.9C116.875 384.981 117.572 384.819 118.16 384.445C118.271 384.385 118.369 384.333 118.438 384.193C118.573 384.353 118.72 384.504 118.877 384.643C119.006 384.744 119.14 384.838 119.28 384.925C119.427 385.028 119.591 385.108 119.766 385.161C120.104 385.289 120.427 385.355 120.765 385.448C120.477 386.186 120.284 386.952 120.192 387.728C120.132 388.602 120.15 389.476 120.246 390.341C120.25 390.405 120.267 390.467 120.296 390.524C120.325 390.582 120.365 390.632 120.415 390.673C120.464 390.714 120.522 390.745 120.585 390.764C120.648 390.783 120.714 390.789 120.78 390.783C120.846 390.777 120.911 390.758 120.971 390.727C121.031 390.697 121.084 390.655 121.128 390.606C121.172 390.556 121.206 390.498 121.228 390.436C121.25 390.374 121.259 390.309 121.255 390.245C121.066 387.994 121.701 385.719 123.05 383.821C124.398 381.924 126.373 380.526 128.625 379.874C131.457 378.85 134.535 378.857 137.279 379.894C142.327 381.866 144.888 388.176 142.068 392.966C138.455 399.056 130.311 401.592 125.346 397.465C123.838 396.056 122.772 394.255 122.264 392.259C122.226 392.116 122.132 391.995 122.002 391.921C121.872 391.847 121.716 391.826 121.566 391.862C121.491 391.881 121.421 391.915 121.359 391.96C121.297 392.006 121.244 392.063 121.203 392.128C121.163 392.192 121.136 392.264 121.123 392.338C121.111 392.412 121.114 392.487 121.131 392.558C121.274 392.825 121.298 393.103 121.378 393.386C121.07 393.411 120.764 393.455 120.461 393.519C120.31 393.582 120.165 393.66 120.028 393.751C119.878 393.815 119.733 393.893 119.596 393.983L119.498 394.035C119.269 393.744 118.958 393.525 118.601 393.402C117.938 393.236 117.228 393.292 116.583 393.559C115.944 393.842 115.425 394.34 115.125 394.959C114.945 395.25 114.835 395.574 114.804 395.907C114.773 396.24 114.821 396.573 114.945 396.878C115.069 397.184 115.266 397.455 115.519 397.67C115.772 397.884 116.076 398.036 116.405 398.114C116.466 398.142 116.532 398.157 116.6 398.158C116.668 398.16 116.736 398.148 116.8 398.123C116.864 398.098 116.923 398.061 116.972 398.014C117.022 397.967 117.062 397.911 117.09 397.85C117.125 397.723 117.111 397.59 117.05 397.476C116.989 397.363 116.886 397.277 116.761 397.237C116.55 397.138 116.389 396.962 116.31 396.747C116.231 396.532 116.24 396.292 116.335 396.076C116.485 395.819 116.722 395.619 117.003 395.512C117.164 395.394 117.35 395.314 117.546 395.278C117.741 395.241 117.941 395.249 118.13 395.302C118.53 395.344 118.605 395.887 118.54 396.334C118.474 396.78 118.372 397.058 118.03 397.191C117.955 397.21 117.885 397.245 117.823 397.291C117.762 397.338 117.71 397.395 117.672 397.461C117.633 397.527 117.608 397.599 117.598 397.673C117.589 397.747 117.595 397.822 117.616 397.893C117.655 398.036 117.751 398.155 117.883 398.226C118.015 398.296 118.173 398.312 118.321 398.269C118.811 398.128 119.248 397.84 119.57 397.449C119.892 397.057 120.083 396.581 120.115 396.088C120.116 395.917 120.102 395.746 120.075 395.578L120.39 395.529C120.546 395.463 120.695 395.383 120.836 395.289C120.987 395.225 121.132 395.148 121.269 395.057C121.457 394.934 121.636 394.797 121.805 394.65C122.367 396.084 123.257 397.364 124.409 398.397C125.887 399.602 127.664 400.417 129.58 400.767C129.58 400.767 129.512 400.941 129.492 401.037C129.449 401.211 129.43 401.389 129.434 401.566C129.433 401.75 129.442 401.934 129.461 402.117C129.554 402.29 129.556 402.529 129.593 402.732L129.244 402.817C128.63 403.119 128.134 403.616 127.841 404.222C127.662 404.514 127.553 404.839 127.522 405.173C127.492 405.508 127.541 405.841 127.665 406.148C127.79 406.455 127.987 406.726 128.241 406.942C128.495 407.157 128.799 407.311 129.129 407.39C129.252 407.441 129.393 407.442 129.521 407.393C129.649 407.343 129.754 407.247 129.813 407.125C129.867 407.003 129.871 406.866 129.826 406.744C129.78 406.622 129.688 406.524 129.568 406.468C129.352 406.372 129.186 406.197 129.102 405.98C129.019 405.763 129.026 405.52 129.122 405.301C129.258 405.065 129.454 404.865 129.691 404.721C129.855 404.608 130.04 404.531 130.235 404.495C130.43 404.459 130.629 404.464 130.818 404.511C131.225 404.567 131.301 405.109 131.235 405.556C131.234 405.727 131.186 405.897 131.097 406.048C131.007 406.198 130.879 406.324 130.725 406.413C130.65 406.433 130.58 406.467 130.519 406.513C130.457 406.56 130.405 406.618 130.367 406.684C130.328 406.749 130.303 406.821 130.294 406.896C130.284 406.97 130.29 407.045 130.311 407.115C130.35 407.258 130.446 407.378 130.578 407.448C130.71 407.519 130.868 407.534 131.016 407.492C131.505 407.346 131.941 407.056 132.262 406.662C132.583 406.268 132.772 405.791 132.803 405.297C132.923 404.749 132.847 404.184 132.586 403.699C132.325 403.213 131.897 402.837 131.374 402.634L131.29 402.679L131.453 402.146C131.507 401.964 131.533 401.776 131.531 401.589C131.548 401.402 131.544 401.214 131.519 401.03C132.657 401.105 133.807 400.982 134.916 400.664C135.713 400.422 136.484 400.095 137.213 399.688C137.292 399.671 137.365 399.632 137.423 399.576L138.497 398.999C140.358 397.857 141.971 396.36 143.235 394.604C143.271 394.687 143.314 394.767 143.363 394.843C143.431 394.949 143.517 395.042 143.619 395.118C143.709 395.204 143.814 395.276 143.929 395.328C144.042 395.371 144.154 395.379 144.26 395.408C143.952 395.924 143.823 396.518 143.891 397.098C143.901 397.427 143.988 397.746 144.146 398.031C144.303 398.316 144.526 398.56 144.798 398.744C145.07 398.929 145.384 399.049 145.716 399.095C146.049 399.142 146.39 399.114 146.716 399.013C146.85 398.984 146.971 398.907 147.052 398.796C147.133 398.685 147.169 398.55 147.151 398.419C147.128 398.29 147.054 398.177 146.944 398.105C146.835 398.032 146.699 398.005 146.565 398.03C146.328 398.061 146.09 398.005 145.899 397.872C145.709 397.74 145.578 397.541 145.534 397.314C145.499 397.046 145.553 396.771 145.688 396.529C145.766 396.351 145.881 396.19 146.026 396.056C146.171 395.922 146.342 395.818 146.528 395.751C146.905 395.549 147.281 395.982 147.474 396.376C147.569 396.515 147.623 396.678 147.632 396.847C147.641 397.017 147.605 397.188 147.526 397.343C147.424 397.459 147.37 397.608 147.377 397.758C147.384 397.908 147.45 398.047 147.562 398.146C147.619 398.194 147.686 398.229 147.758 398.25C147.83 398.272 147.906 398.279 147.982 398.272C148.059 398.264 148.133 398.242 148.202 398.207C148.27 398.172 148.331 398.124 148.382 398.067C148.724 397.686 148.938 397.215 148.995 396.719C149.051 396.224 148.947 395.73 148.698 395.307C148.475 394.807 148.08 394.404 147.578 394.164C147.077 393.924 146.499 393.863 145.942 393.991C145.72 394.076 145.509 394.189 145.315 394.327L145.114 393.955C145.036 393.847 144.938 393.754 144.824 393.682C144.725 393.597 144.61 393.53 144.486 393.486C144.344 393.419 144.196 393.367 144.042 393.33C145.147 391.289 145.536 388.974 145.147 386.751C145.029 386.093 144.846 385.45 144.601 384.831C144.338 384.169 144.024 383.529 143.663 382.916C143.527 382.663 143.322 382.447 143.144 382.217C143.272 382.166 143.393 382.1 143.507 382.022C143.648 381.963 143.784 381.89 143.911 381.805L144.113 381.611C144.3 381.826 144.532 381.999 144.796 382.118C145.059 382.238 145.347 382.301 145.642 382.305C145.936 382.308 146.231 382.251 146.506 382.138C146.781 382.025 147.032 381.858 147.241 381.647C147.295 381.608 147.342 381.558 147.377 381.501C147.412 381.445 147.436 381.382 147.446 381.317C147.457 381.252 147.454 381.187 147.438 381.124C147.422 381.062 147.393 381.003 147.353 380.952C147.275 380.85 147.159 380.782 147.028 380.763C146.898 380.743 146.762 380.774 146.651 380.849C146.448 380.983 146.204 381.04 145.967 381.009C145.73 380.977 145.518 380.859 145.373 380.678C145.224 380.459 145.153 380.197 145.169 379.93C145.153 379.738 145.181 379.545 145.251 379.362C145.321 379.179 145.43 379.012 145.572 378.873C145.835 378.56 146.37 378.753 146.723 379.009C146.871 379.097 146.991 379.222 147.071 379.371C147.152 379.521 147.189 379.69 147.18 379.861C147.135 380.005 147.148 380.158 147.217 380.288C147.287 380.417 147.407 380.513 147.552 380.554C147.7 380.593 147.861 380.573 147.999 380.499C148.137 380.425 148.242 380.302 148.291 380.157C148.448 379.663 148.437 379.139 148.26 378.665C148.083 378.19 147.75 377.791 147.311 377.527Z" fill="white"/>
<path fill-rule="evenodd" clip-rule="evenodd" d="M125.331 387.696C125.46 387.936 125.435 388.258 125.522 388.52C125.894 389.648 126.345 390.747 126.874 391.808L124.315 393.302C123.143 393.931 123.328 394.809 124.88 394.354L127.638 393.165C128.203 394.147 128.858 395.075 129.594 395.939C129.252 396.273 128.932 396.628 128.637 397.002C127.817 398.42 129.005 398.657 129.532 398.066C130.059 397.474 130.303 397.36 130.755 396.997C131.273 397.502 131.849 397.946 132.473 398.322C133.019 398.938 134.525 398.798 134.417 397.793C133.558 397.294 132.77 396.692 132.07 396L132.489 395.775C133.255 395.227 134.049 394.697 134.85 394.216C135.652 393.734 136.106 393.542 136.733 393.205C137.137 394.104 137.489 395.026 137.785 395.968C138.186 396.713 139.198 395.587 138.851 394.606C138.67 393.811 138.447 393.026 138.182 392.255C139.257 391.736 140.357 391.272 141.478 390.864C142.667 390.5 142.874 389.48 141.863 389.405C140.428 389.741 139.015 390.173 137.634 390.698C137.612 390.641 137.583 390.587 137.548 390.538C137.231 389.863 136.877 389.205 136.49 388.567C138.013 387.603 139.475 386.548 140.869 385.41C142.276 384.449 141.372 383.803 140.254 384.265C138.938 385.161 137.593 386.003 136.31 386.726L135.641 387.085C135.312 386.473 134.92 385.911 134.501 385.364C134.082 384.817 133.535 384.167 133.088 383.67C134.114 383.021 135.089 382.297 136.005 381.504C136.067 381.456 136.119 381.397 136.159 381.33C136.198 381.263 136.223 381.189 136.233 381.113C136.242 381.038 136.236 380.962 136.215 380.889C136.194 380.817 136.158 380.751 136.109 380.693C136.07 380.628 136.017 380.573 135.954 380.529C135.89 380.486 135.818 380.457 135.741 380.443C135.665 380.43 135.585 380.432 135.508 380.45C135.431 380.468 135.358 380.501 135.294 380.548C134.341 381.215 133.342 381.815 132.304 382.341L132.108 382.446C131.343 381.622 130.584 380.846 129.826 380.103C129.784 380.055 129.731 380.016 129.671 379.988C129.612 379.961 129.547 379.945 129.48 379.943C129.414 379.94 129.347 379.95 129.283 379.973C129.22 379.996 129.161 380.031 129.111 380.076C129.007 380.165 128.941 380.289 128.928 380.421C128.915 380.553 128.955 380.683 129.041 380.782C129.623 381.499 130.192 382.291 130.747 383.091L129.952 383.518L127.552 384.703L126.157 385.452L125.943 385.053C125.809 384.395 125.755 383.722 125.782 383.046C125.785 382.904 125.733 382.768 125.637 382.665C125.54 382.562 125.405 382.5 125.26 382.491C125.114 382.483 124.969 382.528 124.852 382.618C124.736 382.708 124.657 382.837 124.631 382.978C124.607 383.734 124.674 384.487 124.829 385.222C124.867 385.527 124.975 385.795 125.035 386.106L123.751 386.795L123.325 386.972C121.984 387.486 121.848 388.572 123.095 388.451L124.249 388.191C124.542 388.034 124.947 387.817 125.331 387.696ZM135.416 390.482L135.902 391.387L133.865 392.481C132.982 393.006 132.139 393.596 131.344 394.245L130.983 394.611C130.392 393.879 129.847 393.112 129.354 392.312L130.338 391.869C131.869 391.142 133.364 390.34 134.816 389.466C135.038 389.879 135.251 390.176 135.416 390.482ZM127.08 387.941C126.944 387.688 126.906 387.383 126.791 387.102L128.39 386.398L131.765 384.586C132.144 385.291 132.62 385.842 133.09 386.585L133.876 388.049L130.821 389.689L128.561 390.902C128.001 389.95 127.507 388.961 127.08 387.941Z" fill="white"/>
<g filter="url(#filter1_d_74_4795)">
<rect x="92" y="383.759" width="48" height="48" rx="5" transform="rotate(-38.8298 92 383.759)" fill="white" fill-opacity="0.01" shape-rendering="crispEdges"/>
</g>
<rect x="1105.81" y="27.3633" width="52" height="49" rx="12" transform="rotate(-10.6029 1105.81 27.3633)" fill="#FFAE00"/>
<g filter="url(#filter2_d_74_4795)">
<rect x="1105.81" y="27.3633" width="48" height="48" rx="12" transform="rotate(-10.6029 1105.81 27.3633)" fill="white" fill-opacity="0.01" shape-rendering="crispEdges"/>
</g>
<g clip-path="url(#clip0_74_4795)">
<path d="M1123.39 59.487C1123.49 59.9003 1123.64 60.2985 1123.84 60.6714C1124.17 61.2938 1124.43 61.3606 1125.06 61.2459L1125.65 61.1375C1127.5 60.7998 1129.41 60.45 1131.29 60.0965C1131.47 60.058 1131.65 60.0091 1131.83 59.9497C1132.02 59.8857 1132.21 59.8356 1132.4 59.7997C1132.71 59.7506 1133.02 59.7173 1133.33 59.6853C1133.7 59.6462 1134.08 59.6058 1134.46 59.5356C1134.48 59.5311 1134.5 59.5267 1134.53 59.5222C1139.21 58.594 1142.99 57.829 1146.42 57.1143C1147.63 56.8644 1148.41 56.1888 1148.81 55.0487C1149.7 52.5474 1150.24 49.8098 1150.56 46.1719C1150.6 45.5842 1150.6 44.9942 1150.57 44.4049C1150.56 44.1408 1150.56 43.8677 1150.55 43.6003C1150.55 43.5931 1150.55 43.5857 1150.55 43.5785L1150.4 42.7542C1150.4 42.7409 1150.39 42.7281 1150.38 42.7165C1150.3 42.5697 1150.22 42.4131 1150.15 42.2615C1149.99 41.9077 1149.79 41.5755 1149.55 41.2729C1148.8 40.4049 1147.74 40.0216 1146.48 40.1644C1145.29 40.299 1144.1 40.4999 1142.94 40.6938C1142.65 40.743 1142.35 40.7919 1142.06 40.8404C1141.47 40.9374 1140.87 41.0526 1140.29 41.1638C1140.07 41.2067 1139.85 41.2493 1139.63 41.2917C1139.82 40.2226 1139.84 39.0674 1139.71 37.5553C1139.63 36.6655 1139.47 35.5086 1138.93 34.4522C1138.54 33.7054 1138.12 33.5111 1137.32 33.707C1136.77 33.8257 1136.29 34.15 1135.97 34.6163C1135.9 34.7252 1135.82 34.8337 1135.75 34.9418C1135.35 35.4901 1134.99 36.0684 1134.67 36.6721C1134.28 37.4658 1133.94 38.2965 1133.6 39.1001C1133.45 39.4515 1133.31 39.803 1133.16 40.1525C1132.45 41.7909 1131.49 43.0678 1130.21 44.0553C1130.11 44.1374 1130 44.1985 1129.88 44.2349C1129.76 44.2713 1129.63 44.2823 1129.5 44.2673C1128.42 44.1874 1127.53 44.2847 1126.71 44.5733C1126.08 44.7958 1125.42 44.9834 1124.79 45.1645C1124.54 45.2343 1124.3 45.3045 1124.05 45.3766C1123.79 45.4532 1123.53 45.527 1123.27 45.6007C1122.85 45.7195 1122.41 45.8424 1121.99 45.9764C1121.21 46.2211 1120.95 46.5903 1120.95 47.4398L1120.95 47.5164C1120.94 47.6571 1120.95 47.798 1120.97 47.9376C1121.02 48.242 1121.07 48.5466 1121.12 48.8513C1121.25 49.6576 1121.39 50.4912 1121.56 51.304C1122.18 54.2019 1122.83 57.0668 1123.39 59.487ZM1128.81 45.4635C1129.19 47.6207 1129.74 49.7533 1130.27 51.8164C1130.81 53.8735 1131.36 55.9994 1131.73 58.1297L1125.22 59.3488L1125.21 59.3356C1125.19 59.2517 1125.16 59.165 1125.14 59.0792C1124.77 57.4815 1124.4 55.8837 1124.04 54.2862C1123.69 52.7733 1123.34 51.2604 1122.99 49.7475C1122.96 49.6039 1122.92 49.4602 1122.89 49.3162C1122.79 48.8436 1122.68 48.3547 1122.54 47.8795C1122.45 47.5464 1122.52 47.3931 1122.82 47.2936C1123.19 47.1737 1123.55 47.0524 1123.91 46.9298C1124.6 46.6977 1125.31 46.4579 1126.02 46.2375C1126.68 46.0326 1127.35 45.8458 1128 45.6652C1128.23 45.6016 1128.46 45.5376 1128.69 45.4732C1128.73 45.4651 1128.77 45.4619 1128.81 45.4635L1128.81 45.4635ZM1138.36 37.6387C1138.48 38.6829 1138.43 39.8251 1138.2 41.2333C1138.12 41.686 1138.09 42.1785 1138.35 42.714C1138.36 42.7365 1138.38 42.755 1138.4 42.767C1138.42 42.779 1138.44 42.7839 1138.47 42.7809C1138.56 42.7698 1138.65 42.7595 1138.74 42.7491C1138.94 42.7265 1139.15 42.7031 1139.36 42.6693C1139.95 42.5711 1140.53 42.4695 1141.12 42.3674C1142.42 42.1423 1143.76 41.9092 1145.08 41.7256C1145.8 41.6335 1146.52 41.6516 1147.24 41.7793C1148.11 41.9306 1148.62 42.4988 1148.76 43.4678C1148.98 44.9614 1148.91 46.5709 1148.55 48.5328C1148.31 49.8311 1148.02 51.2114 1147.62 53.0088C1147.52 53.3991 1147.4 53.7816 1147.25 54.1541C1147.21 54.2735 1147.16 54.3929 1147.12 54.5127C1146.91 55.1136 1146.47 55.5125 1145.83 55.698C1144.95 55.9496 1143.94 56.2348 1142.91 56.4357C1140.63 56.8816 1138.31 57.3127 1136.07 57.7293C1135.36 57.8607 1134.66 57.9923 1133.95 58.1241C1133.83 58.1476 1133.69 58.1601 1133.58 58.1705L1133.53 58.1749L1130.1 45.2964C1130.25 45.1889 1130.4 45.0851 1130.55 44.9823C1130.92 44.7253 1131.27 44.4827 1131.61 44.2068C1132.97 43.0991 1133.99 41.5548 1134.83 39.3467C1135.29 38.1541 1135.88 36.7689 1136.77 35.5367C1136.94 35.2945 1137.16 35.0874 1137.4 34.9257C1137.58 34.815 1137.66 34.8112 1137.7 34.8275C1137.75 34.8494 1137.8 34.9397 1137.83 35.0886C1138.06 35.9262 1138.24 36.7782 1138.36 37.6387Z" fill="white"/>
<path d="M1126.09 46.4387C1126.08 46.4398 1126.08 46.4414 1126.07 46.4434C1124.76 46.9032 1124.08 47.8401 1124.26 48.9506C1124.44 50.0466 1125.47 50.7677 1126.61 50.5924C1126.63 50.589 1126.66 50.5854 1126.68 50.5813C1127.21 50.4827 1127.68 50.1791 1128 49.7325C1128.14 49.5297 1128.25 49.2984 1128.3 49.0524C1128.36 48.8063 1128.37 48.5503 1128.33 48.2996C1128.21 47.6959 1127.87 47.1612 1127.37 46.8086C1126.95 46.4995 1126.5 46.3681 1126.09 46.4387ZM1126.6 48.7604C1126.48 48.9702 1126.27 49.0292 1125.97 48.9359C1125.71 48.8556 1125.6 48.6916 1125.63 48.4481C1125.66 48.3209 1125.69 48.1968 1125.75 48.0782C1125.76 48.0301 1125.78 47.9788 1125.8 47.923C1125.86 47.9467 1125.92 47.9684 1125.97 47.9893C1126.12 48.0411 1126.27 48.112 1126.41 48.2004C1126.54 48.2977 1126.75 48.5003 1126.6 48.7604Z" fill="white"/>
</g>
<rect x="1178.67" y="16.1631" width="55" height="53" rx="12" transform="rotate(11.2005 1178.67 16.1631)" fill="#5500FF"/>
<g filter="url(#filter3_d_74_4795)">
<rect x="1178.67" y="16.1631" width="48" height="48" rx="12" transform="rotate(11.2005 1178.67 16.1631)" fill="white" fill-opacity="0.01" shape-rendering="crispEdges"/>
</g>
<g clip-path="url(#clip1_74_4795)">
<path d="M1218.77 44.4537C1217.98 48.8294 1216.08 52.7068 1213.26 56.1453C1211.41 58.4046 1209.33 60.4238 1206.85 62.0006C1204.57 63.466 1202.13 64.641 1199.56 65.4979C1199.12 65.6315 1198.68 65.7329 1198.23 65.8014C1197.99 65.8531 1197.74 65.8326 1197.52 65.7431C1197.29 65.6534 1197.1 65.4986 1196.96 65.2989C1196.8 65.0918 1196.59 64.9252 1196.35 64.8119C1192.31 62.8866 1189.45 59.8069 1187.54 55.8396C1185.52 51.6751 1184.55 47.2549 1184.42 42.6631C1184.37 40.5673 1184.42 38.4596 1184.89 36.3963C1185.18 35.0437 1185.66 33.7371 1186.31 32.5119C1186.44 32.2546 1186.62 32.0188 1186.82 31.8121C1187.05 31.5935 1187.36 31.5129 1187.63 31.7169C1188.74 32.5374 1190.07 32.8218 1191.36 33.1404C1194.05 33.803 1196.75 33.67 1199.4 32.9371C1201.11 32.4642 1202.61 31.6191 1203.7 30.1723C1203.78 30.0635 1203.87 29.9603 1203.96 29.8636C1204.44 29.383 1205.17 29.4788 1205.41 30.1066C1206.28 32.448 1208 34.0976 1209.92 35.586C1211.81 37.0439 1213.98 37.7282 1216.32 37.9513C1216.86 38.0021 1217.39 38.0654 1217.92 38.1409C1218.65 38.2453 1218.91 38.4871 1219.09 39.25C1219.31 40.2663 1219.34 41.3141 1219.19 42.3411C1219.08 43.0501 1218.91 43.7497 1218.77 44.4537ZM1204.53 32.299C1204.39 32.3943 1204.28 32.4601 1204.18 32.5436C1203.16 33.4135 1201.97 34.0643 1200.68 34.4553C1196.46 35.7449 1192.32 35.449 1188.28 33.6674C1188.1 33.5857 1187.91 33.5158 1187.68 33.4239C1187.12 34.7999 1186.79 36.2536 1186.68 37.7332C1186.56 39.2685 1186.54 40.8104 1186.61 42.3493C1186.78 46.6888 1187.84 50.9513 1189.73 54.8757C1191.51 58.5503 1194.2 61.3534 1197.97 63.0787C1198.22 63.1937 1198.43 63.282 1198.73 63.1735C1201.24 62.2352 1203.67 61.1249 1205.88 59.5884C1208.96 57.4374 1211.44 54.6999 1213.44 51.5498C1215.5 48.3111 1216.66 44.7413 1217.17 40.9561C1217.19 40.6541 1217.19 40.3511 1217.18 40.0488C1214.43 40.186 1212.01 39.384 1209.82 37.9316C1207.63 36.4793 1205.77 34.6883 1204.53 32.299L1204.53 32.299Z" fill="white"/>
<path d="M1198.46 52.4046C1199 51.9827 1199.44 51.6386 1199.88 51.2972C1202.27 49.45 1204.78 47.7626 1207.4 46.2462C1207.67 46.0806 1207.97 45.9487 1208.27 45.8535C1208.51 45.7854 1208.76 45.7951 1208.98 45.8811C1209.21 45.967 1209.4 46.1245 1209.53 46.3291C1209.75 46.7033 1209.69 47.1894 1209.34 47.5797C1209.14 47.7949 1208.91 47.9853 1208.67 48.1469C1207.6 48.8612 1206.51 49.5363 1205.46 50.2719C1203.66 51.5284 1201.89 52.8141 1200.12 54.0983C1198.69 55.128 1198.18 55.1134 1196.93 53.8695C1195.89 52.8287 1194.87 51.7674 1193.88 50.6851C1193.48 50.2173 1193.1 49.7279 1192.76 49.2193C1192.66 49.0896 1192.59 48.9473 1192.54 48.7965C1192.38 48.365 1192.49 47.9529 1192.81 47.7183C1192.96 47.6015 1193.14 47.5375 1193.33 47.5357C1193.52 47.5339 1193.71 47.5946 1193.86 47.7084C1194.16 47.9352 1194.43 48.1917 1194.68 48.4736C1195.92 49.7627 1197.16 51.055 1198.46 52.4046Z" fill="white"/>
</g>
<path d="M1208.87 13.1116C1209.3 9.08193 1209.73 5.06809 1210.42 1.06922C1210.6 -0.00125 1208.92 -0.465733 1208.73 0.616391C1207.99 4.74594 1207.43 8.91712 1207.32 13.1116C1207.29 14.1005 1208.77 14.058 1208.87 13.1116Z" fill="#BABABA"/>
<path d="M1226.43 17.0397C1227.69 14.9795 1229.04 12.8327 1229.71 10.5095C1229.89 9.85354 1228.96 9.48895 1228.59 10.0533C1227.3 12.0527 1226.36 14.2611 1225.14 16.3047C1224.65 17.1163 1225.94 17.8454 1226.43 17.0397Z" fill="#BABABA"/>
<path d="M1237.27 32.3768C1240.83 31.3746 1244.39 30.2516 1247.64 28.4853C1248.38 28.0791 1247.88 26.8363 1247.04 27.1185C1243.61 28.2747 1240.27 29.6373 1236.79 30.6587C1235.66 30.9892 1236.13 32.6972 1237.27 32.3768Z" fill="#BABABA"/>
<path d="M1237.19 54.1732C1240.72 54.3006 1243.79 55.4268 1247.19 56.1335C1247.9 56.2809 1248.24 55.4243 1247.67 55.0281C1244.74 52.9979 1240.7 52.5692 1237.19 52.5609C1236.12 52.5584 1236.12 54.1349 1237.19 54.1732Z" fill="#BABABA"/>
<path d="M1171.17 28.4362C1169.25 27.1892 1167.33 25.9448 1165.44 24.6546C1163.6 23.3976 1161.82 21.7262 1159.77 20.8238C1159.18 20.5625 1158.69 21.1893 1159.09 21.682C1160.45 23.3352 1162.56 24.5039 1164.35 25.6817C1166.38 27.0177 1168.45 28.2564 1170.6 29.3909C1171.25 29.7322 1171.78 28.8299 1171.17 28.4362Z" fill="#BABABA"/>
<path d="M1188.33 14.3494C1186.76 10.214 1185.21 6.03283 1183.31 2.02315C1182.93 1.20073 1181.47 1.78591 1181.8 2.64495C1183.36 6.78699 1185.3 10.8083 1187.18 14.8205C1187.48 15.4448 1188.58 15.0003 1188.33 14.3494Z" fill="#BABABA"/>
<rect x="40" y="145.363" width="52" height="49" rx="12" transform="rotate(-10.6029 40 145.363)" fill="#FF0000"/>
<g filter="url(#filter4_d_74_4795)">
<rect x="40" y="145.363" width="48" height="48" rx="12" transform="rotate(-10.6029 40 145.363)" fill="white" fill-opacity="0.01" shape-rendering="crispEdges"/>
</g>
<g clip-path="url(#clip2_74_4795)">
<path d="M57.5738 177.487C57.6745 177.9 57.8278 178.298 58.0297 178.671C58.3569 179.294 58.621 179.361 59.2493 179.246L59.8421 179.137C61.6891 178.8 63.5992 178.45 65.4751 178.096C65.6589 178.058 65.8403 178.009 66.0186 177.95C66.2053 177.886 66.3963 177.836 66.5903 177.8C66.8954 177.751 67.2102 177.717 67.5146 177.685C67.8862 177.646 68.2695 177.606 68.6443 177.536C68.6683 177.531 68.6923 177.527 68.7162 177.522C73.3938 176.594 77.1742 175.829 80.6133 175.114C81.8148 174.864 82.5952 174.189 82.9992 173.049C83.8852 170.547 84.4243 167.81 84.7467 164.172C84.7867 163.584 84.7916 162.994 84.7614 162.405C84.753 162.141 84.7444 161.868 84.7425 161.6C84.7424 161.593 84.7417 161.586 84.7403 161.578L84.586 160.754C84.5835 160.741 84.579 160.728 84.5723 160.716C84.4897 160.57 84.4118 160.413 84.3362 160.261C84.1776 159.908 83.9764 159.576 83.7373 159.273C82.9875 158.405 81.9259 158.022 80.6674 158.164C79.4812 158.299 78.2842 158.5 77.127 158.694C76.8337 158.743 76.5404 158.792 76.2471 158.84C75.6574 158.937 75.0605 159.053 74.4834 159.164C74.2611 159.207 74.0387 159.249 73.8163 159.292C74.0037 158.223 74.0287 157.067 73.8976 155.555C73.8205 154.666 73.6622 153.509 73.118 152.452C72.7332 151.705 72.3112 151.511 71.5059 151.707C70.961 151.826 70.4809 152.15 70.1597 152.616C70.0856 152.725 70.0109 152.834 69.9357 152.942C69.5367 153.49 69.1781 154.068 68.8626 154.672C68.4731 155.466 68.126 156.297 67.7903 157.1C67.6435 157.452 67.4967 157.803 67.346 158.152C66.6392 159.791 65.6766 161.068 64.4016 162.055C64.3033 162.137 64.19 162.199 64.0681 162.235C63.9462 162.271 63.8183 162.282 63.6916 162.267C62.6089 162.187 61.7226 162.285 60.9025 162.573C60.2702 162.796 59.6123 162.983 58.9762 163.165C58.7307 163.234 58.4855 163.305 58.2409 163.377C57.9804 163.453 57.719 163.527 57.4577 163.601C57.0364 163.72 56.6007 163.842 56.1752 163.976C55.3981 164.221 55.1362 164.59 55.1372 165.44L55.1369 165.516C55.1324 165.657 55.1399 165.798 55.1594 165.938C55.2109 166.242 55.2601 166.547 55.3095 166.851C55.4399 167.658 55.5746 168.491 55.7488 169.304C56.3706 172.202 57.0204 175.067 57.5738 177.487ZM62.9967 163.464C63.3753 165.621 63.9272 167.753 64.4614 169.816C64.994 171.873 65.5439 173.999 65.9155 176.13L59.4035 177.349L59.3997 177.336C59.3746 177.252 59.3487 177.165 59.3286 177.079C58.9605 175.481 58.5922 173.884 58.2241 172.286C57.8755 170.773 57.5271 169.26 57.1787 167.747C57.1456 167.604 57.1129 167.46 57.0807 167.316C56.9739 166.844 56.8636 166.355 56.7303 165.88C56.6368 165.546 56.7105 165.393 57.0122 165.294C57.3755 165.174 57.7382 165.052 58.1003 164.93C58.7896 164.698 59.5023 164.458 60.2075 164.238C60.8635 164.033 61.538 163.846 62.1904 163.665C62.4206 163.602 62.6508 163.538 62.8808 163.473C62.9189 163.465 62.9579 163.462 62.9969 163.463L62.9967 163.464ZM72.5488 155.639C72.6716 156.683 72.6204 157.825 72.3875 159.233C72.3127 159.686 72.2789 160.178 72.5366 160.714C72.5474 160.737 72.5648 160.755 72.5861 160.767C72.6076 160.779 72.632 160.784 72.6561 160.781C72.7462 160.77 72.8379 160.76 72.93 160.749C73.1318 160.726 73.3404 160.703 73.5469 160.669C74.1349 160.571 74.7223 160.47 75.3102 160.367C76.6074 160.142 77.9486 159.909 79.2734 159.726C79.988 159.634 80.7131 159.652 81.425 159.779C82.2962 159.931 82.8091 160.499 82.9494 161.468C83.1654 162.961 83.098 164.571 82.7373 166.533C82.4985 167.831 82.2126 169.211 81.81 171.009C81.7126 171.399 81.5896 171.782 81.4416 172.154C81.3973 172.274 81.353 172.393 81.3102 172.513C81.0961 173.114 80.6607 173.512 80.0164 173.698C79.1428 173.95 78.1244 174.235 77.0991 174.436C74.8224 174.882 72.5029 175.313 70.2596 175.729C69.5527 175.861 68.8459 175.992 68.139 176.124C68.0139 176.148 67.8832 176.16 67.7676 176.17L67.7198 176.175L64.2839 163.296C64.436 163.189 64.587 163.085 64.7361 162.982C65.1097 162.725 65.4624 162.483 65.8003 162.207C67.1553 161.099 68.1789 159.555 69.0218 157.347C69.4772 156.154 70.0641 154.769 70.9626 153.537C71.1318 153.295 71.3436 153.087 71.5873 152.926C71.7646 152.815 71.8473 152.811 71.8854 152.827C71.937 152.849 71.9842 152.94 72.0219 153.089C72.2524 153.926 72.4285 154.778 72.5488 155.639Z" fill="white"/>
<path d="M60.2758 164.439C60.2697 164.44 60.2637 164.441 60.2578 164.443C58.9446 164.903 58.2677 165.84 58.4467 166.951C58.6237 168.047 59.6568 168.768 60.7987 168.592C60.8211 168.589 60.8427 168.585 60.8644 168.581C61.3946 168.483 61.8661 168.179 62.1827 167.733C62.3284 167.53 62.433 167.298 62.4903 167.052C62.5476 166.806 62.5564 166.55 62.5163 166.3C62.3972 165.696 62.0549 165.161 61.5621 164.809C61.1412 164.499 60.6842 164.368 60.2758 164.439ZM60.7889 166.76C60.6699 166.97 60.4569 167.029 60.1559 166.936C59.897 166.856 59.784 166.692 59.8196 166.448C59.8445 166.321 59.8824 166.197 59.9328 166.078C59.9507 166.03 59.9699 165.979 59.99 165.923C60.0478 165.947 60.1035 165.968 60.157 165.989C60.3112 166.041 60.4588 166.112 60.5968 166.2C60.7321 166.298 60.9369 166.5 60.7889 166.76Z" fill="white"/>
</g>
<rect x="112.859" y="134.163" width="55" height="53" rx="12" transform="rotate(11.2005 112.859 134.163)" fill="#5EFF00"/>
<g filter="url(#filter5_d_74_4795)">
<rect x="112.859" y="134.163" width="48" height="48" rx="12" transform="rotate(11.2005 112.859 134.163)" fill="white" fill-opacity="0.01" shape-rendering="crispEdges"/>
</g>
<g clip-path="url(#clip3_74_4795)">
<path d="M152.963 162.454C152.167 166.829 150.27 170.707 147.451 174.145C145.599 176.405 143.516 178.424 141.034 180.001C138.763 181.466 136.314 182.641 133.745 183.498C133.311 183.632 132.867 183.733 132.418 183.801C132.181 183.853 131.933 183.833 131.708 183.743C131.482 183.653 131.289 183.499 131.152 183.299C130.99 183.092 130.782 182.925 130.543 182.812C126.497 180.887 123.641 177.807 121.724 173.84C119.712 169.675 118.734 165.255 118.612 160.663C118.557 158.567 118.607 156.46 119.08 154.396C119.373 153.044 119.848 151.737 120.494 150.512C120.631 150.255 120.805 150.019 121.01 149.812C121.234 149.594 121.544 149.513 121.821 149.717C122.932 150.537 124.256 150.822 125.55 151.14C128.241 151.803 130.936 151.67 133.586 150.937C135.294 150.464 136.802 149.619 137.893 148.172C137.97 148.064 138.055 147.96 138.146 147.864C138.632 147.383 139.361 147.479 139.596 148.107C140.473 150.448 142.184 152.098 144.111 153.586C145.999 155.044 148.166 155.728 150.511 155.951C151.045 156.002 151.577 156.065 152.108 156.141C152.841 156.245 153.102 156.487 153.274 157.25C153.498 158.266 153.532 159.314 153.374 160.341C153.27 161.05 153.102 161.75 152.963 162.454ZM138.714 150.299C138.577 150.394 138.464 150.46 138.366 150.544C137.347 151.413 136.156 152.064 134.869 152.455C130.65 153.745 126.51 153.449 122.469 151.667C122.284 151.586 122.094 151.516 121.866 151.424C121.311 152.8 120.975 154.254 120.87 155.733C120.747 157.269 120.724 158.81 120.8 160.349C120.97 164.689 122.032 168.951 123.922 172.876C125.703 176.55 128.387 179.353 132.156 181.079C132.408 181.194 132.623 181.282 132.914 181.174C135.431 180.235 137.861 179.125 140.066 177.588C143.153 175.437 145.626 172.7 147.628 169.55C149.686 166.311 150.845 162.741 151.359 158.956C151.38 158.654 151.383 158.351 151.366 158.049C148.618 158.186 146.199 157.384 144.011 155.932C141.822 154.479 139.959 152.688 138.714 150.299L138.714 150.299Z" fill="white"/>
<path d="M132.645 170.405C133.189 169.983 133.629 169.639 134.072 169.297C136.462 167.45 138.973 165.763 141.589 164.246C141.863 164.081 142.157 163.949 142.463 163.853C142.696 163.785 142.945 163.795 143.171 163.881C143.398 163.967 143.59 164.124 143.718 164.329C143.937 164.703 143.879 165.189 143.526 165.58C143.327 165.795 143.103 165.985 142.858 166.147C141.792 166.861 140.698 167.536 139.648 168.272C137.853 169.528 136.079 170.814 134.305 172.098C132.883 173.128 132.365 173.113 131.121 171.869C130.081 170.829 129.062 169.767 128.064 168.685C127.665 168.217 127.292 167.728 126.948 167.219C126.853 167.09 126.778 166.947 126.724 166.797C126.57 166.365 126.676 165.953 126.996 165.718C127.145 165.602 127.33 165.537 127.521 165.536C127.712 165.534 127.899 165.595 128.052 165.708C128.348 165.935 128.621 166.192 128.864 166.474C130.108 167.763 131.347 169.055 132.645 170.405Z" fill="white"/>
</g>
<path d="M143.058 131.112C143.486 127.082 143.92 123.068 144.608 119.069C144.792 117.999 143.111 117.534 142.916 118.616C142.177 122.746 141.616 126.917 141.504 131.112C141.479 132.1 142.957 132.058 143.058 131.112Z" fill="#BABABA"/>
<path d="M160.622 135.04C161.881 132.979 163.229 130.833 163.892 128.509C164.08 127.854 163.143 127.489 162.779 128.053C161.491 130.053 160.55 132.261 159.327 134.305C158.84 135.116 160.129 135.845 160.622 135.04Z" fill="#BABABA"/>
<path d="M171.461 150.377C175.021 149.375 178.58 148.252 181.823 146.485C182.568 146.079 182.069 144.836 181.23 145.118C177.796 146.275 174.458 147.637 170.973 148.659C169.846 148.989 170.322 150.697 171.461 150.377Z" fill="#BABABA"/>
<path d="M171.375 172.173C174.909 172.301 177.982 173.427 181.379 174.134C182.088 174.281 182.432 173.424 181.859 173.028C178.927 170.998 174.889 170.569 171.375 170.561C170.304 170.558 170.31 172.135 171.375 172.173Z" fill="#BABABA"/>
<path d="M105.361 146.436C103.441 145.189 101.516 143.945 99.6268 142.655C97.7861 141.398 96.0088 139.726 93.9599 138.824C93.366 138.562 92.8741 139.189 93.2786 139.682C94.6343 141.335 96.7518 142.504 98.5385 143.682C100.565 145.018 102.633 146.256 104.786 147.391C105.435 147.732 105.967 146.83 105.361 146.436Z" fill="#BABABA"/>
<path d="M122.522 132.349C120.944 128.214 119.399 124.033 117.502 120.023C117.113 119.201 115.66 119.786 115.984 120.645C117.548 124.787 119.49 128.808 121.371 132.821C121.664 133.445 122.77 133 122.522 132.349Z" fill="#BABABA"/>
<rect x="1208" y="213.331" width="56.1456" height="58.7662" rx="12" transform="rotate(-10.6029 1208 213.331)" fill="#D000FF"/>
<path fill-rule="evenodd" clip-rule="evenodd" d="M1246.04 234.9C1245.99 234.064 1245.76 233.248 1245.37 232.51C1244.97 231.772 1244.42 231.129 1243.75 230.626C1243.71 230.587 1243.66 230.557 1243.61 230.539C1243.55 230.521 1243.5 230.514 1243.44 230.52C1243.38 230.526 1243.33 230.544 1243.28 230.573C1243.23 230.602 1243.19 230.641 1243.16 230.688C1243.13 230.735 1243.11 230.788 1243.1 230.843C1243.09 230.899 1243.09 230.956 1243.11 231.01C1243.13 231.064 1243.15 231.114 1243.19 231.156C1243.23 231.199 1243.27 231.232 1243.32 231.255C1243.88 231.709 1244.33 232.28 1244.64 232.928C1244.96 233.575 1245.12 234.284 1245.13 235.003C1245.21 235.699 1245.14 236.404 1244.92 237.069C1244.7 237.734 1244.33 238.343 1243.85 238.853C1242.74 239.601 1241.43 240.007 1240.09 240.02C1238.71 240.025 1237.37 239.604 1236.24 238.814C1235.48 238.314 1234.91 237.576 1234.62 236.717C1234.33 235.857 1234.33 234.924 1234.62 234.066C1234.85 233.276 1235.23 232.542 1235.75 231.91C1236.76 231.019 1237.87 230.244 1239.05 229.6C1239.7 229.395 1240.38 229.344 1241.05 229.451C1241.72 229.558 1242.35 229.82 1242.9 230.216C1242.97 230.266 1243.06 230.286 1243.15 230.272C1243.23 230.257 1243.31 230.21 1243.36 230.139C1243.39 230.105 1243.41 230.065 1243.42 230.023C1243.43 229.981 1243.44 229.937 1243.43 229.894C1243.42 229.851 1243.41 229.809 1243.39 229.772C1243.36 229.734 1243.33 229.702 1243.3 229.677C1240.55 227.534 1237 228.817 1234.94 231.268C1232.89 233.719 1232.38 237.415 1235.51 239.841C1236.85 240.77 1238.45 241.263 1240.08 241.252C1241.74 241.311 1243.36 240.722 1244.59 239.61C1245.17 238.979 1245.59 238.23 1245.84 237.416C1246.1 236.602 1246.16 235.743 1246.04 234.9Z" fill="white"/>
<path fill-rule="evenodd" clip-rule="evenodd" d="M1238.88 232.616C1238.97 232.963 1239.09 233.302 1239.24 233.629L1238.77 233.527C1238.32 233.424 1237.86 233.36 1237.39 233.334L1235.69 233.334C1234.96 233.334 1235.02 234.143 1235.62 234.194C1236.23 234.245 1236.2 234.194 1236.91 234.335C1237.43 234.4 1237.95 234.525 1238.45 234.707C1238.77 234.728 1239.09 234.825 1239.37 234.99C1239.5 235.163 1239.6 235.353 1239.68 235.554C1239.86 235.991 1240 236.478 1240.14 236.838C1240.28 237.197 1240.53 237.787 1240.74 238.249L1241.18 239.122C1241.41 239.481 1242.46 239.366 1242.03 238.84C1241.59 238.314 1241.86 238.429 1241.67 237.864C1241.48 237.3 1241.37 236.953 1241.24 236.478C1241.12 236.004 1241.03 235.554 1240.86 235.08C1240.73 234.708 1240.53 234.364 1240.27 234.066C1240.27 233.565 1240.27 233.065 1240.18 232.551C1240.06 231.837 1239.84 231.145 1239.51 230.498C1239.13 230.036 1238.6 230.293 1238.61 230.703C1238.63 231.114 1238.79 232.269 1238.88 232.616Z" fill="white"/>
<path fill-rule="evenodd" clip-rule="evenodd" d="M1233.37 242.998C1233.1 242.945 1232.84 242.91 1232.57 242.895L1230.71 242.895C1230.62 242.884 1230.53 242.907 1230.46 242.959C1230.39 243.012 1230.34 243.09 1230.32 243.177C1230.31 243.264 1230.33 243.353 1230.38 243.425C1230.43 243.498 1230.51 243.547 1230.59 243.562C1231.26 243.768 1231.88 244.012 1232.63 244.166C1233.03 244.255 1233.46 244.307 1233.85 244.371C1234.46 244.446 1235.05 244.571 1235.64 244.743C1235.73 244.782 1235.84 244.782 1235.93 244.743C1236.02 244.705 1236.1 244.631 1236.14 244.538C1236.16 244.493 1236.17 244.445 1236.17 244.396C1236.17 244.347 1236.17 244.298 1236.15 244.252C1236.13 244.207 1236.1 244.165 1236.07 244.13C1236.03 244.095 1235.99 244.068 1235.95 244.05C1235.38 243.715 1234.79 243.448 1234.16 243.254C1233.9 243.147 1233.64 243.062 1233.37 242.998Z" fill="white"/>
<path fill-rule="evenodd" clip-rule="evenodd" d="M1239.05 244.243L1241.04 244.243L1242.19 244.345C1242.79 244.345 1243.36 244.486 1243.95 244.499C1244.04 244.495 1244.13 244.517 1244.21 244.563C1244.29 244.608 1244.35 244.675 1244.39 244.756C1244.39 244.91 1244.29 245.038 1244.08 245.051C1243.49 245.135 1242.89 245.187 1242.3 245.205L1241.53 245.205C1241.26 245.195 1241 245.165 1240.74 245.115C1240.15 245.024 1239.57 244.9 1238.99 244.743C1238.79 244.743 1238.68 244.589 1238.69 244.461C1238.7 244.332 1238.87 244.217 1239.05 244.243Z" fill="white"/>
<path fill-rule="evenodd" clip-rule="evenodd" d="M1246.52 230.023C1246.25 229.993 1245.99 229.941 1245.74 229.869C1245.84 229.613 1245.99 229.317 1246.13 228.997C1246.87 227.367 1247.33 225.609 1246.13 224.3C1246.11 224.267 1246.07 224.239 1246.04 224.219C1246 224.199 1245.96 224.187 1245.92 224.183C1245.83 224.174 1245.75 224.2 1245.68 224.255C1245.61 224.309 1245.57 224.388 1245.56 224.473C1245.55 224.559 1245.58 224.644 1245.63 224.71C1246.92 226.417 1244.85 228.316 1244.44 229.844C1244.03 231.371 1247.97 231.384 1249.38 230.934L1251.5 230.344C1252.04 230.1 1251.72 229.471 1251.4 229.536C1248.78 230.177 1248.7 230.344 1246.52 230.023Z" fill="white"/>
<path fill-rule="evenodd" clip-rule="evenodd" d="M1247.55 223.414C1245.92 223.08 1246.66 223.273 1235.74 221.913C1235.65 221.914 1235.56 221.948 1235.5 222.008C1235.43 222.068 1235.39 222.15 1235.38 222.239C1235.37 222.328 1235.39 222.418 1235.44 222.493C1235.49 222.567 1235.56 222.621 1235.65 222.644C1245.81 224.004 1246.13 224.017 1247.42 224.3C1248.7 224.582 1251.43 228.06 1252.09 229.343C1252.24 229.571 1252.31 229.841 1252.29 230.113C1251.95 231.935 1250.52 237.223 1250.1 238.429C1249.68 239.635 1249.29 240.508 1248.95 241.573C1248.8 241.984 1247.66 246.989 1246.2 247.477C1244.18 248.157 1242.13 247.284 1240.12 247.207C1238.83 247.207 1236.27 247.027 1234.62 246.771C1228.21 245.731 1228.49 245.872 1226.85 244.82C1228.69 242.857 1230.4 237.941 1231.33 235.131C1232.13 231.956 1232.76 228.739 1233.2 225.493C1233.3 224.928 1234.21 222.015 1233.3 222.31C1232.92 222.426 1232.97 223.003 1232.93 223.247C1232.67 224.851 1231.56 231.076 1231.33 232.102C1230.34 235.946 1228.85 239.641 1226.88 243.088C1226.65 243.423 1226.39 243.744 1226.11 244.05C1225.91 244.254 1225.74 244.488 1225.6 244.743C1225.56 244.925 1225.58 245.115 1225.65 245.287C1225.72 245.459 1225.84 245.605 1226 245.706C1226.69 246.233 1227.47 246.645 1228.3 246.925C1232.15 247.802 1236.08 248.343 1240.03 248.542C1242.07 248.619 1244.22 249.543 1246.56 248.747C1248.69 248.016 1249.82 242.78 1250.05 242.048C1250.38 240.983 1250.81 239.956 1251.15 238.904C1251.5 237.852 1252.92 232.487 1253.28 230.395C1253.63 228.535 1249.19 223.761 1247.55 223.414Z" fill="white"/>
<path fill-rule="evenodd" clip-rule="evenodd" d="M1255.31 231.371C1254.95 233.193 1253.04 240.444 1252.62 241.637C1252.19 242.831 1251.81 243.729 1251.46 244.794C1251.32 245.205 1250.18 250.197 1248.71 250.685C1246.7 251.365 1244.65 250.492 1242.63 250.415C1241.35 250.415 1238.78 250.236 1237.14 249.979C1231.02 248.991 1230.99 249.248 1229.58 248.349C1228.75 247.887 1228.42 248.709 1228.92 249.145C1229.49 249.582 1230.15 249.885 1230.85 250.03C1234.7 250.914 1238.63 251.459 1242.58 251.66C1244.62 251.737 1246.79 252.648 1249.11 251.866C1251.43 251.083 1252.37 245.898 1252.55 245.154C1252.88 244.101 1253.31 243.075 1253.65 242.022C1254 240.97 1256.02 233.719 1256.4 231.666C1256.57 230.626 1255.57 230.318 1255.31 231.371Z" fill="white"/>
<g filter="url(#filter6_d_74_4795)">
<rect x="1208" y="213.331" width="48" height="48" rx="5" transform="rotate(-10.6029 1208 213.331)" fill="white" fill-opacity="0.01" shape-rendering="crispEdges"/>
</g>
<path d="M1237.73 197.548C1244.73 197.501 1251.57 197.771 1258.4 199.46C1265.31 201.172 1271.26 204.27 1277.56 207.447C1278.5 207.921 1279.5 206.512 1278.6 205.863C1267.65 197.916 1250.98 193.816 1237.66 196.307C1236.89 196.452 1236.92 197.554 1237.73 197.548Z" fill="#BABABA"/>
<path d="M1272.38 198.851C1274.04 200.889 1275.53 203.068 1276.76 205.391C1276.92 205.679 1277.07 205.972 1277.21 206.27C1277.61 206.945 1277.58 206.997 1277.13 206.423C1276.58 206.723 1275.87 206.862 1275.28 207.071C1274.08 207.5 1272.86 207.803 1271.87 208.617C1271.24 209.127 1271.53 210.106 1272.37 210.106C1274.21 210.108 1276.11 209.135 1277.81 208.487C1278.78 208.118 1279.79 207.725 1279.61 206.512C1279.41 205.115 1278.04 203.478 1277.26 202.343C1276.15 200.721 1274.88 199.255 1273.5 197.858C1272.91 197.258 1271.84 198.186 1272.38 198.851Z" fill="#BABABA"/>
<path d="M1245.3 189.988C1242.7 192.206 1239.97 194.203 1237.12 196.07C1236.43 196.524 1236.59 197.477 1237.25 197.859C1240.09 199.513 1242.9 201.812 1245.92 203.078C1246.88 203.479 1247.62 202.316 1246.9 201.592C1244.57 199.244 1241.02 197.59 1238.15 195.997C1238.19 196.593 1238.23 197.19 1238.27 197.785C1241.16 195.817 1243.8 193.549 1246.24 191.055C1246.8 190.487 1245.92 189.455 1245.3 189.988Z" fill="#BABABA"/>
<rect x="51" y="571.331" width="56.1456" height="58.7662" rx="12" transform="rotate(-10.6029 51 571.331)" fill="#00AEFF"/>
<path fill-rule="evenodd" clip-rule="evenodd" d="M89.0451 592.9C88.9951 592.064 88.7637 591.248 88.367 590.51C87.9704 589.772 87.4179 589.129 86.7479 588.626C86.7074 588.587 86.6589 588.557 86.6057 588.539C86.5525 588.521 86.496 588.514 86.44 588.52C86.3841 588.526 86.3301 588.544 86.2819 588.573C86.2337 588.602 86.1924 588.641 86.161 588.688C86.1296 588.735 86.1087 588.788 86.1 588.843C86.0913 588.899 86.0948 588.956 86.1104 589.01C86.1259 589.064 86.1532 589.114 86.1902 589.156C86.2271 589.199 86.273 589.232 86.3244 589.255C86.8817 589.709 87.3326 590.28 87.6453 590.928C87.9579 591.575 88.1247 592.284 88.1339 593.003C88.2133 593.699 88.1396 594.404 87.9179 595.069C87.6962 595.734 87.332 596.343 86.8506 596.853C85.7384 597.601 84.431 598.007 83.0904 598.02C81.7133 598.025 80.3685 597.604 79.2404 596.814C78.4824 596.314 77.9122 595.576 77.6194 594.717C77.3267 593.857 77.3281 592.924 77.6234 592.066C77.846 591.276 78.2306 590.542 78.7527 589.91C79.7627 589.019 80.8689 588.244 82.0509 587.6C82.6962 587.395 83.3805 587.344 84.049 587.451C84.7175 587.558 85.3517 587.82 85.9009 588.216C85.9726 588.266 86.0612 588.286 86.1477 588.272C86.2341 588.257 86.3114 588.21 86.3629 588.139C86.3902 588.105 86.4103 588.065 86.4219 588.023C86.4335 587.981 86.4364 587.937 86.4304 587.894C86.4244 587.851 86.4096 587.809 86.3869 587.772C86.3643 587.734 86.3343 587.702 86.2987 587.677C83.5524 585.534 79.9975 586.817 77.9442 589.268C75.8909 591.719 75.3775 595.415 78.5089 597.841C79.8503 598.77 81.4457 599.263 83.0775 599.252C84.7393 599.311 86.3588 598.722 87.5949 597.61C88.1676 596.979 88.5944 596.23 88.845 595.416C89.0956 594.602 89.1639 593.743 89.0451 592.9Z" fill="white"/>
<path fill-rule="evenodd" clip-rule="evenodd" d="M81.8834 590.616C81.974 590.963 82.0942 591.302 82.2427 591.629L81.7679 591.527C81.3164 591.424 80.857 591.36 80.3947 591.334L78.6879 591.334C77.9564 591.334 78.0205 592.143 78.6237 592.194C79.2269 592.245 79.2012 592.194 79.907 592.335C80.4329 592.4 80.9496 592.525 81.447 592.707C81.7728 592.728 82.0893 592.825 82.371 592.99C82.4988 593.163 82.6025 593.353 82.679 593.554C82.8587 593.991 82.9999 594.478 83.141 594.838C83.2822 595.197 83.526 595.787 83.7442 596.249L84.1805 597.122C84.4115 597.481 85.4639 597.366 85.0275 596.84C84.5912 596.314 84.8607 596.429 84.6682 595.864C84.4757 595.3 84.373 594.953 84.2447 594.478C84.1164 594.004 84.0265 593.554 83.8597 593.08C83.7283 592.708 83.528 592.364 83.2694 592.066C83.2694 591.565 83.2694 591.065 83.1795 590.551C83.0623 589.837 82.8373 589.145 82.5122 588.498C82.1272 588.036 81.601 588.293 81.6139 588.703C81.6267 589.114 81.7935 590.269 81.8834 590.616Z" fill="white"/>
<path fill-rule="evenodd" clip-rule="evenodd" d="M76.3657 600.998C76.1033 600.945 75.8374 600.91 75.57 600.895L73.7092 600.895C73.621 600.884 73.5319 600.907 73.4603 600.959C73.3886 601.012 73.3399 601.09 73.3242 601.177C73.3092 601.264 73.3292 601.353 73.3797 601.425C73.4301 601.497 73.5071 601.547 73.5937 601.562C74.261 601.768 74.877 602.012 75.6342 602.166C76.032 602.255 76.4555 602.307 76.8534 602.371C77.4571 602.446 78.0536 602.571 78.6372 602.743C78.7309 602.781 78.8359 602.782 78.9296 602.743C79.0233 602.705 79.098 602.631 79.1377 602.538C79.1587 602.493 79.1704 602.445 79.172 602.396C79.1736 602.347 79.1651 602.298 79.1471 602.252C79.129 602.206 79.1018 602.165 79.0671 602.13C79.0324 602.095 78.9909 602.068 78.9452 602.05C78.384 601.715 77.7852 601.448 77.1614 601.254C76.9036 601.147 76.6375 601.061 76.3657 600.998Z" fill="white"/>
<path fill-rule="evenodd" clip-rule="evenodd" d="M82.0507 602.243L84.0399 602.243L85.1949 602.345C85.7852 602.345 86.3627 602.486 86.9531 602.499C87.0429 602.495 87.132 602.517 87.2095 602.563C87.287 602.608 87.3496 602.675 87.3894 602.756C87.3894 602.91 87.2868 603.038 87.0814 603.051C86.4901 603.135 85.8946 603.187 85.2976 603.205L84.5276 603.205C84.2647 603.195 84.0031 603.165 83.7447 603.115C83.1522 603.024 82.5652 602.9 81.9866 602.743C81.7941 602.743 81.6786 602.589 81.6914 602.461C81.7042 602.332 81.8711 602.217 82.0507 602.243Z" fill="white"/>
<path fill-rule="evenodd" clip-rule="evenodd" d="M89.52 588.023C89.2553 587.993 88.9935 587.941 88.7371 587.869C88.8398 587.613 88.9938 587.317 89.135 586.997C89.8665 585.367 90.3285 583.609 89.135 582.3C89.108 582.267 89.0748 582.239 89.0374 582.219C88.9999 582.199 88.9588 582.187 88.9165 582.183C88.8311 582.174 88.7458 582.2 88.6794 582.255C88.613 582.309 88.571 582.388 88.5626 582.473C88.5542 582.559 88.58 582.644 88.6345 582.71C89.9178 584.417 87.8516 586.316 87.441 587.844C87.0303 589.371 90.9702 589.384 92.3818 588.934L94.4993 588.344C95.0383 588.1 94.7175 587.471 94.3967 587.536C91.7787 588.177 91.7017 588.344 89.52 588.023Z" fill="white"/>
<path fill-rule="evenodd" clip-rule="evenodd" d="M90.5464 581.414C88.9166 581.08 89.6609 581.273 78.7397 579.912C78.65 579.914 78.564 579.948 78.4974 580.008C78.4308 580.068 78.3881 580.15 78.3771 580.239C78.3662 580.328 78.3878 580.418 78.4379 580.493C78.488 580.567 78.5633 580.621 78.6499 580.644C88.8139 582.004 89.1347 582.017 90.4181 582.299C91.7014 582.582 94.4349 586.06 95.0894 587.343C95.2378 587.571 95.3098 587.841 95.2948 588.113C94.9482 589.935 93.5237 595.223 93.1002 596.429C92.6767 597.635 92.2917 598.508 91.9452 599.573C91.8041 599.984 90.6619 604.989 89.1989 605.477C87.1841 606.157 85.1307 605.284 83.1159 605.207C81.8325 605.207 79.2659 605.027 77.6232 604.771C71.2065 603.731 71.4888 603.872 69.8462 602.82C71.6942 600.857 73.401 595.941 74.325 593.131C75.1318 589.956 75.7574 586.739 76.1987 583.493C76.3014 582.928 77.2125 580.015 76.3014 580.31C75.9164 580.426 75.9677 581.003 75.9292 581.247C75.6725 582.851 74.556 589.076 74.325 590.102C73.3425 593.946 71.849 597.641 69.8847 601.088C69.6462 601.423 69.3891 601.744 69.1147 602.05C68.9098 602.254 68.7368 602.488 68.6013 602.743C68.5613 602.925 68.578 603.115 68.6492 603.287C68.7203 603.459 68.8424 603.605 68.9992 603.706C69.6943 604.233 70.47 604.645 71.2963 604.925C75.1522 605.802 79.0768 606.343 83.026 606.542C85.0665 606.619 87.2226 607.543 89.5582 606.747C91.6886 606.016 92.8179 600.78 93.0489 600.048C93.3826 598.983 93.8061 597.956 94.1526 596.904C94.4991 595.852 95.9236 590.487 96.2829 588.395C96.6294 586.534 92.1891 581.76 90.5464 581.414Z" fill="white"/>
<path fill-rule="evenodd" clip-rule="evenodd" d="M98.3102 589.371C97.9509 591.193 96.0387 598.444 95.6152 599.637C95.1917 600.831 94.8067 601.729 94.4602 602.794C94.3191 603.205 93.1769 608.197 91.7139 608.685C89.6991 609.365 87.6457 608.492 85.6309 608.415C84.3475 608.415 81.7809 608.236 80.1382 607.979C74.0167 606.991 73.991 607.248 72.5793 606.349C71.7452 605.887 71.4243 606.709 71.9248 607.145C72.4911 607.582 73.1494 607.885 73.8498 608.03C77.7048 608.914 81.6296 609.459 85.5795 609.66C87.62 609.737 89.7889 610.648 92.1117 609.866C94.4346 609.083 95.3714 603.898 95.5511 603.154C95.8847 602.101 96.3082 601.075 96.6547 600.022C97.0012 598.97 99.0161 591.719 99.4011 589.666C99.5679 588.626 98.5669 588.318 98.3102 589.371Z" fill="white"/>
<g filter="url(#filter7_d_74_4795)">
<rect x="51" y="571.331" width="48" height="48" rx="5" transform="rotate(-10.6029 51 571.331)" fill="white" fill-opacity="0.01" shape-rendering="crispEdges"/>
</g>
<path d="M80.735 555.548C87.7341 555.501 94.567 555.771 101.396 557.46C108.314 559.172 114.264 562.27 120.564 565.447C121.505 565.921 122.498 564.512 121.604 563.863C110.654 555.916 93.9842 551.816 80.6592 554.307C79.8874 554.452 79.9157 555.554 80.735 555.548Z" fill="#BABABA"/>
<path d="M115.379 556.851C117.035 558.889 118.531 561.068 119.76 563.391C119.919 563.679 120.069 563.972 120.21 564.27C120.606 564.945 120.577 564.997 120.126 564.423C119.576 564.723 118.871 564.862 118.284 565.071C117.083 565.499 115.861 565.803 114.866 566.617C114.242 567.127 114.528 568.106 115.37 568.106C117.207 568.108 119.111 567.135 120.813 566.487C121.779 566.118 122.786 565.725 122.611 564.512C122.41 563.115 121.043 561.478 120.264 560.343C119.153 558.721 117.881 557.255 116.501 555.858C115.909 555.258 114.84 556.186 115.379 556.851Z" fill="#BABABA"/>
<path d="M88.2966 547.988C85.7044 550.206 82.9741 552.203 80.1211 554.07C79.4267 554.524 79.5888 555.477 80.2451 555.858C83.0934 557.513 85.8995 559.812 88.9224 561.078C89.8783 561.479 90.6154 560.315 89.8991 559.592C87.5719 557.244 84.015 555.59 81.1474 553.997C81.1891 554.593 81.2305 555.19 81.2722 555.785C84.159 553.817 86.8007 551.549 89.2442 549.055C89.8033 548.487 88.9193 547.455 88.2966 547.988Z" fill="#BABABA"/>
<defs>
<filter id="filter0_d_74_4795" x="1173.74" y="434.692" width="139.429" height="139.429" filterUnits="userSpaceOnUse" color-interpolation-filters="sRGB">
<feFlood flood-opacity="0" result="BackgroundImageFix"/>
<feColorMatrix in="SourceAlpha" type="matrix" values="0 0 0 0 0 0 0 0 0 0 0 0 0 0 0 0 0 0 127 0" result="hardAlpha"/>
<feMorphology radius="12" operator="erode" in="SourceAlpha" result="effect1_dropShadow_74_4795"/>
<feOffset dy="25"/>
<feGaussianBlur stdDeviation="25"/>
<feComposite in2="hardAlpha" operator="out"/>
<feColorMatrix type="matrix" values="0 0 0 0 0 0 0 0 0 0 0 0 0 0 0 0 0 0 0.25 0"/>
<feBlend mode="normal" in2="BackgroundImageFix" result="effect1_dropShadow_74_4795"/>
<feBlend mode="normal" in="SourceGraphic" in2="effect1_dropShadow_74_4795" result="shape"/>
</filter>
<filter id="filter1_d_74_4795" x="56.0293" y="342.692" width="139.43" height="139.429" filterUnits="userSpaceOnUse" color-interpolation-filters="sRGB">
<feFlood flood-opacity="0" result="BackgroundImageFix"/>
<feColorMatrix in="SourceAlpha" type="matrix" values="0 0 0 0 0 0 0 0 0 0 0 0 0 0 0 0 0 0 127 0" result="hardAlpha"/>
<feMorphology radius="12" operator="erode" in="SourceAlpha" result="effect1_dropShadow_74_4795"/>
<feOffset dy="25"/>
<feGaussianBlur stdDeviation="25"/>
<feComposite in2="hardAlpha" operator="out"/>
<feColorMatrix type="matrix" values="0 0 0 0 0 0 0 0 0 0 0 0 0 0 0 0 0 0 0.25 0"/>
<feBlend mode="normal" in2="BackgroundImageFix" result="effect1_dropShadow_74_4795"/>
<feBlend mode="normal" in="SourceGraphic" in2="effect1_dropShadow_74_4795" result="shape"/>
</filter>
<filter id="filter2_d_74_4795" x="1069.81" y="7.53223" width="128.011" height="128.011" filterUnits="userSpaceOnUse" color-interpolation-filters="sRGB">
<feFlood flood-opacity="0" result="BackgroundImageFix"/>
<feColorMatrix in="SourceAlpha" type="matrix" values="0 0 0 0 0 0 0 0 0 0 0 0 0 0 0 0 0 0 127 0" result="hardAlpha"/>
<feMorphology radius="12" operator="erode" in="SourceAlpha" result="effect1_dropShadow_74_4795"/>
<feOffset dy="25"/>
<feGaussianBlur stdDeviation="25"/>
<feComposite in2="hardAlpha" operator="out"/>
<feColorMatrix type="matrix" values="0 0 0 0 0 0 0 0 0 0 0 0 0 0 0 0 0 0 0.25 0"/>
<feBlend mode="normal" in2="BackgroundImageFix" result="effect1_dropShadow_74_4795"/>
<feBlend mode="normal" in="SourceGraphic" in2="effect1_dropShadow_74_4795" result="shape"/>
</filter>
<filter id="filter3_d_74_4795" x="1133.45" y="5.26318" width="128.209" height="128.209" filterUnits="userSpaceOnUse" color-interpolation-filters="sRGB">
<feFlood flood-opacity="0" result="BackgroundImageFix"/>
<feColorMatrix in="SourceAlpha" type="matrix" values="0 0 0 0 0 0 0 0 0 0 0 0 0 0 0 0 0 0 127 0" result="hardAlpha"/>
<feMorphology radius="12" operator="erode" in="SourceAlpha" result="effect1_dropShadow_74_4795"/>
<feOffset dy="25"/>
<feGaussianBlur stdDeviation="25"/>
<feComposite in2="hardAlpha" operator="out"/>
<feColorMatrix type="matrix" values="0 0 0 0 0 0 0 0 0 0 0 0 0 0 0 0 0 0 0.25 0"/>
<feBlend mode="normal" in2="BackgroundImageFix" result="effect1_dropShadow_74_4795"/>
<feBlend mode="normal" in="SourceGraphic" in2="effect1_dropShadow_74_4795" result="shape"/>
</filter>
<filter id="filter4_d_74_4795" x="4.00098" y="125.532" width="128.011" height="128.011" filterUnits="userSpaceOnUse" color-interpolation-filters="sRGB">
<feFlood flood-opacity="0" result="BackgroundImageFix"/>
<feColorMatrix in="SourceAlpha" type="matrix" values="0 0 0 0 0 0 0 0 0 0 0 0 0 0 0 0 0 0 127 0" result="hardAlpha"/>
<feMorphology radius="12" operator="erode" in="SourceAlpha" result="effect1_dropShadow_74_4795"/>
<feOffset dy="25"/>
<feGaussianBlur stdDeviation="25"/>
<feComposite in2="hardAlpha" operator="out"/>
<feColorMatrix type="matrix" values="0 0 0 0 0 0 0 0 0 0 0 0 0 0 0 0 0 0 0.25 0"/>
<feBlend mode="normal" in2="BackgroundImageFix" result="effect1_dropShadow_74_4795"/>
<feBlend mode="normal" in="SourceGraphic" in2="effect1_dropShadow_74_4795" result="shape"/>
</filter>
<filter id="filter5_d_74_4795" x="67.6357" y="123.263" width="128.21" height="128.209" filterUnits="userSpaceOnUse" color-interpolation-filters="sRGB">
<feFlood flood-opacity="0" result="BackgroundImageFix"/>
<feColorMatrix in="SourceAlpha" type="matrix" values="0 0 0 0 0 0 0 0 0 0 0 0 0 0 0 0 0 0 127 0" result="hardAlpha"/>
<feMorphology radius="12" operator="erode" in="SourceAlpha" result="effect1_dropShadow_74_4795"/>
<feOffset dy="25"/>
<feGaussianBlur stdDeviation="25"/>
<feComposite in2="hardAlpha" operator="out"/>
<feColorMatrix type="matrix" values="0 0 0 0 0 0 0 0 0 0 0 0 0 0 0 0 0 0 0.25 0"/>
<feBlend mode="normal" in2="BackgroundImageFix" result="effect1_dropShadow_74_4795"/>
<feBlend mode="normal" in="SourceGraphic" in2="effect1_dropShadow_74_4795" result="shape"/>
</filter>
<filter id="filter6_d_74_4795" x="1170.83" y="192.333" width="130.345" height="130.345" filterUnits="userSpaceOnUse" color-interpolation-filters="sRGB">
<feFlood flood-opacity="0" result="BackgroundImageFix"/>
<feColorMatrix in="SourceAlpha" type="matrix" values="0 0 0 0 0 0 0 0 0 0 0 0 0 0 0 0 0 0 127 0" result="hardAlpha"/>
<feMorphology radius="12" operator="erode" in="SourceAlpha" result="effect1_dropShadow_74_4795"/>
<feOffset dy="25"/>
<feGaussianBlur stdDeviation="25"/>
<feComposite in2="hardAlpha" operator="out"/>
<feColorMatrix type="matrix" values="0 0 0 0 0 0 0 0 0 0 0 0 0 0 0 0 0 0 0.25 0"/>
<feBlend mode="normal" in2="BackgroundImageFix" result="effect1_dropShadow_74_4795"/>
<feBlend mode="normal" in="SourceGraphic" in2="effect1_dropShadow_74_4795" result="shape"/>
</filter>
<filter id="filter7_d_74_4795" x="13.834" y="550.333" width="130.345" height="130.345" filterUnits="userSpaceOnUse" color-interpolation-filters="sRGB">
<feFlood flood-opacity="0" result="BackgroundImageFix"/>
<feColorMatrix in="SourceAlpha" type="matrix" values="0 0 0 0 0 0 0 0 0 0 0 0 0 0 0 0 0 0 127 0" result="hardAlpha"/>
<feMorphology radius="12" operator="erode" in="SourceAlpha" result="effect1_dropShadow_74_4795"/>
<feOffset dy="25"/>
<feGaussianBlur stdDeviation="25"/>
<feComposite in2="hardAlpha" operator="out"/>
<feColorMatrix type="matrix" values="0 0 0 0 0 0 0 0 0 0 0 0 0 0 0 0 0 0 0.25 0"/>
<feBlend mode="normal" in2="BackgroundImageFix" result="effect1_dropShadow_74_4795"/>
<feBlend mode="normal" in="SourceGraphic" in2="effect1_dropShadow_74_4795" result="shape"/>
</filter>
<clipPath id="clip0_74_4795">
<rect width="30" height="25" fill="white" transform="translate(1118.83 37.1344) rotate(-10.6029)"/>
</clipPath>
<clipPath id="clip1_74_4795">
<rect width="35" height="37" fill="white" transform="translate(1186.93 25.9531) rotate(11.2005)"/>
</clipPath>
<clipPath id="clip2_74_4795">
<rect width="30" height="25" fill="white" transform="translate(53.0205 155.134) rotate(-10.6029)"/>
</clipPath>
<clipPath id="clip3_74_4795">
<rect width="35" height="37" fill="white" transform="translate(121.115 143.953) rotate(11.2005)"/>
</clipPath>
</defs>
</svg>
