<svg width="339" height="540" viewBox="0 0 339 540" xmlns="http://www.w3.org/2000/svg">
  <defs>
    <filter id="brush">
      <feTurbulence type="fractalNoise" baseFrequency="0.012" numOctaves="3" result="noise"/>
      <feDisplacementMap in="SourceGraphic" in2="noise" scale="6"/>
    </filter>
  </defs>

  <path d="M339 415.895L186.884 437.895C163.152 441.326 145.715 461.146 145.715 484.332C145.715 512.998 171.984 535.139 201.348 530.728L339 510.049V518.139L202.536 538.64C168.571 543.742 137.715 518.125 137.715 484.332C137.715 457.018 158.224 433.955 185.738 429.977L339 407.812V415.895ZM339 8H76.2295C38.4506 8.00009 8.00019 37.8273 8 74.4072C8 104.822 29.2541 131.436 59.6992 138.837L339 206.723V214.956L57.8096 146.61C23.9042 138.369 0 108.64 0 74.4072C0.000194439 33.2176 34.2262 9.25175e-05 76.2295 0H339V8Z"
        fill="#2537B1"
        filter="url(#brush)"/>
</svg>