<svg width="389" height="645" viewBox="0 0 389 645" xmlns="http://www.w3.org/2000/svg">
  <defs>
    <filter id="brush">
      <feTurbulence type="fractalNoise" baseFrequency="0.013" numOctaves="3" result="noise"/>
      <feDisplacementMap in="SourceGraphic" in2="noise" scale="7"/>
    </filter>
  </defs>

  <path d="M344.316 92.2578C369.732 99.0684 387.404 122.1 387.404 148.412C387.404 180.518 361.377 206.546 329.27 206.546H137.326C119.15 206.546 104.415 221.28 104.414 239.456L104.405 384.725C104.5 384.759 104.595 384.793 104.689 384.828L338.47 471.504C368.271 482.554 388.136 510.879 388.375 542.663C388.662 581.014 360.507 613.652 322.527 618.993L147.775 643.565C120.636 647.382 96.3934 626.309 96.3945 598.903L96.4053 390.544C53.7424 378.62 10.3986 410.647 10.3984 455.999V527.07C10.3984 535.274 6.28072 542.516 0 546.845V535.498C1.5198 533.051 2.39844 530.163 2.39844 527.07V455.999C2.39859 406.06 49.4161 370.572 96.4062 382.268L96.4141 239.455C96.4156 216.861 114.732 198.546 137.326 198.546H329.27C356.958 198.546 379.404 176.1 379.404 148.412C379.404 125.721 364.164 105.859 342.246 99.9854L0 8.28125V0L344.316 92.2578ZM104.395 598.904C104.394 621.448 124.336 638.783 146.661 635.644L321.413 611.07C355.421 606.287 380.632 577.063 380.375 542.723C380.161 514.263 362.373 488.899 335.688 479.005L104.405 393.255L104.395 598.904Z"
        fill="#2537B1"
        filter="url(#brush)"/>
</svg>