<svg width="202" height="677" viewBox="0 0 202 677" fill="none" xmlns="http://www.w3.org/2000/svg">
<path d="M140.83 364.414C143.583 365.831 146.292 367.345 148.904 369.006C151.275 370.514 153.506 372.593 156.158 373.568C156.825 373.813 157.158 372.985 156.817 372.519C155.077 370.135 152.048 368.622 149.552 367.144C146.942 365.599 144.253 364.234 141.486 362.994C140.676 362.63 140.036 364.006 140.83 364.414Z" fill="#BABABA"/>
<path d="M149.271 364.874C151.533 365.985 153.697 367.257 155.734 368.746C157.755 370.224 159.519 372.033 161.635 373.376C162.219 373.747 163.063 373.046 162.661 372.417C159.968 368.194 154.671 365.372 150.253 363.314C149.197 362.821 148.197 364.347 149.271 364.874Z" fill="#BABABA"/>
<rect x="97.999" y="398.759" width="56.1456" height="58.7662" rx="12" transform="rotate(-38.8298 97.999 398.759)" fill="#FF6F00"/>
<path fill-rule="evenodd" clip-rule="evenodd" d="M153.31 392.527C152.886 392.165 152.34 391.964 151.766 391.959C151.193 391.954 150.627 392.145 150.168 392.499C149.649 392.994 149.318 393.646 149.233 394.338C149.198 394.624 149.213 394.912 149.277 395.19L149.04 395.317C148.885 395.374 148.74 395.452 148.607 395.549C148.453 395.607 148.308 395.685 148.175 395.781C148.105 395.819 148.063 395.841 148.043 395.938C147.781 395.684 147.54 395.402 147.264 395.155C146.303 394.325 145.193 393.672 143.983 393.229C142.817 392.841 141.595 392.614 140.351 392.554C140.409 392.388 140.456 392.22 140.493 392.049C140.541 391.892 140.563 391.73 140.559 391.568C140.518 391.448 140.458 391.335 140.38 391.235C140.328 391.104 140.261 390.979 140.18 390.862C140.404 390.768 140.619 390.653 140.821 390.518C141.229 390.119 141.49 389.602 141.564 389.051C141.637 388.501 141.518 387.95 141.225 387.488C141.015 387.043 140.661 386.681 140.216 386.454C139.771 386.227 139.258 386.147 138.751 386.226C138.675 386.237 138.602 386.261 138.534 386.299C138.467 386.337 138.408 386.387 138.36 386.446C138.311 386.505 138.275 386.573 138.253 386.645C138.231 386.717 138.224 386.792 138.232 386.865C138.239 386.939 138.262 387.01 138.298 387.074C138.334 387.138 138.383 387.194 138.442 387.239C138.501 387.284 138.569 387.316 138.642 387.335C138.715 387.354 138.792 387.358 138.868 387.347C139.043 387.361 139.21 387.422 139.349 387.522C139.488 387.623 139.596 387.759 139.659 387.917C139.866 388.304 140.005 388.83 139.656 389.051C139.498 389.169 139.317 389.254 139.125 389.301C138.934 389.348 138.736 389.355 138.544 389.322C138.264 389.303 138.001 389.198 137.791 389.023C137.633 388.856 137.544 388.636 137.542 388.403C137.539 388.171 137.623 387.943 137.778 387.761C137.868 387.662 137.917 387.534 137.914 387.405C137.912 387.275 137.858 387.154 137.764 387.065C137.667 386.977 137.538 386.931 137.403 386.936C137.268 386.941 137.138 386.997 137.042 387.093C136.77 387.304 136.549 387.572 136.396 387.875C136.243 388.178 136.161 388.509 136.158 388.841C136.154 389.174 136.229 389.501 136.376 389.795C136.523 390.09 136.739 390.345 137.007 390.542C137.456 390.915 138.02 391.134 138.619 391.169C138.572 391.265 138.536 391.365 138.51 391.467C138.487 391.592 138.488 391.72 138.514 391.843C138.516 391.976 138.544 392.106 138.595 392.228L138.723 392.468C137.128 392.544 135.546 392.877 134.042 393.454C131.194 394.547 128.821 396.615 127.383 399.258C127.236 399.025 127.07 398.805 126.885 398.599C126.736 398.48 126.581 398.369 126.419 398.266C126.257 398.18 126.09 398.104 125.919 398.038C125.741 397.972 125.558 397.921 125.37 397.886L125.468 397.834C125.585 397.285 125.507 396.722 125.247 396.237C124.986 395.752 124.56 395.376 124.038 395.171C123.609 394.926 123.107 394.821 122.602 394.871C122.097 394.921 121.615 395.122 121.222 395.447C121.104 395.547 121.031 395.687 121.016 395.836C121.002 395.985 121.049 396.131 121.146 396.243C121.193 396.3 121.252 396.346 121.319 396.379C121.387 396.412 121.461 396.431 121.537 396.435C121.613 396.439 121.69 396.428 121.762 396.403C121.835 396.377 121.902 396.337 121.96 396.286C122.12 396.211 122.295 396.177 122.469 396.185C122.644 396.193 122.811 396.245 122.956 396.335C123.365 396.527 123.775 396.89 123.597 397.26C123.529 397.443 123.423 397.61 123.286 397.752C123.148 397.894 122.982 398.007 122.799 398.083C122.55 398.207 122.273 398.26 122.001 398.237C121.766 398.195 121.56 398.068 121.423 397.881C121.286 397.694 121.228 397.46 121.261 397.227C121.285 397.096 121.255 396.963 121.178 396.856C121.101 396.75 120.982 396.68 120.849 396.66C120.784 396.651 120.717 396.654 120.652 396.67C120.588 396.686 120.526 396.714 120.472 396.753C120.418 396.792 120.371 396.84 120.335 396.896C120.3 396.951 120.275 397.013 120.264 397.077C120.147 397.396 120.107 397.734 120.147 398.064C120.186 398.395 120.304 398.709 120.49 398.983C120.677 399.256 120.928 399.481 121.223 399.64C121.519 399.8 121.851 399.889 122.193 399.9C122.874 399.981 123.571 399.819 124.159 399.445C124.27 399.385 124.368 399.333 124.437 399.193C124.572 399.353 124.719 399.504 124.876 399.643C125.005 399.744 125.139 399.838 125.279 399.925C125.426 400.028 125.59 400.108 125.765 400.161C126.103 400.289 126.426 400.355 126.764 400.448C126.476 401.186 126.283 401.952 126.191 402.728C126.131 403.602 126.149 404.476 126.245 405.341C126.249 405.405 126.266 405.467 126.295 405.524C126.324 405.582 126.364 405.632 126.414 405.673C126.463 405.714 126.521 405.745 126.584 405.764C126.647 405.783 126.713 405.789 126.779 405.783C126.845 405.777 126.91 405.758 126.97 405.727C127.03 405.697 127.083 405.655 127.127 405.606C127.171 405.556 127.205 405.498 127.227 405.436C127.249 405.374 127.258 405.309 127.254 405.245C127.065 402.994 127.7 400.719 129.049 398.821C130.397 396.924 132.372 395.526 134.624 394.874C137.456 393.85 140.534 393.857 143.278 394.894C148.326 396.866 150.887 403.176 148.067 407.966C144.454 414.056 136.31 416.592 131.345 412.465C129.837 411.056 128.771 409.255 128.263 407.259C128.225 407.116 128.131 406.995 128.001 406.921C127.871 406.847 127.715 406.826 127.565 406.862C127.49 406.881 127.42 406.915 127.358 406.96C127.296 407.006 127.243 407.063 127.202 407.128C127.162 407.192 127.135 407.264 127.122 407.338C127.11 407.412 127.113 407.487 127.13 407.558C127.273 407.825 127.297 408.103 127.377 408.386C127.069 408.411 126.763 408.455 126.46 408.519C126.309 408.582 126.164 408.66 126.027 408.751C125.877 408.815 125.732 408.893 125.595 408.983L125.497 409.035C125.268 408.744 124.957 408.525 124.6 408.402C123.937 408.236 123.227 408.292 122.582 408.559C121.943 408.842 121.424 409.34 121.124 409.959C120.944 410.25 120.834 410.574 120.803 410.907C120.772 411.24 120.82 411.573 120.944 411.878C121.068 412.184 121.265 412.455 121.518 412.67C121.771 412.884 122.075 413.036 122.404 413.114C122.465 413.142 122.531 413.157 122.599 413.158C122.667 413.16 122.735 413.148 122.799 413.123C122.863 413.098 122.922 413.061 122.971 413.014C123.021 412.967 123.061 412.911 123.089 412.85C123.124 412.723 123.11 412.59 123.049 412.476C122.988 412.363 122.885 412.277 122.76 412.237C122.549 412.138 122.388 411.962 122.309 411.747C122.23 411.532 122.239 411.292 122.334 411.076C122.484 410.819 122.721 410.619 123.002 410.512C123.163 410.394 123.349 410.314 123.545 410.278C123.74 410.241 123.94 410.249 124.129 410.302C124.529 410.344 124.604 410.887 124.539 411.334C124.473 411.78 124.371 412.058 124.029 412.191C123.954 412.21 123.884 412.245 123.823 412.291C123.761 412.338 123.709 412.395 123.671 412.461C123.632 412.527 123.607 412.599 123.597 412.673C123.588 412.747 123.594 412.822 123.615 412.893C123.654 413.036 123.75 413.155 123.882 413.226C124.014 413.296 124.172 413.312 124.32 413.269C124.81 413.128 125.247 412.84 125.569 412.449C125.891 412.057 126.082 411.581 126.114 411.088C126.115 410.917 126.101 410.746 126.074 410.578L126.389 410.529C126.545 410.463 126.694 410.383 126.835 410.289C126.986 410.225 127.131 410.148 127.268 410.057C127.456 409.934 127.635 409.797 127.804 409.65C128.366 411.084 129.256 412.364 130.408 413.397C131.886 414.602 133.663 415.417 135.58 415.767C135.58 415.767 135.511 415.941 135.491 416.037C135.448 416.211 135.429 416.389 135.433 416.566C135.432 416.75 135.441 416.934 135.46 417.117C135.553 417.29 135.555 417.529 135.592 417.732L135.243 417.817C134.629 418.119 134.133 418.616 133.84 419.222C133.661 419.514 133.552 419.839 133.521 420.173C133.491 420.508 133.54 420.841 133.664 421.148C133.789 421.455 133.986 421.726 134.24 421.942C134.494 422.157 134.798 422.311 135.128 422.39C135.251 422.441 135.392 422.442 135.52 422.393C135.648 422.343 135.753 422.247 135.812 422.125C135.866 422.003 135.87 421.866 135.825 421.744C135.779 421.622 135.687 421.524 135.567 421.468C135.351 421.372 135.185 421.197 135.101 420.98C135.018 420.763 135.025 420.52 135.121 420.301C135.257 420.065 135.453 419.865 135.69 419.721C135.854 419.608 136.039 419.531 136.234 419.495C136.429 419.459 136.628 419.464 136.817 419.511C137.224 419.567 137.3 420.109 137.234 420.556C137.233 420.727 137.186 420.897 137.096 421.048C137.006 421.198 136.878 421.324 136.724 421.413C136.649 421.433 136.579 421.467 136.518 421.513C136.456 421.56 136.404 421.618 136.366 421.684C136.327 421.749 136.302 421.821 136.293 421.896C136.283 421.97 136.289 422.045 136.31 422.115C136.349 422.258 136.445 422.378 136.577 422.448C136.709 422.519 136.867 422.534 137.015 422.492C137.504 422.346 137.94 422.056 138.261 421.662C138.582 421.268 138.771 420.791 138.802 420.297C138.922 419.749 138.846 419.184 138.585 418.699C138.324 418.213 137.896 417.837 137.373 417.634L137.289 417.679L137.452 417.146C137.506 416.964 137.532 416.776 137.53 416.589C137.547 416.402 137.543 416.214 137.518 416.03C138.656 416.105 139.806 415.982 140.915 415.664C141.712 415.422 142.483 415.095 143.212 414.688C143.291 414.671 143.364 414.632 143.422 414.576L144.496 413.999C146.357 412.857 147.97 411.36 149.234 409.604C149.27 409.687 149.313 409.767 149.362 409.843C149.43 409.949 149.516 410.042 149.618 410.118C149.708 410.204 149.813 410.276 149.928 410.328C150.041 410.371 150.153 410.379 150.259 410.408C149.951 410.924 149.822 411.518 149.89 412.098C149.9 412.427 149.987 412.746 150.145 413.031C150.302 413.316 150.525 413.56 150.797 413.744C151.069 413.929 151.383 414.049 151.715 414.095C152.048 414.142 152.389 414.114 152.715 414.013C152.85 413.984 152.97 413.907 153.051 413.796C153.132 413.685 153.168 413.55 153.15 413.419C153.127 413.29 153.053 413.177 152.943 413.105C152.834 413.032 152.698 413.005 152.564 413.03C152.327 413.061 152.089 413.005 151.898 412.872C151.708 412.74 151.577 412.541 151.533 412.314C151.498 412.046 151.552 411.771 151.687 411.529C151.765 411.351 151.881 411.19 152.025 411.056C152.17 410.922 152.341 410.818 152.527 410.751C152.904 410.549 153.28 410.982 153.473 411.376C153.568 411.515 153.622 411.678 153.631 411.847C153.64 412.017 153.604 412.188 153.525 412.343C153.423 412.459 153.369 412.608 153.376 412.758C153.383 412.908 153.449 413.047 153.561 413.146C153.618 413.194 153.685 413.229 153.757 413.25C153.829 413.272 153.905 413.279 153.982 413.272C154.058 413.264 154.132 413.242 154.201 413.207C154.269 413.172 154.33 413.124 154.381 413.067C154.723 412.686 154.937 412.215 154.994 411.719C155.05 411.224 154.946 410.73 154.697 410.307C154.474 409.807 154.079 409.404 153.577 409.164C153.076 408.924 152.498 408.863 151.941 408.991C151.719 409.076 151.508 409.189 151.314 409.327L151.113 408.955C151.035 408.847 150.937 408.754 150.823 408.682C150.724 408.597 150.609 408.53 150.485 408.486C150.343 408.419 150.195 408.367 150.041 408.33C151.146 406.289 151.535 403.974 151.146 401.751C151.028 401.093 150.845 400.45 150.6 399.831C150.337 399.169 150.023 398.529 149.662 397.916C149.526 397.663 149.321 397.447 149.143 397.217C149.271 397.166 149.392 397.1 149.506 397.022C149.647 396.963 149.783 396.89 149.91 396.805L150.112 396.611C150.299 396.826 150.531 396.999 150.795 397.118C151.058 397.238 151.346 397.301 151.641 397.305C151.935 397.308 152.23 397.251 152.505 397.138C152.78 397.025 153.031 396.858 153.24 396.647C153.294 396.608 153.341 396.558 153.376 396.501C153.411 396.445 153.435 396.382 153.445 396.317C153.456 396.252 153.453 396.187 153.437 396.124C153.421 396.062 153.392 396.003 153.352 395.952C153.274 395.85 153.158 395.782 153.027 395.763C152.897 395.743 152.761 395.774 152.65 395.849C152.447 395.983 152.203 396.04 151.966 396.009C151.73 395.977 151.517 395.859 151.372 395.678C151.223 395.459 151.152 395.197 151.168 394.93C151.152 394.738 151.181 394.545 151.25 394.362C151.32 394.179 151.429 394.012 151.571 393.873C151.834 393.56 152.369 393.753 152.722 394.009C152.87 394.097 152.99 394.222 153.07 394.371C153.151 394.521 153.188 394.69 153.18 394.861C153.134 395.005 153.147 395.158 153.216 395.288C153.286 395.417 153.406 395.513 153.551 395.554C153.699 395.593 153.86 395.573 153.998 395.499C154.136 395.425 154.241 395.302 154.291 395.157C154.447 394.663 154.436 394.139 154.259 393.665C154.082 393.19 153.749 392.791 153.31 392.527Z" fill="white"/>
<path fill-rule="evenodd" clip-rule="evenodd" d="M131.33 402.696C131.459 402.936 131.434 403.258 131.521 403.52C131.893 404.648 132.344 405.747 132.873 406.808L130.314 408.302C129.142 408.931 129.327 409.809 130.879 409.354L133.637 408.165C134.202 409.147 134.857 410.075 135.593 410.939C135.251 411.273 134.931 411.628 134.636 412.002C133.816 413.42 135.004 413.657 135.531 413.066C136.058 412.474 136.302 412.36 136.754 411.997C137.272 412.502 137.848 412.946 138.472 413.322C139.018 413.938 140.524 413.798 140.416 412.793C139.557 412.294 138.769 411.692 138.069 411L138.488 410.775C139.254 410.227 140.048 409.697 140.849 409.216C141.651 408.734 142.105 408.542 142.732 408.205C143.137 409.104 143.488 410.026 143.784 410.968C144.185 411.713 145.197 410.587 144.85 409.606C144.669 408.811 144.446 408.026 144.181 407.255C145.256 406.736 146.357 406.272 147.477 405.864C148.666 405.5 148.873 404.48 147.862 404.405C146.427 404.741 145.014 405.173 143.633 405.698C143.611 405.641 143.582 405.587 143.547 405.538C143.23 404.863 142.876 404.205 142.489 403.567C144.012 402.603 145.474 401.548 146.868 400.41C148.275 399.449 147.371 398.803 146.253 399.265C144.937 400.161 143.592 401.003 142.309 401.726L141.64 402.085C141.311 401.473 140.919 400.911 140.5 400.364C140.081 399.817 139.534 399.167 139.087 398.67C140.113 398.021 141.088 397.297 142.004 396.504C142.066 396.456 142.118 396.397 142.158 396.33C142.197 396.263 142.222 396.189 142.232 396.113C142.241 396.038 142.235 395.962 142.214 395.889C142.193 395.817 142.157 395.751 142.108 395.693C142.069 395.628 142.016 395.573 141.953 395.529C141.889 395.486 141.817 395.457 141.74 395.443C141.664 395.43 141.584 395.432 141.507 395.45C141.43 395.468 141.357 395.501 141.293 395.548C140.34 396.215 139.341 396.815 138.303 397.341L138.107 397.446C137.342 396.622 136.583 395.846 135.825 395.103C135.783 395.055 135.73 395.016 135.671 394.988C135.611 394.961 135.546 394.945 135.479 394.943C135.413 394.94 135.346 394.95 135.282 394.973C135.219 394.996 135.16 395.031 135.11 395.076C135.006 395.165 134.94 395.289 134.927 395.421C134.914 395.553 134.954 395.683 135.04 395.782C135.622 396.499 136.191 397.291 136.746 398.091L135.951 398.518L133.551 399.703L132.156 400.452L131.942 400.053C131.808 399.395 131.754 398.722 131.781 398.046C131.784 397.904 131.732 397.768 131.636 397.665C131.539 397.562 131.404 397.5 131.259 397.491C131.113 397.483 130.968 397.528 130.851 397.618C130.735 397.708 130.656 397.837 130.63 397.978C130.606 398.734 130.673 399.487 130.828 400.222C130.866 400.527 130.974 400.795 131.034 401.106L129.75 401.795L129.324 401.972C127.983 402.486 127.847 403.572 129.094 403.451L130.248 403.191C130.541 403.034 130.946 402.817 131.33 402.696ZM141.415 405.482L141.901 406.387L139.864 407.481C138.981 408.006 138.138 408.596 137.343 409.245L136.982 409.611C136.391 408.879 135.847 408.112 135.353 407.312L136.337 406.869C137.868 406.142 139.363 405.34 140.815 404.466C141.037 404.879 141.25 405.176 141.415 405.482ZM133.079 402.941C132.943 402.688 132.905 402.383 132.79 402.102L134.389 401.398L137.764 399.586C138.143 400.291 138.619 400.842 139.089 401.585L139.875 403.049L136.82 404.689L134.56 405.902C134.001 404.95 133.506 403.961 133.079 402.941Z" fill="white"/>
<g filter="url(#filter0_d_74_4891)">
<rect x="97.999" y="398.759" width="48" height="48" rx="5" transform="rotate(-38.8298 97.999 398.759)" fill="white" fill-opacity="0.01" shape-rendering="crispEdges"/>
</g>
<rect x="35.999" y="27.3633" width="52" height="49" rx="12" transform="rotate(-10.6029 35.999 27.3633)" fill="#FF0000"/>
<g filter="url(#filter1_d_74_4891)">
<rect x="35.999" y="27.3633" width="48" height="48" rx="12" transform="rotate(-10.6029 35.999 27.3633)" fill="white" fill-opacity="0.01" shape-rendering="crispEdges"/>
</g>
<g clip-path="url(#clip0_74_4891)">
<path d="M53.5729 59.487C53.6735 59.9003 53.8268 60.2985 54.0287 60.6714C54.3559 61.2938 54.6201 61.3606 55.2483 61.2459L55.8411 61.1375C57.6881 60.7998 59.5982 60.45 61.4741 60.0965C61.6579 60.058 61.8394 60.0091 62.0176 59.9497C62.2043 59.8857 62.3954 59.8356 62.5893 59.7997C62.8944 59.7506 63.2093 59.7173 63.5137 59.6853C63.8853 59.6462 64.2685 59.6058 64.6433 59.5356C64.6673 59.5311 64.6913 59.5267 64.7152 59.5222C69.3928 58.594 73.1732 57.829 76.6124 57.1143C77.8138 56.8644 78.5943 56.1888 78.9983 55.0487C79.8842 52.5474 80.4233 49.8098 80.7457 46.1719C80.7858 45.5842 80.7906 44.9942 80.7605 44.4049C80.752 44.1408 80.7434 43.8677 80.7415 43.6003C80.7414 43.5931 80.7407 43.5857 80.7393 43.5785L80.585 42.7542C80.5826 42.7409 80.578 42.7281 80.5713 42.7165C80.4888 42.5697 80.4109 42.4131 80.3352 42.2615C80.1766 41.9077 79.9755 41.5755 79.7364 41.2729C78.9865 40.4049 77.9249 40.0216 76.6664 40.1644C75.4802 40.299 74.2832 40.4999 73.126 40.6938C72.8327 40.743 72.5394 40.7919 72.2462 40.8404C71.6564 40.9374 71.0595 41.0526 70.4824 41.1638C70.2601 41.2067 70.0378 41.2493 69.8153 41.2917C70.0028 40.2226 70.0277 39.0674 69.8967 37.5553C69.8195 36.6655 69.6612 35.5086 69.117 34.4522C68.7322 33.7054 68.3102 33.5111 67.5049 33.707C66.96 33.8257 66.4799 34.15 66.1587 34.6163C66.0847 34.7252 66.0099 34.8337 65.9347 34.9418C65.5358 35.4901 65.1771 36.0684 64.8617 36.6721C64.4721 37.4658 64.125 38.2965 63.7893 39.1001C63.6425 39.4515 63.4957 39.803 63.345 40.1525C62.6382 41.7909 61.6756 43.0678 60.4006 44.0553C60.3023 44.1374 60.189 44.1985 60.0671 44.2349C59.9452 44.2713 59.8173 44.2823 59.6907 44.2673C58.6079 44.1874 57.7216 44.2847 56.9015 44.5733C56.2693 44.7958 55.6114 44.9834 54.9752 45.1645C54.7297 45.2343 54.4845 45.3045 54.2399 45.3766C53.9794 45.4532 53.718 45.527 53.4567 45.6007C53.0354 45.7195 52.5997 45.8424 52.1743 45.9764C51.3971 46.2211 51.1352 46.5903 51.1362 47.4398L51.136 47.5164C51.1314 47.6571 51.1389 47.798 51.1585 47.9376C51.2099 48.242 51.2591 48.5466 51.3085 48.8513C51.4389 49.6576 51.5736 50.4912 51.7479 51.304C52.3696 54.2019 53.0194 57.0668 53.5729 59.487ZM58.9957 45.4635C59.3743 47.6207 59.9263 49.7533 60.4605 51.8164C60.993 53.8735 61.5429 55.9994 61.9146 58.1297L55.4025 59.3488L55.3987 59.3356C55.3736 59.2517 55.3478 59.165 55.3277 59.0792C54.9595 57.4815 54.5913 55.8837 54.2231 54.2862C53.8745 52.7733 53.5261 51.2604 53.1777 49.7475C53.1446 49.6039 53.1119 49.4602 53.0797 49.3162C52.9729 48.8436 52.8626 48.3547 52.7293 47.8795C52.6359 47.5464 52.7095 47.3931 53.0112 47.2936C53.3745 47.1737 53.7372 47.0524 54.0994 46.9298C54.7887 46.6977 55.5014 46.4579 56.2065 46.2375C56.8626 46.0326 57.5371 45.8458 58.1895 45.6652C58.4197 45.6016 58.6498 45.5376 58.8798 45.4732C58.918 45.4651 58.9569 45.4619 58.9959 45.4635L58.9957 45.4635ZM68.5478 37.6387C68.6706 38.6829 68.6194 39.8251 68.3865 41.2333C68.3117 41.686 68.2779 42.1785 68.5356 42.714C68.5464 42.7365 68.5638 42.755 68.5852 42.767C68.6066 42.779 68.631 42.7839 68.6551 42.7809C68.7452 42.7698 68.8369 42.7595 68.9291 42.7491C69.1309 42.7265 69.3394 42.7031 69.546 42.6693C70.134 42.5711 70.7213 42.4695 71.3092 42.3674C72.6064 42.1423 73.9476 41.9092 75.2724 41.7256C75.987 41.6335 76.7121 41.6516 77.424 41.7793C78.2952 41.9306 78.8081 42.4988 78.9484 43.4678C79.1644 44.9614 79.097 46.5709 78.7363 48.5328C78.4976 49.8311 78.2116 51.2114 77.809 53.0088C77.7116 53.3991 77.5886 53.7816 77.4406 54.1541C77.3963 54.2735 77.352 54.3929 77.3092 54.5127C77.0951 55.1136 76.6597 55.5125 76.0154 55.698C75.1418 55.9496 74.1234 56.2348 73.0982 56.4357C70.8214 56.8816 68.502 57.3127 66.2586 57.7293C65.5517 57.8607 64.8449 57.9923 64.138 58.1241C64.0129 58.1476 63.8823 58.1601 63.7666 58.1705L63.7188 58.1749L60.2829 45.2964C60.435 45.1889 60.586 45.0851 60.7352 44.9823C61.1087 44.7253 61.4614 44.4827 61.7993 44.2068C63.1543 43.0991 64.1779 41.5548 65.0208 39.3467C65.4762 38.1541 66.0631 36.7689 66.9616 35.5367C67.1308 35.2945 67.3427 35.0874 67.5863 34.9257C67.7637 34.815 67.8463 34.8112 67.8844 34.8275C67.9361 34.8494 67.9833 34.9397 68.0209 35.0886C68.2514 35.9262 68.4275 36.7782 68.5478 37.6387Z" fill="white"/>
<path d="M56.2748 46.4387C56.2687 46.4398 56.2627 46.4414 56.2568 46.4434C54.9436 46.9032 54.2668 47.8401 54.4457 48.9506C54.6227 50.0466 55.6558 50.7677 56.7977 50.5924C56.8201 50.589 56.8417 50.5854 56.8634 50.5813C57.3936 50.4827 57.8651 50.1791 58.1817 49.7325C58.3275 49.5297 58.432 49.2984 58.4893 49.0524C58.5466 48.8063 58.5554 48.5503 58.5153 48.2996C58.3962 47.6959 58.0539 47.1612 57.5611 46.8086C57.1402 46.4995 56.6833 46.3681 56.2748 46.4387ZM56.7879 48.7604C56.6689 48.9702 56.4559 49.0292 56.1549 48.9359C55.896 48.8556 55.783 48.6916 55.8186 48.4481C55.8435 48.3209 55.8815 48.1968 55.9318 48.0782C55.9498 48.0301 55.9689 47.9788 55.989 47.923C56.0468 47.9467 56.1025 47.9684 56.156 47.9893C56.3102 48.0411 56.4578 48.112 56.5958 48.2004C56.7311 48.2977 56.9359 48.5003 56.7879 48.7604Z" fill="white"/>
</g>
<rect x="108.858" y="16.1631" width="55" height="53" rx="12" transform="rotate(11.2005 108.858 16.1631)" fill="#5EFF00"/>
<g filter="url(#filter2_d_74_4891)">
<rect x="108.858" y="16.1631" width="48" height="48" rx="12" transform="rotate(11.2005 108.858 16.1631)" fill="white" fill-opacity="0.01" shape-rendering="crispEdges"/>
</g>
<g clip-path="url(#clip1_74_4891)">
<path d="M148.962 44.4537C148.166 48.8294 146.269 52.7068 143.45 56.1453C141.598 58.4046 139.515 60.4238 137.033 62.0006C134.762 63.466 132.313 64.641 129.744 65.4979C129.31 65.6315 128.866 65.7329 128.417 65.8014C128.18 65.8531 127.932 65.8326 127.707 65.7431C127.481 65.6534 127.288 65.4986 127.151 65.2989C126.989 65.0918 126.781 64.9252 126.542 64.8119C122.496 62.8866 119.64 59.8069 117.723 55.8396C115.711 51.6751 114.733 47.2549 114.611 42.6631C114.556 40.5673 114.606 38.4596 115.079 36.3963C115.372 35.0437 115.847 33.7371 116.493 32.5119C116.63 32.2546 116.804 32.0188 117.01 31.8121C117.233 31.5935 117.543 31.5129 117.82 31.7169C118.931 32.5374 120.255 32.8218 121.549 33.1404C124.24 33.803 126.935 33.67 129.585 32.9371C131.293 32.4642 132.801 31.6191 133.892 30.1723C133.969 30.0635 134.054 29.9603 134.145 29.8636C134.631 29.383 135.36 29.4788 135.595 30.1066C136.472 32.448 138.184 34.0976 140.11 35.586C141.998 37.0439 144.165 37.7282 146.51 37.9513C147.044 38.0021 147.576 38.0654 148.107 38.1409C148.84 38.2453 149.101 38.4871 149.273 39.25C149.497 40.2663 149.531 41.3141 149.373 42.3411C149.269 43.0501 149.101 43.7497 148.962 44.4537ZM134.713 32.299C134.576 32.3943 134.463 32.4601 134.365 32.5436C133.346 33.4135 132.155 34.0643 130.868 34.4553C126.649 35.7449 122.509 35.449 118.469 33.6674C118.283 33.5857 118.093 33.5158 117.865 33.4239C117.31 34.7999 116.974 36.2536 116.869 37.7332C116.746 39.2685 116.723 40.8104 116.799 42.3493C116.969 46.6888 118.031 50.9513 119.921 54.8757C121.702 58.5503 124.386 61.3534 128.155 63.0787C128.407 63.1937 128.622 63.282 128.913 63.1735C131.43 62.2352 133.86 61.1249 136.065 59.5884C139.152 57.4374 141.625 54.6999 143.627 51.5498C145.685 48.3111 146.844 44.7413 147.358 40.9561C147.379 40.6541 147.382 40.3511 147.365 40.0488C144.617 40.186 142.198 39.384 140.01 37.9316C137.822 36.4793 135.958 34.6883 134.713 32.299L134.713 32.299Z" fill="white"/>
<path d="M128.644 52.4046C129.188 51.9827 129.628 51.6386 130.071 51.2972C132.461 49.45 134.972 47.7626 137.588 46.2462C137.862 46.0806 138.156 45.9487 138.462 45.8535C138.695 45.7854 138.944 45.7951 139.17 45.8811C139.397 45.967 139.589 46.1245 139.717 46.3291C139.936 46.7033 139.879 47.1894 139.525 47.5797C139.326 47.7949 139.102 47.9853 138.857 48.1469C137.791 48.8612 136.697 49.5363 135.647 50.2719C133.852 51.5284 132.078 52.8141 130.304 54.0983C128.882 55.128 128.364 55.1134 127.12 53.8695C126.08 52.8287 125.061 51.7674 124.063 50.6851C123.664 50.2173 123.291 49.7279 122.947 49.2193C122.852 49.0896 122.777 48.9473 122.723 48.7965C122.569 48.365 122.675 47.9529 122.995 47.7183C123.145 47.6015 123.329 47.5375 123.52 47.5357C123.711 47.5339 123.898 47.5946 124.051 47.7084C124.347 47.9352 124.62 48.1917 124.863 48.4736C126.107 49.7627 127.346 51.055 128.644 52.4046Z" fill="white"/>
</g>
<path d="M139.057 13.1116C139.485 9.08193 139.919 5.06809 140.607 1.06922C140.791 -0.00125 139.11 -0.465733 138.916 0.616391C138.176 4.74594 137.616 8.91712 137.503 13.1116C137.478 14.1005 138.956 14.058 139.057 13.1116Z" fill="#BABABA"/>
<path d="M156.621 17.0397C157.88 14.9795 159.228 12.8327 159.892 10.5095C160.079 9.85354 159.142 9.48895 158.778 10.0533C157.49 12.0527 156.549 14.2611 155.326 16.3047C154.839 17.1163 156.128 17.8454 156.621 17.0397Z" fill="#BABABA"/>
<path d="M167.46 32.3768C171.02 31.3746 174.579 30.2516 177.822 28.4853C178.567 28.0791 178.068 26.8363 177.229 27.1185C173.795 28.2747 170.457 29.6373 166.972 30.6587C165.845 30.9892 166.321 32.6972 167.46 32.3768Z" fill="#BABABA"/>
<path d="M167.374 54.1732C170.908 54.3006 173.981 55.4268 177.378 56.1335C178.087 56.2809 178.431 55.4243 177.858 55.0281C174.926 52.9979 170.888 52.5692 167.374 52.5609C166.303 52.5584 166.309 54.1349 167.374 54.1732Z" fill="#BABABA"/>
<path d="M101.36 28.4362C99.4401 27.1892 97.5146 25.9448 95.6259 24.6546C93.7851 23.3976 92.0078 21.7262 89.9589 20.8238C89.365 20.5625 88.8731 21.1893 89.2776 21.682C90.6333 23.3352 92.7508 24.5039 94.5375 25.6817C96.5642 27.0177 98.632 28.2564 100.785 29.3909C101.434 29.7322 101.966 28.8299 101.36 28.4362Z" fill="#BABABA"/>
<path d="M118.521 14.3494C116.943 10.214 115.398 6.03283 113.501 2.02315C113.112 1.20073 111.659 1.78591 111.983 2.64495C113.547 6.78699 115.489 10.8083 117.37 14.8205C117.663 15.4448 118.769 15.0003 118.521 14.3494Z" fill="#BABABA"/>
<rect x="68.999" y="567.331" width="56.1456" height="58.7662" rx="12" transform="rotate(-10.6029 68.999 567.331)" fill="#00AEFF"/>
<path fill-rule="evenodd" clip-rule="evenodd" d="M107.044 588.9C106.994 588.064 106.763 587.248 106.366 586.51C105.969 585.772 105.417 585.129 104.747 584.626C104.706 584.587 104.658 584.557 104.605 584.539C104.552 584.521 104.495 584.514 104.439 584.52C104.383 584.526 104.329 584.544 104.281 584.573C104.233 584.602 104.191 584.641 104.16 584.688C104.129 584.735 104.108 584.788 104.099 584.843C104.09 584.899 104.094 584.956 104.109 585.01C104.125 585.064 104.152 585.114 104.189 585.156C104.226 585.199 104.272 585.232 104.323 585.255C104.881 585.709 105.332 586.28 105.644 586.928C105.957 587.575 106.124 588.284 106.133 589.003C106.212 589.699 106.139 590.404 105.917 591.069C105.695 591.734 105.331 592.343 104.85 592.853C103.737 593.601 102.43 594.007 101.089 594.02C99.7123 594.025 98.3675 593.604 97.2394 592.814C96.4814 592.314 95.9112 591.576 95.6185 590.717C95.3257 589.857 95.3271 588.924 95.6224 588.066C95.845 587.276 96.2296 586.542 96.7517 585.91C97.7617 585.019 98.8679 584.244 100.05 583.6C100.695 583.395 101.379 583.344 102.048 583.451C102.717 583.558 103.351 583.82 103.9 584.216C103.972 584.266 104.06 584.286 104.147 584.272C104.233 584.257 104.31 584.21 104.362 584.139C104.389 584.105 104.409 584.065 104.421 584.023C104.433 583.981 104.435 583.937 104.429 583.894C104.423 583.851 104.409 583.809 104.386 583.772C104.363 583.734 104.333 583.702 104.298 583.677C101.551 581.534 97.9966 582.817 95.9432 585.268C93.8899 587.719 93.3765 591.415 96.5079 593.841C97.8493 594.77 99.4447 595.263 101.077 595.252C102.738 595.311 104.358 594.722 105.594 593.61C106.167 592.979 106.593 592.23 106.844 591.416C107.095 590.602 107.163 589.743 107.044 588.9Z" fill="white"/>
<path fill-rule="evenodd" clip-rule="evenodd" d="M99.8824 586.616C99.9731 586.963 100.093 587.302 100.242 587.629L99.7669 587.527C99.3154 587.424 98.856 587.36 98.3937 587.334L96.6869 587.334C95.9554 587.334 96.0195 588.143 96.6227 588.194C97.2259 588.245 97.2002 588.194 97.9061 588.335C98.4319 588.4 98.9487 588.525 99.4461 588.707C99.7719 588.728 100.088 588.825 100.37 588.99C100.498 589.163 100.601 589.353 100.678 589.554C100.858 589.991 100.999 590.478 101.14 590.838C101.281 591.197 101.525 591.787 101.743 592.249L102.18 593.122C102.411 593.481 103.463 593.366 103.027 592.84C102.59 592.314 102.86 592.429 102.667 591.864C102.475 591.3 102.372 590.953 102.244 590.478C102.115 590.004 102.026 589.554 101.859 589.08C101.727 588.708 101.527 588.364 101.268 588.066C101.268 587.565 101.268 587.065 101.179 586.551C101.061 585.837 100.836 585.145 100.511 584.498C100.126 584.036 99.6001 584.293 99.6129 584.703C99.6257 585.114 99.7926 586.269 99.8824 586.616Z" fill="white"/>
<path fill-rule="evenodd" clip-rule="evenodd" d="M94.3647 596.998C94.1023 596.945 93.8364 596.91 93.569 596.895L91.7082 596.895C91.6201 596.884 91.531 596.907 91.4593 596.959C91.3877 597.012 91.3389 597.09 91.3232 597.177C91.3083 597.264 91.3282 597.353 91.3787 597.425C91.4292 597.497 91.5061 597.547 91.5927 597.562C92.26 597.768 92.876 598.012 93.6332 598.166C94.031 598.255 94.4545 598.307 94.8524 598.371C95.4561 598.446 96.0527 598.571 96.6362 598.743C96.7299 598.781 96.8349 598.782 96.9286 598.743C97.0223 598.705 97.0971 598.631 97.1367 598.538C97.1577 598.493 97.1694 598.445 97.171 598.396C97.1726 598.347 97.1641 598.298 97.1461 598.252C97.1281 598.206 97.1008 598.165 97.0661 598.13C97.0314 598.095 96.9899 598.068 96.9442 598.05C96.383 597.715 95.7843 597.448 95.1604 597.254C94.9026 597.147 94.6365 597.061 94.3647 596.998Z" fill="white"/>
<path fill-rule="evenodd" clip-rule="evenodd" d="M100.05 598.243L102.039 598.243L103.194 598.345C103.784 598.345 104.362 598.486 104.952 598.499C105.042 598.495 105.131 598.517 105.209 598.563C105.286 598.608 105.349 598.675 105.388 598.756C105.388 598.91 105.286 599.038 105.08 599.051C104.489 599.135 103.894 599.187 103.297 599.205L102.527 599.205C102.264 599.195 102.002 599.165 101.744 599.115C101.151 599.024 100.564 598.9 99.9856 598.743C99.7931 598.743 99.6776 598.589 99.6904 598.461C99.7033 598.332 99.8701 598.217 100.05 598.243Z" fill="white"/>
<path fill-rule="evenodd" clip-rule="evenodd" d="M107.519 584.023C107.254 583.993 106.993 583.941 106.736 583.869C106.839 583.613 106.993 583.317 107.134 582.997C107.866 581.367 108.328 579.609 107.134 578.3C107.107 578.267 107.074 578.239 107.036 578.219C106.999 578.199 106.958 578.187 106.916 578.183C106.83 578.174 106.745 578.2 106.678 578.255C106.612 578.309 106.57 578.388 106.562 578.473C106.553 578.559 106.579 578.644 106.634 578.71C107.917 580.417 105.851 582.316 105.44 583.844C105.029 585.371 108.969 585.384 110.381 584.934L112.498 584.344C113.037 584.1 112.717 583.471 112.396 583.536C109.778 584.177 109.701 584.344 107.519 584.023Z" fill="white"/>
<path fill-rule="evenodd" clip-rule="evenodd" d="M108.545 577.414C106.916 577.08 107.66 577.273 96.7387 575.912C96.6491 575.914 96.563 575.948 96.4964 576.008C96.4298 576.068 96.3871 576.15 96.3762 576.239C96.3652 576.328 96.3868 576.418 96.4369 576.493C96.487 576.567 96.5623 576.621 96.6489 576.644C106.813 578.004 107.134 578.017 108.417 578.299C109.7 578.582 112.434 582.06 113.088 583.343C113.237 583.571 113.309 583.841 113.294 584.113C112.947 585.935 111.523 591.223 111.099 592.429C110.676 593.635 110.291 594.508 109.944 595.573C109.803 595.984 108.661 600.989 107.198 601.477C105.183 602.157 103.13 601.284 101.115 601.207C99.8316 601.207 97.2649 601.027 95.6222 600.771C89.2055 599.731 89.4879 599.872 87.8452 598.82C89.6932 596.857 91.4 591.941 92.324 589.131C93.1308 585.956 93.7564 582.739 94.1977 579.493C94.3004 578.928 95.2115 576.015 94.3004 576.31C93.9154 576.426 93.9667 577.003 93.9282 577.247C93.6715 578.851 92.555 585.076 92.324 586.102C91.3415 589.946 89.8481 593.641 87.8837 597.088C87.6452 597.423 87.3881 597.744 87.1137 598.05C86.9088 598.254 86.7358 598.488 86.6004 598.743C86.5604 598.925 86.5771 599.115 86.6482 599.287C86.7193 599.459 86.8415 599.605 86.9982 599.706C87.6933 600.233 88.469 600.645 89.2954 600.925C93.1512 601.802 97.0758 602.343 101.025 602.542C103.066 602.619 105.222 603.543 107.557 602.747C109.688 602.016 110.817 596.78 111.048 596.048C111.382 594.983 111.805 593.956 112.152 592.904C112.498 591.852 113.923 586.487 114.282 584.395C114.628 582.534 110.188 577.76 108.545 577.414Z" fill="white"/>
<path fill-rule="evenodd" clip-rule="evenodd" d="M116.309 585.371C115.95 587.193 114.038 594.444 113.614 595.637C113.191 596.831 112.806 597.729 112.459 598.794C112.318 599.205 111.176 604.197 109.713 604.685C107.698 605.365 105.645 604.492 103.63 604.415C102.347 604.415 99.7799 604.236 98.1372 603.979C92.0157 602.991 91.99 603.248 90.5784 602.349C89.7442 601.887 89.4233 602.709 89.9238 603.145C90.4902 603.582 91.1484 603.885 91.8489 604.03C95.7039 604.914 99.6287 605.459 103.579 605.66C105.619 605.737 107.788 606.648 110.111 605.866C112.434 605.083 113.37 599.898 113.55 599.154C113.884 598.101 114.307 597.075 114.654 596.022C115 594.97 117.015 587.719 117.4 585.666C117.567 584.626 116.566 584.318 116.309 585.371Z" fill="white"/>
<g filter="url(#filter3_d_74_4891)">
<rect x="68.999" y="567.331" width="48" height="48" rx="5" transform="rotate(-10.6029 68.999 567.331)" fill="white" fill-opacity="0.01" shape-rendering="crispEdges"/>
</g>
<path d="M98.734 551.548C105.733 551.501 112.566 551.771 119.395 553.46C126.313 555.172 132.263 558.27 138.563 561.447C139.504 561.921 140.497 560.512 139.603 559.863C128.653 551.916 111.983 547.816 98.6582 550.307C97.8865 550.452 97.9147 551.554 98.734 551.548Z" fill="#BABABA"/>
<path d="M133.378 552.851C135.034 554.889 136.53 557.068 137.759 559.391C137.918 559.679 138.068 559.972 138.209 560.27C138.605 560.945 138.576 560.997 138.125 560.423C137.575 560.723 136.87 560.862 136.283 561.071C135.082 561.499 133.86 561.803 132.865 562.617C132.241 563.127 132.527 564.106 133.369 564.106C135.206 564.108 137.11 563.135 138.812 562.487C139.778 562.118 140.785 561.725 140.61 560.512C140.409 559.115 139.042 557.478 138.263 556.343C137.152 554.721 135.88 553.255 134.5 551.858C133.908 551.258 132.839 552.186 133.378 552.851Z" fill="#BABABA"/>
<path d="M106.296 543.988C103.703 546.206 100.973 548.203 98.1202 550.07C97.4257 550.524 97.5878 551.477 98.2441 551.858C101.092 553.513 103.898 555.812 106.921 557.078C107.877 557.479 108.614 556.315 107.898 555.592C105.571 553.244 102.014 551.59 99.1465 549.997C99.1881 550.593 99.2296 551.19 99.2712 551.785C102.158 549.817 104.8 547.549 107.243 545.055C107.802 544.487 106.918 543.455 106.296 543.988Z" fill="#BABABA"/>
<defs>
<filter id="filter0_d_74_4891" x="62.0283" y="357.692" width="139.43" height="139.429" filterUnits="userSpaceOnUse" color-interpolation-filters="sRGB">
<feFlood flood-opacity="0" result="BackgroundImageFix"/>
<feColorMatrix in="SourceAlpha" type="matrix" values="0 0 0 0 0 0 0 0 0 0 0 0 0 0 0 0 0 0 127 0" result="hardAlpha"/>
<feMorphology radius="12" operator="erode" in="SourceAlpha" result="effect1_dropShadow_74_4891"/>
<feOffset dy="25"/>
<feGaussianBlur stdDeviation="25"/>
<feComposite in2="hardAlpha" operator="out"/>
<feColorMatrix type="matrix" values="0 0 0 0 0 0 0 0 0 0 0 0 0 0 0 0 0 0 0.25 0"/>
<feBlend mode="normal" in2="BackgroundImageFix" result="effect1_dropShadow_74_4891"/>
<feBlend mode="normal" in="SourceGraphic" in2="effect1_dropShadow_74_4891" result="shape"/>
</filter>
<filter id="filter1_d_74_4891" x="0" y="7.53223" width="128.011" height="128.011" filterUnits="userSpaceOnUse" color-interpolation-filters="sRGB">
<feFlood flood-opacity="0" result="BackgroundImageFix"/>
<feColorMatrix in="SourceAlpha" type="matrix" values="0 0 0 0 0 0 0 0 0 0 0 0 0 0 0 0 0 0 127 0" result="hardAlpha"/>
<feMorphology radius="12" operator="erode" in="SourceAlpha" result="effect1_dropShadow_74_4891"/>
<feOffset dy="25"/>
<feGaussianBlur stdDeviation="25"/>
<feComposite in2="hardAlpha" operator="out"/>
<feColorMatrix type="matrix" values="0 0 0 0 0 0 0 0 0 0 0 0 0 0 0 0 0 0 0.25 0"/>
<feBlend mode="normal" in2="BackgroundImageFix" result="effect1_dropShadow_74_4891"/>
<feBlend mode="normal" in="SourceGraphic" in2="effect1_dropShadow_74_4891" result="shape"/>
</filter>
<filter id="filter2_d_74_4891" x="63.6348" y="5.26318" width="128.21" height="128.209" filterUnits="userSpaceOnUse" color-interpolation-filters="sRGB">
<feFlood flood-opacity="0" result="BackgroundImageFix"/>
<feColorMatrix in="SourceAlpha" type="matrix" values="0 0 0 0 0 0 0 0 0 0 0 0 0 0 0 0 0 0 127 0" result="hardAlpha"/>
<feMorphology radius="12" operator="erode" in="SourceAlpha" result="effect1_dropShadow_74_4891"/>
<feOffset dy="25"/>
<feGaussianBlur stdDeviation="25"/>
<feComposite in2="hardAlpha" operator="out"/>
<feColorMatrix type="matrix" values="0 0 0 0 0 0 0 0 0 0 0 0 0 0 0 0 0 0 0.25 0"/>
<feBlend mode="normal" in2="BackgroundImageFix" result="effect1_dropShadow_74_4891"/>
<feBlend mode="normal" in="SourceGraphic" in2="effect1_dropShadow_74_4891" result="shape"/>
</filter>
<filter id="filter3_d_74_4891" x="31.833" y="546.333" width="130.345" height="130.345" filterUnits="userSpaceOnUse" color-interpolation-filters="sRGB">
<feFlood flood-opacity="0" result="BackgroundImageFix"/>
<feColorMatrix in="SourceAlpha" type="matrix" values="0 0 0 0 0 0 0 0 0 0 0 0 0 0 0 0 0 0 127 0" result="hardAlpha"/>
<feMorphology radius="12" operator="erode" in="SourceAlpha" result="effect1_dropShadow_74_4891"/>
<feOffset dy="25"/>
<feGaussianBlur stdDeviation="25"/>
<feComposite in2="hardAlpha" operator="out"/>
<feColorMatrix type="matrix" values="0 0 0 0 0 0 0 0 0 0 0 0 0 0 0 0 0 0 0.25 0"/>
<feBlend mode="normal" in2="BackgroundImageFix" result="effect1_dropShadow_74_4891"/>
<feBlend mode="normal" in="SourceGraphic" in2="effect1_dropShadow_74_4891" result="shape"/>
</filter>
<clipPath id="clip0_74_4891">
<rect width="30" height="25" fill="white" transform="translate(49.0195 37.1344) rotate(-10.6029)"/>
</clipPath>
<clipPath id="clip1_74_4891">
<rect width="35" height="37" fill="white" transform="translate(117.114 25.9531) rotate(11.2005)"/>
</clipPath>
</defs>
</svg>
