<svg width="244" height="596" viewBox="0 0 244 596" fill="none" xmlns="http://www.w3.org/2000/svg">
<path d="M143.006 522.98L141.328 533.976C143.383 535.515 145.239 537.324 146.868 539.377L158.174 537.74L162.01 546.782L152.834 553.404C153.186 555.97 153.186 558.536 152.834 561.053L162.01 567.675L158.174 576.717L146.892 575.079C145.313 577.083 143.459 578.917 141.352 580.481L143.033 591.501L133.757 595.241L126.963 586.296C124.33 586.638 121.698 586.638 119.116 586.296L112.321 595.241L103.046 591.501L104.726 580.505C102.67 578.966 100.789 577.157 99.1859 575.104L87.8787 576.741L84.0439 567.699L93.2184 561.077C92.8675 558.511 92.8675 555.945 93.2184 553.428L84.0439 546.806L87.8787 537.764L99.1602 539.402C100.74 537.398 102.595 535.564 104.7 534L103.022 522.98L112.297 519.241L119.091 528.185C121.723 527.843 124.355 527.843 126.937 528.185L133.731 519.241L143.006 522.98ZM122.901 545.977C116.589 545.977 111.472 550.965 111.472 557.117C111.472 563.27 116.589 568.258 122.901 568.258C129.212 568.258 134.328 563.27 134.328 557.117C134.328 550.965 129.212 545.977 122.901 545.977Z" fill="#2537B1"/>
<path d="M182.725 441.414C185.477 442.831 188.186 444.345 190.799 446.006C193.17 447.514 195.401 449.593 198.052 450.568C198.72 450.813 199.053 449.985 198.712 449.519C196.972 447.135 193.943 445.622 191.446 444.144C188.837 442.599 186.147 441.234 183.381 439.994C182.57 439.63 181.93 441.006 182.725 441.414Z" fill="#BABABA"/>
<path d="M191.166 441.874C193.429 442.985 195.592 444.257 197.629 445.746C199.65 447.224 201.414 449.033 203.53 450.376C204.114 450.747 204.959 450.046 204.557 449.417C201.863 445.194 196.567 442.372 192.148 440.314C191.092 439.821 190.092 441.347 191.166 441.874Z" fill="#BABABA"/>
<rect x="139.894" y="475.759" width="56.1456" height="58.7662" rx="12" transform="rotate(-38.8298 139.894 475.759)" fill="#FF006A"/>
<path fill-rule="evenodd" clip-rule="evenodd" d="M195.206 469.527C194.782 469.165 194.236 468.964 193.662 468.959C193.088 468.954 192.523 469.145 192.064 469.499C191.544 469.994 191.213 470.646 191.129 471.338C191.094 471.624 191.109 471.912 191.172 472.19L190.935 472.317C190.781 472.374 190.635 472.452 190.503 472.549C190.349 472.607 190.203 472.685 190.07 472.781C190.001 472.819 189.959 472.841 189.939 472.938C189.677 472.684 189.435 472.402 189.159 472.155C188.199 471.325 187.088 470.672 185.879 470.229C184.712 469.841 183.49 469.614 182.247 469.554C182.304 469.388 182.352 469.22 182.389 469.049C182.436 468.892 182.458 468.73 182.454 468.568C182.414 468.448 182.353 468.335 182.275 468.235C182.223 468.104 182.156 467.979 182.075 467.862C182.299 467.768 182.514 467.653 182.717 467.518C183.124 467.119 183.386 466.602 183.459 466.051C183.533 465.501 183.413 464.95 183.121 464.488C182.91 464.043 182.557 463.681 182.112 463.454C181.667 463.227 181.154 463.147 180.647 463.226C180.571 463.237 180.497 463.261 180.43 463.299C180.363 463.337 180.303 463.387 180.255 463.446C180.207 463.505 180.171 463.573 180.149 463.645C180.127 463.717 180.12 463.792 180.127 463.865C180.135 463.939 180.157 464.01 180.193 464.074C180.229 464.138 180.278 464.194 180.337 464.239C180.397 464.284 180.465 464.316 180.538 464.335C180.611 464.354 180.687 464.358 180.763 464.347C180.939 464.361 181.105 464.422 181.244 464.522C181.384 464.623 181.491 464.759 181.554 464.917C181.762 465.304 181.9 465.83 181.552 466.051C181.393 466.169 181.213 466.254 181.021 466.301C180.829 466.348 180.631 466.355 180.44 466.322C180.16 466.303 179.896 466.198 179.686 466.023C179.528 465.856 179.44 465.636 179.437 465.403C179.435 465.171 179.519 464.943 179.674 464.761C179.764 464.662 179.813 464.534 179.81 464.405C179.807 464.275 179.753 464.154 179.659 464.065C179.563 463.977 179.433 463.931 179.298 463.936C179.164 463.941 179.034 463.997 178.937 464.093C178.666 464.304 178.445 464.572 178.291 464.875C178.138 465.178 178.057 465.509 178.053 465.841C178.05 466.174 178.125 466.501 178.272 466.795C178.419 467.09 178.635 467.345 178.902 467.542C179.351 467.915 179.916 468.134 180.515 468.169C180.468 468.265 180.431 468.365 180.405 468.467C180.382 468.592 180.383 468.72 180.409 468.843C180.412 468.976 180.439 469.106 180.49 469.228L180.619 469.468C179.023 469.544 177.441 469.877 175.937 470.454C173.089 471.547 170.717 473.615 169.278 476.258C169.132 476.025 168.965 475.805 168.781 475.599C168.632 475.48 168.476 475.369 168.314 475.266C168.153 475.18 167.986 475.104 167.814 475.038C167.637 474.972 167.453 474.921 167.266 474.886L167.363 474.834C167.48 474.285 167.402 473.722 167.142 473.237C166.882 472.752 166.455 472.376 165.934 472.171C165.505 471.926 165.003 471.821 164.498 471.871C163.993 471.921 163.51 472.122 163.118 472.447C163 472.547 162.926 472.687 162.912 472.836C162.898 472.985 162.944 473.131 163.041 473.243C163.089 473.3 163.148 473.346 163.215 473.379C163.282 473.412 163.356 473.431 163.432 473.435C163.508 473.439 163.585 473.428 163.658 473.403C163.731 473.377 163.798 473.337 163.855 473.286C164.015 473.211 164.191 473.177 164.365 473.185C164.539 473.193 164.707 473.245 164.852 473.335C165.26 473.527 165.671 473.89 165.492 474.26C165.425 474.443 165.319 474.61 165.181 474.752C165.044 474.894 164.877 475.007 164.694 475.083C164.446 475.207 164.169 475.26 163.896 475.237C163.662 475.195 163.455 475.068 163.318 474.881C163.181 474.694 163.124 474.46 163.157 474.227C163.181 474.096 163.151 473.963 163.073 473.856C162.996 473.75 162.878 473.68 162.744 473.66C162.679 473.651 162.612 473.654 162.548 473.67C162.483 473.686 162.422 473.714 162.367 473.753C162.313 473.792 162.267 473.84 162.231 473.896C162.195 473.951 162.171 474.013 162.159 474.077C162.043 474.396 162.003 474.734 162.042 475.064C162.081 475.395 162.199 475.709 162.386 475.983C162.573 476.256 162.824 476.481 163.119 476.64C163.414 476.8 163.746 476.889 164.088 476.9C164.769 476.981 165.467 476.819 166.054 476.445C166.166 476.385 166.264 476.333 166.332 476.193C166.467 476.353 166.614 476.504 166.772 476.643C166.9 476.744 167.035 476.838 167.174 476.925C167.322 477.028 167.486 477.108 167.66 477.161C167.998 477.289 168.322 477.355 168.659 477.448C168.372 478.186 168.179 478.952 168.086 479.728C168.027 480.602 168.045 481.476 168.141 482.341C168.145 482.405 168.161 482.467 168.19 482.524C168.219 482.582 168.26 482.632 168.309 482.673C168.359 482.714 168.417 482.745 168.479 482.764C168.542 482.783 168.608 482.789 168.675 482.783C168.741 482.777 168.806 482.758 168.865 482.727C168.925 482.697 168.979 482.655 169.023 482.606C169.067 482.556 169.101 482.498 169.122 482.436C169.144 482.374 169.153 482.309 169.15 482.245C168.96 479.994 169.596 477.719 170.944 475.821C172.293 473.924 174.267 472.526 176.52 471.874C179.351 470.85 182.429 470.857 185.174 471.894C190.222 473.866 192.782 480.176 189.962 484.966C186.35 491.056 178.206 493.592 173.241 489.465C171.732 488.056 170.666 486.255 170.159 484.259C170.121 484.116 170.027 483.995 169.897 483.921C169.767 483.847 169.61 483.826 169.461 483.862C169.386 483.881 169.316 483.915 169.253 483.96C169.191 484.006 169.138 484.063 169.098 484.128C169.058 484.192 169.03 484.264 169.018 484.338C169.006 484.412 169.008 484.487 169.026 484.558C169.169 484.825 169.193 485.103 169.273 485.386C168.965 485.411 168.659 485.455 168.355 485.519C168.204 485.582 168.059 485.66 167.923 485.751C167.772 485.815 167.627 485.893 167.49 485.983L167.393 486.035C167.164 485.744 166.853 485.525 166.496 485.402C165.832 485.236 165.123 485.292 164.478 485.559C163.839 485.842 163.32 486.34 163.019 486.959C162.839 487.25 162.73 487.574 162.698 487.907C162.667 488.24 162.716 488.573 162.84 488.878C162.964 489.184 163.16 489.455 163.414 489.67C163.667 489.884 163.97 490.036 164.3 490.114C164.36 490.142 164.427 490.157 164.494 490.158C164.562 490.16 164.63 490.148 164.694 490.123C164.758 490.098 164.817 490.061 164.867 490.014C164.917 489.967 164.957 489.911 164.984 489.85C165.02 489.723 165.006 489.59 164.945 489.476C164.884 489.363 164.781 489.277 164.655 489.237C164.445 489.138 164.284 488.962 164.205 488.747C164.126 488.532 164.135 488.292 164.23 488.076C164.379 487.819 164.616 487.619 164.897 487.512C165.059 487.394 165.245 487.314 165.44 487.278C165.636 487.241 165.836 487.249 166.024 487.302C166.424 487.344 166.5 487.887 166.434 488.334C166.369 488.78 166.266 489.058 165.924 489.191C165.85 489.21 165.78 489.245 165.718 489.291C165.656 489.338 165.605 489.395 165.566 489.461C165.527 489.527 165.503 489.599 165.493 489.673C165.483 489.747 165.489 489.822 165.51 489.893C165.55 490.036 165.646 490.155 165.778 490.226C165.91 490.296 166.067 490.312 166.216 490.269C166.705 490.128 167.142 489.84 167.465 489.449C167.787 489.057 167.978 488.581 168.01 488.088C168.01 487.917 167.997 487.746 167.969 487.578L168.285 487.529C168.44 487.463 168.59 487.383 168.731 487.289C168.882 487.225 169.027 487.148 169.163 487.057C169.351 486.934 169.53 486.797 169.699 486.65C170.262 488.084 171.152 489.364 172.304 490.397C173.781 491.602 175.559 492.417 177.475 492.767C177.475 492.767 177.407 492.941 177.387 493.037C177.344 493.211 177.324 493.389 177.329 493.566C177.327 493.75 177.336 493.934 177.355 494.117C177.448 494.29 177.451 494.529 177.488 494.732L177.138 494.817C176.524 495.119 176.029 495.616 175.736 496.222C175.557 496.514 175.447 496.839 175.417 497.173C175.386 497.508 175.435 497.841 175.56 498.148C175.685 498.455 175.882 498.726 176.135 498.942C176.389 499.157 176.693 499.311 177.023 499.39C177.147 499.441 177.288 499.442 177.416 499.393C177.544 499.343 177.649 499.247 177.708 499.125C177.761 499.003 177.766 498.866 177.72 498.744C177.675 498.622 177.583 498.524 177.463 498.468C177.247 498.372 177.08 498.197 176.997 497.98C176.914 497.763 176.921 497.52 177.016 497.301C177.152 497.065 177.349 496.865 177.585 496.721C177.749 496.608 177.935 496.531 178.13 496.495C178.324 496.459 178.523 496.464 178.712 496.511C179.119 496.567 179.195 497.109 179.129 497.556C179.129 497.727 179.081 497.897 178.991 498.048C178.902 498.198 178.773 498.324 178.619 498.413C178.545 498.433 178.475 498.467 178.413 498.513C178.352 498.56 178.3 498.618 178.261 498.684C178.223 498.749 178.198 498.821 178.188 498.896C178.179 498.97 178.185 499.045 178.206 499.115C178.245 499.258 178.341 499.378 178.473 499.448C178.605 499.519 178.762 499.534 178.911 499.492C179.4 499.346 179.836 499.056 180.156 498.662C180.477 498.268 180.667 497.791 180.698 497.297C180.818 496.749 180.741 496.184 180.481 495.699C180.22 495.213 179.792 494.837 179.268 494.634L179.184 494.679L179.347 494.146C179.401 493.964 179.428 493.776 179.426 493.589C179.443 493.402 179.438 493.214 179.413 493.03C180.551 493.105 181.702 492.982 182.811 492.664C183.608 492.422 184.379 492.095 185.108 491.688C185.187 491.671 185.259 491.632 185.317 491.576L186.391 490.999C188.252 489.857 189.865 488.36 191.129 486.604C191.165 486.687 191.208 486.767 191.258 486.843C191.325 486.949 191.412 487.042 191.513 487.118C191.604 487.204 191.708 487.276 191.824 487.328C191.936 487.371 192.049 487.379 192.154 487.408C191.847 487.924 191.717 488.518 191.786 489.098C191.796 489.427 191.883 489.746 192.04 490.031C192.197 490.316 192.42 490.56 192.692 490.744C192.965 490.929 193.279 491.049 193.611 491.095C193.943 491.142 194.285 491.114 194.61 491.013C194.745 490.984 194.866 490.907 194.947 490.796C195.028 490.685 195.063 490.55 195.046 490.419C195.022 490.29 194.948 490.177 194.839 490.105C194.729 490.032 194.593 490.005 194.46 490.03C194.222 490.061 193.985 490.005 193.794 489.872C193.603 489.74 193.473 489.541 193.429 489.314C193.394 489.046 193.448 488.771 193.582 488.529C193.661 488.351 193.776 488.19 193.921 488.056C194.066 487.922 194.237 487.818 194.423 487.751C194.799 487.549 195.175 487.982 195.369 488.376C195.463 488.515 195.518 488.678 195.527 488.847C195.536 489.017 195.499 489.188 195.421 489.343C195.318 489.459 195.265 489.608 195.272 489.758C195.278 489.908 195.345 490.047 195.457 490.146C195.514 490.194 195.58 490.229 195.652 490.25C195.725 490.272 195.801 490.279 195.877 490.272C195.953 490.264 196.028 490.242 196.096 490.207C196.165 490.172 196.226 490.124 196.276 490.067C196.618 489.686 196.833 489.215 196.889 488.719C196.946 488.224 196.842 487.73 196.592 487.307C196.37 486.807 195.974 486.404 195.473 486.164C194.971 485.924 194.394 485.863 193.837 485.991C193.614 486.076 193.403 486.189 193.209 486.327L193.009 485.955C192.931 485.847 192.832 485.754 192.719 485.682C192.62 485.597 192.505 485.53 192.38 485.486C192.239 485.419 192.09 485.367 191.937 485.33C193.042 483.289 193.43 480.974 193.041 478.751C192.924 478.093 192.741 477.45 192.496 476.831C192.232 476.169 191.919 475.529 191.558 474.916C191.422 474.663 191.216 474.447 191.039 474.217C191.166 474.166 191.288 474.1 191.401 474.022C191.543 473.963 191.678 473.89 191.806 473.805L192.007 473.611C192.194 473.826 192.427 473.999 192.69 474.118C192.953 474.238 193.242 474.301 193.536 474.305C193.831 474.308 194.125 474.251 194.4 474.138C194.676 474.025 194.926 473.858 195.135 473.647C195.19 473.608 195.236 473.558 195.271 473.501C195.307 473.445 195.33 473.382 195.341 473.317C195.351 473.252 195.348 473.187 195.332 473.124C195.316 473.062 195.287 473.003 195.247 472.952C195.17 472.85 195.054 472.782 194.923 472.763C194.792 472.743 194.657 472.774 194.545 472.849C194.343 472.983 194.099 473.04 193.862 473.009C193.625 472.977 193.413 472.859 193.267 472.678C193.119 472.459 193.048 472.197 193.063 471.93C193.048 471.738 193.076 471.545 193.146 471.362C193.215 471.179 193.325 471.012 193.466 470.873C193.729 470.56 194.264 470.753 194.618 471.009C194.765 471.097 194.886 471.222 194.966 471.371C195.046 471.521 195.084 471.69 195.075 471.861C195.029 472.005 195.042 472.158 195.112 472.288C195.182 472.417 195.302 472.513 195.447 472.554C195.595 472.593 195.755 472.573 195.893 472.499C196.031 472.425 196.136 472.302 196.186 472.157C196.342 471.663 196.331 471.139 196.155 470.665C195.978 470.19 195.645 469.791 195.206 469.527Z" fill="white"/>
<path fill-rule="evenodd" clip-rule="evenodd" d="M173.226 479.696C173.355 479.936 173.33 480.258 173.417 480.52C173.789 481.648 174.24 482.747 174.769 483.808L172.21 485.302C171.038 485.931 171.223 486.809 172.775 486.354L175.533 485.165C176.098 486.147 176.753 487.075 177.489 487.939C177.147 488.273 176.827 488.628 176.532 489.002C175.712 490.42 176.9 490.657 177.427 490.066C177.954 489.474 178.198 489.36 178.65 488.997C179.168 489.502 179.744 489.946 180.368 490.322C180.914 490.938 182.42 490.798 182.312 489.793C181.453 489.294 180.665 488.692 179.965 488L180.384 487.775C181.15 487.227 181.944 486.697 182.745 486.216C183.547 485.734 184.001 485.542 184.628 485.205C185.033 486.104 185.384 487.026 185.68 487.968C186.081 488.713 187.093 487.587 186.746 486.606C186.565 485.811 186.342 485.026 186.077 484.255C187.152 483.736 188.253 483.272 189.373 482.864C190.562 482.5 190.769 481.48 189.758 481.405C188.323 481.741 186.91 482.173 185.529 482.698C185.507 482.641 185.478 482.587 185.443 482.538C185.126 481.863 184.772 481.205 184.385 480.567C185.908 479.603 187.37 478.548 188.764 477.41C190.171 476.449 189.267 475.803 188.149 476.265C186.833 477.161 185.488 478.003 184.205 478.726L183.536 479.085C183.207 478.473 182.815 477.911 182.396 477.364C181.977 476.817 181.43 476.167 180.983 475.67C182.009 475.021 182.984 474.297 183.9 473.504C183.962 473.456 184.014 473.397 184.054 473.33C184.093 473.263 184.118 473.189 184.128 473.113C184.137 473.038 184.131 472.962 184.11 472.889C184.089 472.817 184.053 472.751 184.004 472.693C183.965 472.628 183.912 472.573 183.849 472.529C183.785 472.486 183.713 472.457 183.636 472.443C183.56 472.43 183.48 472.432 183.403 472.45C183.326 472.468 183.253 472.501 183.189 472.548C182.236 473.215 181.237 473.815 180.199 474.341L180.003 474.446C179.238 473.622 178.479 472.846 177.721 472.103C177.679 472.055 177.626 472.016 177.567 471.988C177.507 471.961 177.442 471.945 177.375 471.943C177.309 471.94 177.242 471.95 177.178 471.973C177.115 471.996 177.056 472.031 177.006 472.076C176.902 472.165 176.836 472.289 176.823 472.421C176.81 472.553 176.85 472.683 176.936 472.782C177.518 473.499 178.087 474.291 178.642 475.091L177.847 475.518L175.447 476.703L174.052 477.452L173.838 477.053C173.704 476.395 173.65 475.722 173.677 475.046C173.68 474.904 173.628 474.768 173.532 474.665C173.435 474.562 173.3 474.5 173.155 474.491C173.009 474.483 172.864 474.528 172.747 474.618C172.631 474.708 172.552 474.837 172.526 474.978C172.502 475.734 172.569 476.487 172.724 477.222C172.762 477.527 172.87 477.795 172.93 478.106L171.646 478.795L171.22 478.972C169.879 479.486 169.743 480.572 170.99 480.451L172.144 480.191C172.437 480.034 172.842 479.817 173.226 479.696ZM183.311 482.482L183.797 483.387L181.76 484.481C180.877 485.006 180.034 485.596 179.239 486.245L178.878 486.611C178.287 485.879 177.742 485.112 177.249 484.312L178.233 483.869C179.764 483.142 181.259 482.34 182.711 481.466C182.933 481.879 183.146 482.176 183.311 482.482ZM174.975 479.941C174.839 479.688 174.801 479.383 174.686 479.102L176.285 478.398L179.66 476.586C180.039 477.291 180.515 477.842 180.985 478.585L181.771 480.049L178.716 481.689L176.456 482.902C175.897 481.95 175.402 480.961 174.975 479.941Z" fill="white"/>
<g filter="url(#filter0_d_74_4888)">
<rect x="139.894" y="475.759" width="48" height="48" rx="5" transform="rotate(-38.8298 139.894 475.759)" fill="white" fill-opacity="0.01" shape-rendering="crispEdges"/>
</g>
<rect x="35.999" y="27.3633" width="52" height="49" rx="12" transform="rotate(-10.6029 35.999 27.3633)" fill="#FFAE00"/>
<g filter="url(#filter1_d_74_4888)">
<rect x="35.999" y="27.3633" width="48" height="48" rx="12" transform="rotate(-10.6029 35.999 27.3633)" fill="white" fill-opacity="0.01" shape-rendering="crispEdges"/>
</g>
<g clip-path="url(#clip0_74_4888)">
<path d="M53.5719 59.487C53.6726 59.9003 53.8258 60.2985 54.0277 60.6714C54.3549 61.2938 54.6191 61.3606 55.2473 61.2459L55.8402 61.1375C57.6871 60.7998 59.5972 60.45 61.4731 60.0965C61.6569 60.058 61.8384 60.0091 62.0167 59.9497C62.2034 59.8857 62.3944 59.8356 62.5883 59.7997C62.8934 59.7506 63.2083 59.7173 63.5127 59.6853C63.8843 59.6462 64.2675 59.6058 64.6423 59.5356C64.6664 59.5311 64.6903 59.5267 64.7142 59.5222C69.3918 58.594 73.1722 57.829 76.6114 57.1143C77.8129 56.8644 78.5933 56.1888 78.9973 55.0487C79.8833 52.5474 80.4223 49.8098 80.7447 46.1719C80.7848 45.5842 80.7896 44.9942 80.7595 44.4049C80.751 44.1408 80.7424 43.8677 80.7405 43.6003C80.7404 43.5931 80.7397 43.5857 80.7384 43.5785L80.5841 42.7542C80.5816 42.7409 80.577 42.7281 80.5703 42.7165C80.4878 42.5697 80.4099 42.4131 80.3343 42.2615C80.1757 41.9077 79.9745 41.5755 79.7354 41.2729C78.9855 40.4049 77.924 40.0216 76.6655 40.1644C75.4793 40.299 74.2822 40.4999 73.1251 40.6938C72.8317 40.743 72.5384 40.7919 72.2452 40.8404C71.6554 40.9374 71.0585 41.0526 70.4815 41.1638C70.2592 41.2067 70.0368 41.2493 69.8144 41.2917C70.0018 40.2226 70.0267 39.0674 69.8957 37.5553C69.8185 36.6655 69.6602 35.5086 69.116 34.4522C68.7312 33.7054 68.3093 33.5111 67.5039 33.707C66.959 33.8257 66.479 34.15 66.1577 34.6163C66.0837 34.7252 66.009 34.8337 65.9337 34.9418C65.5348 35.4901 65.1761 36.0684 64.8607 36.6721C64.4712 37.4658 64.1241 38.2965 63.7883 39.1001C63.6415 39.4515 63.4947 39.803 63.3441 40.1525C62.6372 41.7909 61.6747 43.0678 60.3996 44.0553C60.3014 44.1374 60.188 44.1985 60.0661 44.2349C59.9443 44.2713 59.8163 44.2823 59.6897 44.2673C58.6069 44.1874 57.7207 44.2847 56.9005 44.5733C56.2683 44.7958 55.6104 44.9834 54.9742 45.1645C54.7287 45.2343 54.4835 45.3045 54.2389 45.3766C53.9784 45.4532 53.717 45.527 53.4557 45.6007C53.0344 45.7195 52.5988 45.8424 52.1733 45.9764C51.3962 46.2211 51.1343 46.5903 51.1353 47.4398L51.135 47.5164C51.1304 47.6571 51.1379 47.798 51.1575 47.9376C51.2089 48.242 51.2582 48.5466 51.3075 48.8513C51.4379 49.6576 51.5726 50.4912 51.7469 51.304C52.3686 54.2019 53.0184 57.0668 53.5719 59.487ZM58.9948 45.4635C59.3734 47.6207 59.9253 49.7533 60.4595 51.8164C60.992 53.8735 61.542 55.9994 61.9136 58.1297L55.4016 59.3488L55.3977 59.3356C55.3727 59.2517 55.3468 59.165 55.3267 59.0792C54.9585 57.4815 54.5903 55.8837 54.2221 54.2862C53.8736 52.7733 53.5251 51.2604 53.1767 49.7475C53.1436 49.6039 53.111 49.4602 53.0787 49.3162C52.9719 48.8436 52.8616 48.3547 52.7283 47.8795C52.6349 47.5464 52.7086 47.3931 53.0102 47.2936C53.3736 47.1737 53.7363 47.0524 54.0984 46.9298C54.7877 46.6977 55.5004 46.4579 56.2056 46.2375C56.8616 46.0326 57.5361 45.8458 58.1885 45.6652C58.4187 45.6016 58.6488 45.5376 58.8789 45.4732C58.917 45.4651 58.956 45.4619 58.995 45.4635L58.9948 45.4635ZM68.5468 37.6387C68.6696 38.6829 68.6184 39.8251 68.3855 41.2333C68.3107 41.686 68.2769 42.1785 68.5346 42.714C68.5454 42.7365 68.5628 42.755 68.5842 42.767C68.6057 42.779 68.6301 42.7839 68.6542 42.7809C68.7442 42.7698 68.8359 42.7595 68.9281 42.7491C69.1299 42.7265 69.3385 42.7031 69.545 42.6693C70.133 42.5711 70.7204 42.4695 71.3082 42.3674C72.6054 42.1423 73.9466 41.9092 75.2715 41.7256C75.986 41.6335 76.7111 41.6516 77.4231 41.7793C78.2942 41.9306 78.8072 42.4988 78.9474 43.4678C79.1634 44.9614 79.0961 46.5709 78.7353 48.5328C78.4966 49.8311 78.2107 51.2114 77.8081 53.0088C77.7107 53.3991 77.5876 53.7816 77.4397 54.1541C77.3953 54.2735 77.351 54.3929 77.3082 54.5127C77.0941 55.1136 76.6588 55.5125 76.0144 55.698C75.1408 55.9496 74.1224 56.2348 73.0972 56.4357C70.8204 56.8816 68.501 57.3127 66.2576 57.7293C65.5508 57.8607 64.8439 57.9923 64.137 58.1241C64.0119 58.1476 63.8813 58.1601 63.7656 58.1705L63.7178 58.1749L60.2819 45.2964C60.434 45.1889 60.585 45.0851 60.7342 44.9823C61.1077 44.7253 61.4605 44.4827 61.7983 44.2068C63.1533 43.0991 64.1769 41.5548 65.0199 39.3467C65.4752 38.1541 66.0621 36.7689 66.9606 35.5367C67.1298 35.2945 67.3417 35.0874 67.5853 34.9257C67.7627 34.815 67.8453 34.8112 67.8834 34.8275C67.9351 34.8494 67.9823 34.9397 68.0199 35.0886C68.2504 35.9262 68.4265 36.7782 68.5468 37.6387Z" fill="white"/>
<path d="M56.2748 46.4387C56.2687 46.4398 56.2627 46.4414 56.2568 46.4434C54.9436 46.9032 54.2668 47.8401 54.4457 48.9506C54.6227 50.0466 55.6558 50.7677 56.7977 50.5924C56.8201 50.589 56.8417 50.5854 56.8634 50.5813C57.3936 50.4827 57.8651 50.1791 58.1817 49.7325C58.3275 49.5297 58.432 49.2984 58.4893 49.0524C58.5466 48.8063 58.5554 48.5503 58.5153 48.2996C58.3962 47.6959 58.0539 47.1612 57.5611 46.8086C57.1402 46.4995 56.6833 46.3681 56.2748 46.4387ZM56.7879 48.7604C56.6689 48.9702 56.4559 49.0292 56.1549 48.9359C55.896 48.8556 55.783 48.6916 55.8186 48.4481C55.8435 48.3209 55.8815 48.1968 55.9318 48.0782C55.9498 48.0301 55.9689 47.9788 55.989 47.923C56.0468 47.9467 56.1025 47.9684 56.156 47.9893C56.3102 48.0411 56.4578 48.112 56.5958 48.2004C56.7311 48.2977 56.9359 48.5003 56.7879 48.7604Z" fill="white"/>
</g>
<rect x="108.858" y="16.1631" width="55" height="53" rx="12" transform="rotate(11.2005 108.858 16.1631)" fill="#5500FF"/>
<g filter="url(#filter2_d_74_4888)">
<rect x="108.858" y="16.1631" width="48" height="48" rx="12" transform="rotate(11.2005 108.858 16.1631)" fill="white" fill-opacity="0.01" shape-rendering="crispEdges"/>
</g>
<g clip-path="url(#clip1_74_4888)">
<path d="M148.961 44.4537C148.165 48.8294 146.268 52.7068 143.449 56.1453C141.597 58.4046 139.514 60.4238 137.032 62.0006C134.761 63.466 132.312 64.641 129.743 65.4979C129.309 65.6315 128.865 65.7329 128.416 65.8014C128.179 65.8531 127.931 65.8326 127.706 65.7431C127.48 65.6534 127.287 65.4986 127.15 65.2989C126.988 65.0918 126.78 64.9252 126.541 64.8119C122.495 62.8866 119.639 59.8069 117.722 55.8396C115.71 51.6751 114.732 47.2549 114.61 42.6631C114.555 40.5673 114.606 38.4596 115.078 36.3963C115.371 35.0437 115.846 33.7371 116.492 32.5119C116.629 32.2546 116.803 32.0188 117.009 31.8121C117.232 31.5935 117.542 31.5129 117.819 31.7169C118.93 32.5374 120.254 32.8218 121.548 33.1404C124.239 33.803 126.934 33.67 129.584 32.9371C131.293 32.4642 132.8 31.6191 133.891 30.1723C133.968 30.0635 134.053 29.9603 134.144 29.8636C134.63 29.383 135.359 29.4788 135.594 30.1066C136.471 32.448 138.183 34.0976 140.109 35.586C141.997 37.0439 144.164 37.7282 146.509 37.9513C147.043 38.0021 147.575 38.0654 148.106 38.1409C148.839 38.2453 149.1 38.4871 149.272 39.25C149.496 40.2663 149.53 41.3141 149.372 42.3411C149.268 43.0501 149.1 43.7497 148.961 44.4537ZM134.712 32.299C134.575 32.3943 134.462 32.4601 134.364 32.5436C133.345 33.4135 132.154 34.0643 130.867 34.4553C126.648 35.7449 122.508 35.449 118.468 33.6674C118.282 33.5857 118.092 33.5158 117.864 33.4239C117.309 34.7999 116.973 36.2536 116.868 37.7332C116.745 39.2685 116.722 40.8104 116.798 42.3493C116.968 46.6888 118.03 50.9513 119.92 54.8757C121.701 58.5503 124.385 61.3534 128.154 63.0787C128.406 63.1937 128.621 63.282 128.912 63.1735C131.429 62.2352 133.859 61.1249 136.064 59.5884C139.151 57.4374 141.624 54.6999 143.626 51.5498C145.684 48.3111 146.843 44.7413 147.357 40.9561C147.378 40.6541 147.381 40.3511 147.364 40.0488C144.616 40.186 142.197 39.384 140.009 37.9316C137.821 36.4793 135.957 34.6883 134.712 32.299L134.712 32.299Z" fill="white"/>
<path d="M128.643 52.4046C129.187 51.9827 129.627 51.6386 130.07 51.2972C132.46 49.45 134.971 47.7626 137.587 46.2462C137.861 46.0806 138.155 45.9487 138.461 45.8535C138.694 45.7854 138.943 45.7951 139.169 45.8811C139.396 45.967 139.588 46.1245 139.716 46.3291C139.935 46.7033 139.878 47.1894 139.524 47.5797C139.325 47.7949 139.101 47.9853 138.856 48.1469C137.79 48.8612 136.696 49.5363 135.646 50.2719C133.851 51.5284 132.077 52.8141 130.303 54.0983C128.881 55.128 128.363 55.1134 127.119 53.8695C126.079 52.8287 125.06 51.7674 124.062 50.6851C123.663 50.2173 123.29 49.7279 122.946 49.2193C122.851 49.0896 122.776 48.9473 122.722 48.7965C122.568 48.365 122.674 47.9529 122.994 47.7183C123.144 47.6015 123.328 47.5375 123.519 47.5357C123.71 47.5339 123.897 47.5946 124.05 47.7084C124.346 47.9352 124.619 48.1917 124.862 48.4736C126.106 49.7627 127.345 51.055 128.643 52.4046Z" fill="white"/>
</g>
<path d="M139.056 13.1116C139.485 9.08193 139.918 5.06809 140.607 1.06922C140.791 -0.00125 139.11 -0.465733 138.915 0.616391C138.175 4.74594 137.615 8.91712 137.503 13.1116C137.477 14.1005 138.955 14.058 139.056 13.1116Z" fill="#BABABA"/>
<path d="M156.621 17.0397C157.881 14.9795 159.229 12.8327 159.892 10.5095C160.08 9.85354 159.142 9.48895 158.779 10.0533C157.491 12.0527 156.55 14.2611 155.326 16.3047C154.839 17.1163 156.128 17.8454 156.621 17.0397Z" fill="#BABABA"/>
<path d="M167.46 32.3768C171.021 31.3746 174.58 30.2516 177.823 28.4853C178.567 28.0791 178.068 26.8363 177.23 27.1185C173.796 28.2747 170.457 29.6373 166.973 30.6587C165.846 30.9892 166.322 32.6972 167.46 32.3768Z" fill="#BABABA"/>
<path d="M167.374 54.1732C170.907 54.3006 173.98 55.4268 177.378 56.1335C178.087 56.2809 178.43 55.4243 177.858 55.0281C174.925 52.9979 170.887 52.5692 167.374 52.5609C166.303 52.5584 166.309 54.1349 167.374 54.1732Z" fill="#BABABA"/>
<path d="M101.36 28.4362C99.4406 27.1892 97.5151 25.9448 95.6264 24.6546C93.7856 23.3976 92.0083 21.7262 89.9594 20.8238C89.3655 20.5625 88.8736 21.1893 89.2781 21.682C90.6338 23.3352 92.7513 24.5039 94.538 25.6817C96.5647 27.0177 98.6325 28.2564 100.785 29.3909C101.435 29.7322 101.966 28.8299 101.36 28.4362Z" fill="#BABABA"/>
<path d="M118.521 14.3494C116.944 10.214 115.399 6.03283 113.501 2.02315C113.112 1.20073 111.66 1.78591 111.984 2.64495C113.548 6.78699 115.49 10.8083 117.37 14.8205C117.664 15.4448 118.77 15.0003 118.521 14.3494Z" fill="#BABABA"/>
<rect x="138.187" y="213.331" width="56.1456" height="58.7662" rx="12" transform="rotate(-10.6029 138.187 213.331)" fill="#D000FF"/>
<path fill-rule="evenodd" clip-rule="evenodd" d="M176.231 234.9C176.181 234.064 175.95 233.248 175.553 232.51C175.156 231.772 174.604 231.129 173.934 230.626C173.893 230.587 173.845 230.557 173.792 230.539C173.739 230.521 173.682 230.514 173.626 230.52C173.57 230.526 173.516 230.544 173.468 230.573C173.42 230.602 173.378 230.641 173.347 230.688C173.316 230.735 173.295 230.788 173.286 230.843C173.277 230.899 173.281 230.956 173.296 231.01C173.312 231.064 173.339 231.114 173.376 231.156C173.413 231.199 173.459 231.232 173.51 231.255C174.068 231.709 174.519 232.28 174.831 232.928C175.144 233.575 175.311 234.284 175.32 235.003C175.399 235.699 175.326 236.404 175.104 237.069C174.882 237.734 174.518 238.343 174.037 238.853C172.924 239.601 171.617 240.007 170.276 240.02C168.899 240.025 167.555 239.604 166.426 238.814C165.668 238.314 165.098 237.576 164.805 236.717C164.513 235.857 164.514 234.924 164.809 234.066C165.032 233.276 165.417 232.542 165.939 231.91C166.949 231.019 168.055 230.244 169.237 229.6C169.882 229.395 170.566 229.344 171.235 229.451C171.904 229.558 172.538 229.82 173.087 230.216C173.159 230.266 173.247 230.286 173.334 230.272C173.42 230.257 173.497 230.21 173.549 230.139C173.576 230.105 173.596 230.065 173.608 230.023C173.62 229.981 173.622 229.937 173.616 229.894C173.61 229.851 173.596 229.809 173.573 229.772C173.55 229.734 173.52 229.702 173.485 229.677C170.738 227.534 167.184 228.817 165.13 231.268C163.077 233.719 162.564 237.415 165.695 239.841C167.036 240.77 168.632 241.263 170.264 241.252C171.925 241.311 173.545 240.722 174.781 239.61C175.354 238.979 175.78 238.23 176.031 237.416C176.282 236.602 176.35 235.743 176.231 234.9Z" fill="white"/>
<path fill-rule="evenodd" clip-rule="evenodd" d="M169.07 232.616C169.161 232.963 169.281 233.302 169.429 233.629L168.954 233.527C168.503 233.424 168.044 233.36 167.581 233.334L165.874 233.334C165.143 233.334 165.207 234.143 165.81 234.194C166.413 234.245 166.388 234.194 167.094 234.335C167.619 234.4 168.136 234.525 168.634 234.707C168.959 234.728 169.276 234.825 169.558 234.99C169.685 235.163 169.789 235.353 169.866 235.554C170.045 235.991 170.186 236.478 170.328 236.838C170.469 237.197 170.713 237.787 170.931 238.249L171.367 239.122C171.598 239.481 172.65 239.366 172.214 238.84C171.778 238.314 172.047 238.429 171.855 237.864C171.662 237.3 171.56 236.953 171.431 236.478C171.303 236.004 171.213 235.554 171.046 235.08C170.915 234.708 170.715 234.364 170.456 234.066C170.456 233.565 170.456 233.065 170.366 232.551C170.249 231.837 170.024 231.145 169.699 230.498C169.314 230.036 168.788 230.293 168.8 230.703C168.813 231.114 168.98 232.269 169.07 232.616Z" fill="white"/>
<path fill-rule="evenodd" clip-rule="evenodd" d="M163.552 242.998C163.29 242.945 163.024 242.91 162.757 242.895L160.896 242.895C160.808 242.884 160.718 242.907 160.647 242.959C160.575 243.012 160.526 243.09 160.511 243.177C160.496 243.264 160.516 243.353 160.566 243.425C160.617 243.498 160.694 243.547 160.78 243.562C161.448 243.768 162.064 244.012 162.821 244.166C163.219 244.255 163.642 244.307 164.04 244.371C164.644 244.446 165.24 244.571 165.824 244.743C165.917 244.782 166.022 244.782 166.116 244.743C166.21 244.705 166.285 244.631 166.324 244.538C166.345 244.493 166.357 244.445 166.359 244.396C166.36 244.347 166.352 244.298 166.334 244.252C166.316 244.207 166.288 244.165 166.254 244.13C166.219 244.095 166.177 244.068 166.132 244.05C165.571 243.715 164.972 243.448 164.348 243.254C164.09 243.147 163.824 243.062 163.552 242.998Z" fill="white"/>
<path fill-rule="evenodd" clip-rule="evenodd" d="M169.237 244.243L171.226 244.243L172.381 244.345C172.972 244.345 173.549 244.486 174.14 244.499C174.229 244.495 174.319 244.517 174.396 244.563C174.474 244.608 174.536 244.675 174.576 244.756C174.576 244.91 174.473 245.038 174.268 245.051C173.677 245.135 173.081 245.187 172.484 245.205L171.714 245.205C171.451 245.195 171.19 245.165 170.931 245.115C170.339 245.024 169.752 244.9 169.173 244.743C168.981 244.743 168.865 244.589 168.878 244.461C168.891 244.332 169.058 244.217 169.237 244.243Z" fill="white"/>
<path fill-rule="evenodd" clip-rule="evenodd" d="M176.706 230.023C176.441 229.993 176.18 229.941 175.923 229.869C176.026 229.613 176.18 229.317 176.321 228.997C177.053 227.367 177.515 225.609 176.321 224.3C176.294 224.267 176.261 224.239 176.223 224.219C176.186 224.199 176.145 224.187 176.103 224.183C176.017 224.174 175.932 224.2 175.865 224.255C175.799 224.309 175.757 224.388 175.749 224.473C175.74 224.559 175.766 224.644 175.821 224.71C177.104 226.417 175.038 228.316 174.627 229.844C174.216 231.371 178.156 231.384 179.568 230.934L181.685 230.344C182.224 230.1 181.904 229.471 181.583 229.536C178.965 230.177 178.888 230.344 176.706 230.023Z" fill="white"/>
<path fill-rule="evenodd" clip-rule="evenodd" d="M177.733 223.414C176.103 223.08 176.847 223.273 165.926 221.913C165.837 221.914 165.751 221.948 165.684 222.008C165.617 222.068 165.575 222.15 165.564 222.239C165.553 222.328 165.574 222.418 165.624 222.493C165.675 222.567 165.75 222.621 165.836 222.644C176 224.004 176.321 224.017 177.605 224.3C178.888 224.582 181.621 228.06 182.276 229.343C182.424 229.571 182.496 229.841 182.481 230.113C182.135 231.935 180.71 237.223 180.287 238.429C179.863 239.635 179.478 240.508 179.132 241.573C178.991 241.984 177.848 246.989 176.385 247.477C174.371 248.157 172.317 247.284 170.302 247.207C169.019 247.207 166.452 247.027 164.81 246.771C158.393 245.731 158.675 245.872 157.033 244.82C158.881 242.857 160.588 237.941 161.512 235.131C162.318 231.956 162.944 228.739 163.385 225.493C163.488 224.928 164.399 222.015 163.488 222.31C163.103 222.426 163.154 223.003 163.116 223.247C162.859 224.851 161.743 231.076 161.512 232.102C160.529 235.946 159.036 239.641 157.071 243.088C156.833 243.423 156.576 243.744 156.301 244.05C156.096 244.254 155.923 244.488 155.788 244.743C155.748 244.925 155.765 245.115 155.836 245.287C155.907 245.459 156.029 245.605 156.186 245.706C156.881 246.233 157.657 246.645 158.483 246.925C162.339 247.802 166.263 248.343 170.213 248.542C172.253 248.619 174.409 249.543 176.745 248.747C178.875 248.016 180.004 242.78 180.235 242.048C180.569 240.983 180.993 239.956 181.339 238.904C181.686 237.852 183.11 232.487 183.469 230.395C183.816 228.535 179.376 223.761 177.733 223.414Z" fill="white"/>
<path fill-rule="evenodd" clip-rule="evenodd" d="M185.497 231.371C185.137 233.193 183.225 240.444 182.802 241.637C182.378 242.831 181.993 243.729 181.647 244.794C181.506 245.205 180.363 250.197 178.9 250.685C176.886 251.365 174.832 250.492 172.817 250.415C171.534 250.415 168.967 250.236 167.325 249.979C161.203 248.991 161.178 249.248 159.766 248.349C158.932 247.887 158.611 248.709 159.111 249.145C159.678 249.582 160.336 249.885 161.036 250.03C164.891 250.914 168.816 251.459 172.766 251.66C174.807 251.737 176.975 252.648 179.298 251.866C181.621 251.083 182.558 245.898 182.738 245.154C183.071 244.101 183.495 243.075 183.841 242.022C184.188 240.97 186.203 233.719 186.588 231.666C186.754 230.626 185.753 230.318 185.497 231.371Z" fill="white"/>
<g filter="url(#filter3_d_74_4888)">
<rect x="138.187" y="213.331" width="48" height="48" rx="5" transform="rotate(-10.6029 138.187 213.331)" fill="white" fill-opacity="0.01" shape-rendering="crispEdges"/>
</g>
<path d="M167.921 197.548C174.921 197.501 181.754 197.771 188.582 199.46C195.501 201.172 201.451 204.27 207.75 207.447C208.692 207.921 209.685 206.512 208.791 205.863C197.84 197.916 181.171 193.816 167.846 196.307C167.074 196.452 167.102 197.554 167.921 197.548Z" fill="#BABABA"/>
<path d="M202.566 198.851C204.222 200.889 205.718 203.068 206.947 205.391C207.106 205.679 207.256 205.972 207.397 206.27C207.793 206.945 207.764 206.997 207.313 206.423C206.763 206.723 206.058 206.862 205.471 207.071C204.27 207.5 203.048 207.803 202.053 208.617C201.429 209.127 201.715 210.106 202.557 210.106C204.394 210.108 206.298 209.135 208 208.487C208.966 208.118 209.973 207.725 209.798 206.512C209.597 205.115 208.23 203.478 207.451 202.343C206.34 200.721 205.068 199.255 203.688 197.858C203.096 197.258 202.027 198.186 202.566 198.851Z" fill="#BABABA"/>
<path d="M175.483 189.988C172.891 192.206 170.161 194.203 167.308 196.07C166.613 196.524 166.775 197.477 167.432 197.859C170.28 199.513 173.086 201.812 176.109 203.078C177.065 203.479 177.802 202.316 177.086 201.592C174.758 199.244 171.202 197.59 168.334 195.997C168.376 196.593 168.417 197.19 168.459 197.785C171.346 195.817 173.987 193.549 176.431 191.055C176.99 190.487 176.106 189.455 175.483 189.988Z" fill="#BABABA"/>
<defs>
<filter id="filter0_d_74_4888" x="103.924" y="434.692" width="139.429" height="139.429" filterUnits="userSpaceOnUse" color-interpolation-filters="sRGB">
<feFlood flood-opacity="0" result="BackgroundImageFix"/>
<feColorMatrix in="SourceAlpha" type="matrix" values="0 0 0 0 0 0 0 0 0 0 0 0 0 0 0 0 0 0 127 0" result="hardAlpha"/>
<feMorphology radius="12" operator="erode" in="SourceAlpha" result="effect1_dropShadow_74_4888"/>
<feOffset dy="25"/>
<feGaussianBlur stdDeviation="25"/>
<feComposite in2="hardAlpha" operator="out"/>
<feColorMatrix type="matrix" values="0 0 0 0 0 0 0 0 0 0 0 0 0 0 0 0 0 0 0.25 0"/>
<feBlend mode="normal" in2="BackgroundImageFix" result="effect1_dropShadow_74_4888"/>
<feBlend mode="normal" in="SourceGraphic" in2="effect1_dropShadow_74_4888" result="shape"/>
</filter>
<filter id="filter1_d_74_4888" x="0" y="7.53223" width="128.011" height="128.011" filterUnits="userSpaceOnUse" color-interpolation-filters="sRGB">
<feFlood flood-opacity="0" result="BackgroundImageFix"/>
<feColorMatrix in="SourceAlpha" type="matrix" values="0 0 0 0 0 0 0 0 0 0 0 0 0 0 0 0 0 0 127 0" result="hardAlpha"/>
<feMorphology radius="12" operator="erode" in="SourceAlpha" result="effect1_dropShadow_74_4888"/>
<feOffset dy="25"/>
<feGaussianBlur stdDeviation="25"/>
<feComposite in2="hardAlpha" operator="out"/>
<feColorMatrix type="matrix" values="0 0 0 0 0 0 0 0 0 0 0 0 0 0 0 0 0 0 0.25 0"/>
<feBlend mode="normal" in2="BackgroundImageFix" result="effect1_dropShadow_74_4888"/>
<feBlend mode="normal" in="SourceGraphic" in2="effect1_dropShadow_74_4888" result="shape"/>
</filter>
<filter id="filter2_d_74_4888" x="63.6343" y="5.26318" width="128.209" height="128.209" filterUnits="userSpaceOnUse" color-interpolation-filters="sRGB">
<feFlood flood-opacity="0" result="BackgroundImageFix"/>
<feColorMatrix in="SourceAlpha" type="matrix" values="0 0 0 0 0 0 0 0 0 0 0 0 0 0 0 0 0 0 127 0" result="hardAlpha"/>
<feMorphology radius="12" operator="erode" in="SourceAlpha" result="effect1_dropShadow_74_4888"/>
<feOffset dy="25"/>
<feGaussianBlur stdDeviation="25"/>
<feComposite in2="hardAlpha" operator="out"/>
<feColorMatrix type="matrix" values="0 0 0 0 0 0 0 0 0 0 0 0 0 0 0 0 0 0 0.25 0"/>
<feBlend mode="normal" in2="BackgroundImageFix" result="effect1_dropShadow_74_4888"/>
<feBlend mode="normal" in="SourceGraphic" in2="effect1_dropShadow_74_4888" result="shape"/>
</filter>
<filter id="filter3_d_74_4888" x="101.02" y="192.333" width="130.345" height="130.345" filterUnits="userSpaceOnUse" color-interpolation-filters="sRGB">
<feFlood flood-opacity="0" result="BackgroundImageFix"/>
<feColorMatrix in="SourceAlpha" type="matrix" values="0 0 0 0 0 0 0 0 0 0 0 0 0 0 0 0 0 0 127 0" result="hardAlpha"/>
<feMorphology radius="12" operator="erode" in="SourceAlpha" result="effect1_dropShadow_74_4888"/>
<feOffset dy="25"/>
<feGaussianBlur stdDeviation="25"/>
<feComposite in2="hardAlpha" operator="out"/>
<feColorMatrix type="matrix" values="0 0 0 0 0 0 0 0 0 0 0 0 0 0 0 0 0 0 0.25 0"/>
<feBlend mode="normal" in2="BackgroundImageFix" result="effect1_dropShadow_74_4888"/>
<feBlend mode="normal" in="SourceGraphic" in2="effect1_dropShadow_74_4888" result="shape"/>
</filter>
<clipPath id="clip0_74_4888">
<rect width="30" height="25" fill="white" transform="translate(49.019 37.1344) rotate(-10.6029)"/>
</clipPath>
<clipPath id="clip1_74_4888">
<rect width="35" height="37" fill="white" transform="translate(117.113 25.9531) rotate(11.2005)"/>
</clipPath>
</defs>
</svg>
